<?xml version="1.0" encoding="utf-8"?>
<svg version="1.1" xmlns:xlink="http://www.w3.org/1999/xlink" width="38px" height="50px" xmlns="http://www.w3.org/2000/svg">
  <g transform="matrix(1 0 0 1 -209 -115 )">
    <path d="M 28.5989583333333 1.89732142857143  L 36.3177083333333 10.6026785714286  C 36.7795138888889 11.1235119047619  37.1753472222222 11.8303571428571  37.5052083333333 12.7232142857143  C 37.8350694444444 13.6160714285714  38 14.4345238095238  38 15.1785714285714  L 38 47.3214285714286  C 38 48.0654761904762  37.7690972222222 48.6979166666667  37.3072916666667 49.21875  C 36.8454861111111 49.7395833333333  36.2847222222222 50  35.625 50  L 2.375 50  C 1.71527777777778 50  1.15451388888889 49.7395833333333  0.692708333333333 49.21875  C 0.230902777777778 48.6979166666667  0 48.0654761904762  0 47.3214285714286  L 0 2.67857142857143  C 0 1.93452380952381  0.230902777777778 1.30208333333333  0.692708333333333 0.78125  C 1.15451388888889 0.260416666666669  1.71527777777778 0  2.375 0  L 24.5416666666667 0  C 25.2013888888889 0  25.9270833333333 0.186011904761907  26.71875 0.558035714285715  C 27.5104166666667 0.930059523809523  28.1371527777778 1.37648809523809  28.5989583333333 1.89732142857143  Z M 26.34765625 4.40848214285715  C 26.1497395833333 4.18526785714286  25.8116319444445 3.98065476190476  25 3.79464285714286  L 25 14.2857142857143  L 34.6354166666667 14.2857142857143  C 34.4704861111111 13.7462797619048  34.2890625 13.3649553571429  34.0911458333333 13.1417410714286  L 26.34765625 4.40848214285715  Z M 3.16666666666667 46  L 34.8333333333333 46  L 34.8333333333333 18  L 24.5416666666667 18  C 23.8819444444444 17.8571428571429  23.3211805555556 17.5967261904762  22.859375 17.0758928571429  C 22.3975694444444 16.5550595238095  22.1666666666667 15.922619047619  22 15.1785714285714  L 22 4  L 3.16666666666667 4  L 3.16666666666667 46  Z M 14.47265625 23.9118303571429  C 14.7365451388889 23.6328125  15.0251736111111 23.5677083333333  15.3385416666667 23.7165178571429  C 15.6684027777778 23.8653273809524  15.8333333333333 24.1443452380952  16 24.5535714285714  L 16 39.7321428571429  C 15.8333333333333 40.141369047619  15.6684027777778 40.4203869047619  15.3385416666667 40.5691964285714  C 15.2065972222222 40.6063988095238  15.1076388888889 40.625  15.0416666666667 40.625  C 14.84375 40.625  14.6540798611111 40.5412946428571  14.47265625 40.3738839285714  L 10.3658854166667 35.7142857142857  L 7.125 35.7142857142857  C 6.89409722222222 35.7142857142857  6.70442708333333 35.6305803571429  6.55598958333333 35.4631696428571  C 6.40755208333333 35.2957589285714  6.33333333333333 35.0818452380952  6.33333333333333 34.8214285714286  L 6.33333333333333 29.4642857142857  C 6.33333333333333 29.203869047619  6.40755208333333 28.9899553571429  6.55598958333333 28.8225446428571  C 6.70442708333333 28.6551339285714  6.89409722222222 28.5714285714286  7.125 28.5714285714286  L 10.3658854166667 28.5714285714286  L 14.47265625 23.9118303571429  Z M 24.6653645833333 42.5223214285714  C 24.9622395833333 42.8013392857143  25.2921006944444 42.9408482142857  25.6549479166667 42.9408482142857  C 26.1662326388889 42.9408482142857  26.5785590277778 42.7176339285714  26.8919270833333 42.2712053571429  C 29.01953125 39.3136160714286  30.0833333333333 35.9375  30.0833333333333 32.1428571428571  C 30.0833333333333 28.3482142857143  29.01953125 24.9720982142857  26.8919270833333 22.0145089285714  C 26.6280381944445 21.6238839285714  26.2734375 21.4006696428571  25.828125 21.3448660714286  C 25.3828125 21.2890625  24.9952256944445 21.4192708333333  24.6653645833333 21.7354910714286  C 24.3190104166667 22.0517113095238  24.1252170138889 22.4562872023809  24.083984375 22.94921875  C 24.0427517361111 23.442150297619  24.1623263888889 23.8839285714286  24.4427083333333 24.2745535714286  C 26.0920138888889 26.5625  26.9166666666667 29.1852678571429  26.9166666666667 32.1428571428571  C 26.9166666666667 35.1004464285714  26.0920138888889 37.7232142857143  24.4427083333333 40.0111607142857  C 24.1623263888889 40.4017857142857  24.0427517361111 40.8435639880952  24.083984375 41.3364955357143  C 24.1252170138889 41.8294270833333  24.3190104166667 42.2247023809524  24.6653645833333 42.5223214285714  Z M 19.3463541666667 38.3370535714286  C 19.6762152777778 38.6532738095238  20.0390625 38.8113839285714  20.4348958333333 38.8113839285714  C 20.8802083333333 38.8113839285714  21.2677951388889 38.6253720238095  21.59765625 38.2533482142857  C 23.0325520833333 36.5234375  23.75 34.4866071428571  23.75 32.1428571428571  C 23.75 29.7991071428571  23.0325520833333 27.7622767857143  21.59765625 26.0323660714286  C 21.30078125 25.678943452381  20.9296875 25.492931547619  20.484375 25.4743303571429  C 20.0390625 25.4557291666667  19.6597222222222 25.6138392857143  19.3463541666667 25.9486607142857  C 19.0329861111111 26.2834821428571  18.8680555555556 26.6973586309524  18.8515625 27.1902901785714  C 18.8350694444444 27.6832217261905  18.9835069444444 28.1156994047619  19.296875 28.4877232142857  C 20.1545138888889 29.5479910714286  20.5833333333333 30.766369047619  20.5833333333333 32.1428571428571  C 20.5833333333333 33.5193452380952  20.1545138888889 34.7377232142857  19.296875 35.7979910714286  C 18.9835069444444 36.1700148809524  18.8350694444444 36.6024925595238  18.8515625 37.0954241071429  C 18.8680555555556 37.5883556547619  19.0329861111111 38.0022321428571  19.3463541666667 38.3370535714286  Z " fill-rule="nonzero" fill="#ff0000" stroke="none" transform="matrix(1 0 0 1 209 115 )" />
  </g>
</svg>