<?xml version="1.0" encoding="utf-8"?>
<svg version="1.1" xmlns:xlink="http://www.w3.org/1999/xlink" width="16px" height="19px" xmlns="http://www.w3.org/2000/svg">
  <g transform="matrix(1 0 0 1 -118 -121 )">
    <path d="M 15.7083333333333 0.319711538461539  C 15.9027777777778 0.532852564102562  16 0.791666666666666  16 1.09615384615385  L 16 13.8846153846154  C 16 14.2652243589744  15.8819444444444 14.6039663461538  15.6458333333333 14.9008413461538  C 15.4097222222222 15.1977163461538  15.1111111111111 15.427984775641  14.75 15.5916466346154  C 14.3888888888889 15.7553084935897  14.0295138888889 15.8771033653846  13.671875 15.95703125  C 13.3142361111111 16.0369591346154  12.9791666666667 16.0769230769231  12.6666666666667 16.0769230769231  C 12.3541666666667 16.0769230769231  12.0190972222222 16.0369591346154  11.6614583333333 15.95703125  C 11.3038194444444 15.8771033653846  10.9444444444444 15.7553084935897  10.5833333333333 15.5916466346154  C 10.2222222222222 15.427984775641  9.92361111111111 15.1977163461538  9.6875 14.9008413461538  C 9.45138888888889 14.6039663461538  9.33333333333333 14.2652243589744  9.33333333333333 13.8846153846154  C 9.33333333333333 13.5040064102564  9.45138888888889 13.1652644230769  9.6875 12.8683894230769  C 9.92361111111111 12.5715144230769  10.2222222222222 12.3412459935897  10.5833333333333 12.1775841346154  C 10.9444444444444 12.013922275641  11.3038194444444 11.8921274038462  11.6614583333333 11.8121995192308  C 12.0190972222222 11.7322716346154  12.3541666666667 11.6923076923077  12.6666666666667 11.6923076923077  C 13.3958333333333 11.6923076923077  14.0625 11.8407451923077  14.6666666666667 12.1376201923077  L 14.6666666666667 6.00600961538462  L 6.66666666666667 8.71213942307692  L 6.66666666666667 16.8076923076923  C 6.66666666666667 17.1883012820513  6.54861111111111 17.5270432692308  6.3125 17.8239182692308  C 6.07638888888889 18.1207932692308  5.77777777777778 18.3510616987179  5.41666666666667 18.5147235576923  C 5.05555555555556 18.6783854166667  4.69618055555556 18.8001802884615  4.33854166666667 18.8801081730769  C 3.98090277777778 18.9600360576923  3.64583333333333 19  3.33333333333333 19  C 3.02083333333333 19  2.68576388888889 18.9600360576923  2.328125 18.8801081730769  C 1.97048611111111 18.8001802884615  1.61111111111111 18.6783854166667  1.25 18.5147235576923  C 0.888888888888889 18.3510616987179  0.590277777777778 18.1207932692308  0.354166666666667 17.8239182692308  C 0.118055555555556 17.5270432692308  0 17.1883012820513  0 16.8076923076923  C 0 16.4270833333333  0.118055555555556 16.0883413461538  0.354166666666667 15.7914663461538  C 0.590277777777778 15.4945913461538  0.888888888888889 15.2643229166667  1.25 15.1006610576923  C 1.61111111111111 14.936999198718  1.97048611111111 14.8152043269231  2.328125 14.7352764423077  C 2.68576388888889 14.6553485576923  3.02083333333333 14.6153846153846  3.33333333333333 14.6153846153846  C 4.0625 14.6153846153846  4.72916666666667 14.7638221153846  5.33333333333333 15.0606971153846  L 5.33333333333333 4.01923076923077  C 5.33333333333333 3.7832532051282  5.39930555555556 3.56820913461538  5.53125 3.37409855769231  C 5.66319444444445 3.17998798076923  5.83333333333333 3.04487179487179  6.04166666666667 2.96875  L 14.7083333333333 0.0456730769230768  C 14.7916666666667 0.0152243589743589  14.8888888888889 0  15 0  C 15.2777777777778 0  15.5138888888889 0.106570512820512  15.7083333333333 0.319711538461539  Z " fill-rule="nonzero" fill="#797979" stroke="none" transform="matrix(1 0 0 1 118 121 )" />
  </g>
</svg>