<?xml version="1.0" encoding="utf-8"?>
<svg version="1.1" xmlns:xlink="http://www.w3.org/1999/xlink" width="66px" height="77px" xmlns="http://www.w3.org/2000/svg">
  <defs>
    <linearGradient gradientUnits="userSpaceOnUse" x1="0.660000000000015" y1="38.5" x2="0.660000000000001" y2="38.5" id="LinearGradient144">
      <stop id="Stop145" stop-color="#ff8686" offset="0" />
      <stop id="Stop146" stop-color="#f61010" offset="1" />
    </linearGradient>
  </defs>
  <g transform="matrix(1 0 0 1 -151 -110 )">
    <path d="M 65.56171875 55.6695963541667  C 65.85390625 58.1928168402778  66 60.8747829861111  66 63.7154947916667  C 66 67.3582899305556  64.92578125 70.4830729166667  62.77734375 73.08984375  C 60.62890625 75.6966145833333  58.0421875 77  55.0171875 77  L 10.9828125 77  C 7.9578125 77  5.37109375 75.6966145833333  3.22265625 73.08984375  C 1.07421875 70.4830729166667  0 67.3582899305556  0 63.7154947916667  C 0 60.8747829861111  0.14609375 58.1928168402778  0.43828125 55.6695963541667  C 0.73046875 53.1463758680555  1.271875 50.6064453125  2.0625 48.0498046875  C 2.853125 45.4931640625  3.85859375 43.3041449652778  5.07890625 41.4827473958333  C 6.29921875 39.6613498263889  7.91484375 38.1741536458333  9.92578125 37.0211588541667  C 11.93671875 35.8681640625  14.2484375 35.2916666666667  16.8609375 35.2916666666667  C 21.3640625 39.5694444444444  26.74375 41.7083333333333  33 41.7083333333333  C 39.25625 41.7083333333333  44.6359375 39.5694444444444  49.1390625 35.2916666666667  C 51.7515625 35.2916666666667  54.06328125 35.8681640625  56.07421875 37.0211588541667  C 58.08515625 38.1741536458333  59.70078125 39.6613498263889  60.92109375 41.4827473958333  C 62.14140625 43.3041449652778  63.146875 45.4931640625  63.9375 48.0498046875  C 64.728125 50.6064453125  65.26953125 53.1463758680555  65.56171875 55.6695963541667  Z M 46.99921875 5.6396484375  C 50.86640625 9.3994140625  52.8 13.9361979166667  52.8 19.25  C 52.8 24.5638020833333  50.86640625 29.1005859375  46.99921875 32.8603515625  C 43.13203125 36.6201171875  38.465625 38.5  33 38.5  C 27.534375 38.5  22.86796875 36.6201171875  19.00078125 32.8603515625  C 15.13359375 29.1005859375  13.2 24.5638020833333  13.2 19.25  C 13.2 13.9361979166667  15.13359375 9.3994140625  19.00078125 5.6396484375  C 22.86796875 1.8798828125  27.534375 0  33 0  C 38.465625 0  43.13203125 1.8798828125  46.99921875 5.6396484375  Z " fill-rule="nonzero" fill="url(#LinearGradient144)" stroke="none" transform="matrix(1 0 0 1 151 110 )" />
  </g>
</svg>