<?xml version="1.0" encoding="utf-8"?>
<svg version="1.1" xmlns:xlink="http://www.w3.org/1999/xlink" width="76px" height="56px" xmlns="http://www.w3.org/2000/svg">
  <g transform="matrix(1 0 0 1 -112 -17 )">
    <path d="M 150 17  C 171.28 17  188 29.32  188 45  C 188 60.68  171.28 73  150 73  C 128.72 73  112 60.68  112 45  C 112 29.32  128.72 17  150 17  Z " fill-rule="nonzero" fill="#fde0e0" stroke="none" fill-opacity="0.462745098039216" />
    <path d="M 150 17.5  C 171 17.5  187.5 29.6  187.5 45  C 187.5 60.4  171 72.5  150 72.5  C 129 72.5  112.5 60.4  112.5 45  C 112.5 29.6  129 17.5  150 17.5  Z " stroke-width="1" stroke="#fcefef" fill="none" />
  </g>
</svg>