<?xml version="1.0" encoding="utf-8"?>
<svg version="1.1" xmlns:xlink="http://www.w3.org/1999/xlink" width="67px" height="53px" xmlns="http://www.w3.org/2000/svg">
  <defs>
    <mask fill="white" id="clip114">
      <path d="M 0 26.5  C 0 11.66  12.6578461538461 0  34.0153846153846 0  C 55.3729230769231 0  67 11.66  67 26.5  C 67 41.34  55.3729230769231 53  34.0153846153846 53  C 24.6669233157356 53  16.9852553980951 50.7660346887171  11.3023207805905 47.0092564404978  C 4.00199635927126 42.1832815108408  0 34.8443466766255  0 26.5  Z " fill-rule="evenodd" />
    </mask>
  </defs>
  <g transform="matrix(1 0 0 1 -288 -18 )">
    <path d="M 0 26.5  C 0 11.66  12.6578461538461 0  34.0153846153846 0  C 55.3729230769231 0  67 11.66  67 26.5  C 67 41.34  55.3729230769231 53  34.0153846153846 53  C 24.6669233157356 53  16.9852553980951 50.7660346887171  11.3023207805905 47.0092564404978  C 4.00199635927126 42.1832815108408  0 34.8443466766255  0 26.5  Z " fill-rule="nonzero" fill="#fde0e0" stroke="none" fill-opacity="0.462745098039216" transform="matrix(1 0 0 1 288 18 )" />
    <path d="M 0 26.5  C 0 11.66  12.6578461538461 0  34.0153846153846 0  C 55.3729230769231 0  67 11.66  67 26.5  C 67 41.34  55.3729230769231 53  34.0153846153846 53  C 24.6669233157356 53  16.9852553980951 50.7660346887171  11.3023207805905 47.0092564404978  C 4.00199635927126 42.1832815108408  0 34.8443466766255  0 26.5  Z " stroke-width="2" stroke="#fcefef" fill="none" transform="matrix(1 0 0 1 288 18 )" mask="url(#clip114)" />
  </g>
</svg>