<?xml version="1.0" encoding="utf-8"?>
<svg version="1.1" xmlns:xlink="http://www.w3.org/1999/xlink" width="42px" height="30px" xmlns="http://www.w3.org/2000/svg">
  <defs>
    <linearGradient gradientUnits="userSpaceOnUse" x1="41.58" y1="15" x2="0.42" y2="15" id="LinearGradient111">
      <stop id="Stop112" stop-color="#ff8686" offset="0" />
      <stop id="Stop113" stop-color="#f61010" offset="1" />
    </linearGradient>
  </defs>
  <g transform="matrix(1 0 0 1 -219 -30 )">
    <path d="M 11.2 10.7142857142857  C 11.2 12.265625  11.790625 13.6941964285714  12.971875 15  C 10.609375 15.0558035714286  8.67708333333333 15.7700892857143  7.175 17.1428571428571  L 4.24375 17.1428571428571  C 3.04791666666667 17.1428571428571  2.04166666666667 16.9168526785714  1.225 16.46484375  C 0.408333333333333 16.0128348214286  0 15.3515625  0 14.4810267857143  C 0 10.5412946428571  0.904166666666667 8.57142857142857  2.7125 8.57142857142857  C 2.8 8.57142857142857  3.1171875 8.68861607142857  3.6640625 8.92299107142857  C 4.2109375 9.15736607142857  4.921875 9.39453125  5.796875 9.63448660714286  C 6.671875 9.87444196428571  7.53958333333333 9.99441964285714  8.4 9.99441964285714  C 9.37708333333333 9.99441964285714  10.346875 9.86607142857143  11.309375 9.609375  C 11.2364583333333 10.0223214285714  11.2 10.390625  11.2 10.7142857142857  Z M 36.3234375 23.9313616071429  C 36.3744791666667 24.4949776785714  36.4 25.0725446428571  36.4 25.6640625  C 36.4 27.0033482142857  35.8677083333333 28.0608258928571  34.803125 28.8364955357143  C 33.7385416666667 29.6121651785714  32.3239583333333 30  30.559375 30  L 11.440625 30  C 9.67604166666667 30  8.26145833333334 29.6121651785714  7.196875 28.8364955357143  C 6.13229166666667 28.0608258928571  5.6 27.0033482142857  5.6 25.6640625  C 5.6 25.0725446428571  5.62552083333333 24.4949776785714  5.6765625 23.9313616071429  C 5.72760416666667 23.3677455357143  5.8296875 22.7594866071429  5.9828125 22.1065848214286  C 6.1359375 21.4536830357143  6.32916666666667 20.8482142857143  6.5625 20.2901785714286  C 6.79583333333333 19.7321428571429  7.109375 19.1880580357143  7.503125 18.6579241071429  C 7.896875 18.1277901785714  8.34895833333333 17.67578125  8.859375 17.3018973214286  C 9.36979166666667 16.9280133928571  9.99322916666667 16.6294642857143  10.7296875 16.40625  C 11.4661458333333 16.1830357142857  12.2791666666667 16.0714285714286  13.16875 16.0714285714286  C 13.3145833333333 16.0714285714286  13.628125 16.19140625  14.109375 16.4313616071429  C 14.590625 16.6713169642857  15.1229166666667 16.9391741071429  15.70625 17.2349330357143  C 16.2895833333333 17.5306919642857  17.0697916666667 17.7985491071429  18.046875 18.0385044642857  C 19.0239583333333 18.2784598214286  20.0083333333333 18.3984375  21 18.3984375  C 21.9916666666667 18.3984375  22.9760416666667 18.2784598214286  23.953125 18.0385044642857  C 24.9302083333333 17.7985491071429  25.7104166666667 17.5306919642857  26.29375 17.2349330357143  C 26.8770833333333 16.9391741071429  27.409375 16.6713169642857  27.890625 16.4313616071429  C 28.371875 16.19140625  28.6854166666667 16.0714285714286  28.83125 16.0714285714286  C 29.7208333333333 16.0714285714286  30.5338541666667 16.1830357142857  31.2703125 16.40625  C 32.0067708333333 16.6294642857143  32.6302083333333 16.9280133928571  33.140625 17.3018973214286  C 33.6510416666667 17.67578125  34.103125 18.1277901785714  34.496875 18.6579241071429  C 34.890625 19.1880580357143  35.2041666666667 19.7321428571429  35.4375 20.2901785714286  C 35.6708333333333 20.8482142857143  35.8640625 21.4536830357143  36.0171875 22.1065848214286  C 36.1703125 22.7594866071429  36.2723958333333 23.3677455357143  36.3234375 23.9313616071429  Z M 12.359375 1.25558035714286  C 13.453125 2.09263392857143  14 3.10267857142857  14 4.28571428571429  C 14 5.46875  13.453125 6.47879464285714  12.359375 7.31584821428571  C 11.265625 8.15290178571429  9.94583333333333 8.57142857142857  8.4 8.57142857142857  C 6.85416666666667 8.57142857142857  5.534375 8.15290178571429  4.440625 7.31584821428571  C 3.346875 6.47879464285714  2.8 5.46875  2.8 4.28571428571429  C 2.8 3.10267857142857  3.346875 2.09263392857143  4.440625 1.25558035714286  C 5.534375 0.418526785714287  6.85416666666667 0  8.4 0  C 9.94583333333333 0  11.265625 0.418526785714287  12.359375 1.25558035714286  Z M 26.9390625 6.16908482142857  C 28.5796875 7.42466517857143  29.4 8.93973214285714  29.4 10.7142857142857  C 29.4 12.4888392857143  28.5796875 14.00390625  26.9390625 15.2594866071429  C 25.2984375 16.5150669642857  23.31875 17.1428571428571  21 17.1428571428571  C 18.68125 17.1428571428571  16.7015625 16.5150669642857  15.0609375 15.2594866071429  C 13.4203125 14.00390625  12.6 12.4888392857143  12.6 10.7142857142857  C 12.6 8.93973214285714  13.4203125 7.42466517857143  15.0609375 6.16908482142857  C 16.7015625 4.91350446428571  18.68125 4.28571428571429  21 4.28571428571429  C 23.31875 4.28571428571429  25.2984375 4.91350446428571  26.9390625 6.16908482142857  Z M 39.2875 8.57142857142857  C 41.0958333333333 8.57142857142857  42 10.5412946428571  42 14.4810267857143  C 42 15.3515625  41.5916666666667 16.0128348214286  40.775 16.46484375  C 39.9583333333333 16.9168526785714  38.9520833333333 17.1428571428571  37.75625 17.1428571428571  L 34.825 17.1428571428571  C 33.3229166666667 15.7700892857143  31.390625 15.0558035714286  29.028125 15  C 30.209375 13.6941964285714  30.8 12.265625  30.8 10.7142857142857  C 30.8 10.390625  30.7635416666667 10.0223214285714  30.690625 9.609375  C 31.653125 9.86607142857143  32.6229166666667 9.99441964285714  33.6 9.99441964285714  C 34.4604166666667 9.99441964285714  35.328125 9.87444196428571  36.203125 9.63448660714286  C 37.078125 9.39453125  37.7890625 9.15736607142857  38.3359375 8.92299107142857  C 38.8828125 8.68861607142857  39.2 8.57142857142857  39.2875 8.57142857142857  Z M 37.559375 1.25558035714286  C 38.653125 2.09263392857143  39.2 3.10267857142857  39.2 4.28571428571429  C 39.2 5.46875  38.653125 6.47879464285714  37.559375 7.31584821428571  C 36.465625 8.15290178571429  35.1458333333333 8.57142857142857  33.6 8.57142857142857  C 32.0541666666667 8.57142857142857  30.734375 8.15290178571429  29.640625 7.31584821428571  C 28.546875 6.47879464285714  28 5.46875  28 4.28571428571429  C 28 3.10267857142857  28.546875 2.09263392857143  29.640625 1.25558035714286  C 30.734375 0.418526785714287  32.0541666666667 0  33.6 0  C 35.1458333333333 0  36.465625 0.418526785714287  37.559375 1.25558035714286  Z " fill-rule="nonzero" fill="url(#LinearGradient111)" stroke="none" transform="matrix(1 0 0 1 219 30 )" />
  </g>
</svg>