<?xml version="1.0" encoding="utf-8"?>
<svg version="1.1" xmlns:xlink="http://www.w3.org/1999/xlink" width="43px" height="35px" xmlns="http://www.w3.org/2000/svg">
  <g transform="matrix(1 0 0 1 -298 -27 )">
    <path d="M 40.8061224489796 6.99544270833333  C 41.4599839935974 7.22330729166667  41.9675870348139 7.54991319444444  42.3289315726291 7.97526041666667  C 43.0172068827531 8.84114583333333  43.172068827531 9.82096354166667  42.7935174069628 10.9147135416667  L 35.6956782713085 31.5592447916667  C 35.3687474989996 32.5314670138889  34.7105842336935 33.3479817708333  33.7211884753902 34.0087890625  C 32.7317927170868 34.6695963541667  31.6778711484594 35  30.5594237695078 35  L 6.73649459783914 35  C 5.41156462585034 35  4.13395358143257 34.5936414930556  2.90366146458583 33.7809244791667  C 1.6733693477391 32.9682074652778  0.817326930772309 31.9694010416667  0.335534213685474 30.7845052083333  C -0.0774309723889556 29.7667100694444  -0.0946378551420568 28.8020833333333  0.28391356542617 27.890625  C 0.28391356542617 27.8298611111111  0.309723889555822 27.6247829861111  0.361344537815126 27.275390625  C 0.41296518607443 26.9259982638889  0.447378951580632 26.6449652777778  0.464585834333734 26.4322916666667  C 0.481792717086835 26.3107638888889  0.455982392957183 26.1474609375  0.387154861944778 25.9423828125  C 0.318327330932373 25.7373046875  0.292517006802721 25.5891927083333  0.309723889555822 25.498046875  C 0.344137655062025 25.3309461805556  0.41296518607443 25.1714409722222  0.516206482593037 25.01953125  C 0.619447779111645 24.8676215277778  0.76140456182473 24.6891276041667  0.942076830732293 24.4840494791667  C 1.12274909963986 24.2789713541667  1.26470588235294 24.1004774305556  1.36794717887155 23.9485677083333  C 1.76370548219288 23.3713107638889  2.15086034413766 22.6763237847222  2.52941176470588 21.8636067708333  C 2.90796318527411 21.0508897569444  3.16606642657063 20.3559027777778  3.30372148859544 19.7786458333333  C 3.35534213685474 19.6267361111111  3.35964385754302 19.3988715277778  3.31662665066026 19.0950520833333  C 3.27360944377751 18.7912326388889  3.26930772308924 18.5785590277778  3.30372148859544 18.45703125  C 3.35534213685474 18.2899305555556  3.5016006402561 18.0772569444444  3.74249699879952 17.8190104166667  C 3.98339335734294 17.5607638888889  4.1296518607443 17.3860677083333  4.1812725090036 17.294921875  C 4.54261704681873 16.748046875  4.90396158463385 16.0492621527778  5.26530612244898 15.1985677083333  C 5.62665066026411 14.3478732638889  5.84173669467787 13.6642795138889  5.91056422569028 13.1477864583333  C 5.92777110844338 13.0110677083333  5.906262505002 12.7680121527778  5.84603841536615 12.4186197916667  C 5.78581432573029 12.0692274305556  5.79011604641857 11.8565538194444  5.85894357743097 11.7805989583333  C 5.92777110844338 11.5831163194444  6.11704681872749 11.3514539930556  6.42677070828331 11.0856119791667  C 6.73649459783914 10.8197699652778  6.92577030812325 10.6488715277778  6.99459783913565 10.5729166666667  C 7.32152861144458 10.1779513888889  7.68717486994798 9.5361328125  8.09153661464586 8.6474609375  C 8.49589835934374 7.7587890625  8.73249299719888 7.02582465277778  8.80132052821129 6.44856770833333  C 8.81852741096439 6.32703993055555  8.79271708683473 6.13335503472222  8.72388955582233 5.86751302083333  C 8.65506202480992 5.60167100694444  8.63785514205682 5.400390625  8.67226890756302 5.263671875  C 8.70668267306923 5.14214409722222  8.78411364545818 5.00542534722222  8.90456182472989 4.853515625  C 9.0250100040016 4.70160590277778  9.17987194877951 4.52690972222222  9.36914765906362 4.32942708333333  C 9.55842336934774 4.13194444444444  9.7046818727491 3.97243923611111  9.80792316926771 3.85091145833333  C 9.94557823129252 3.66861979166667  10.0875350140056 3.43695746527778  10.233793517407 3.15592447916667  C 10.3800520208083 2.87489149305555  10.5091036414566 2.60904947916667  10.6209483793517 2.3583984375  C 10.7327931172469 2.10774739583333  10.8704481792717 1.83430989583333  11.0339135654262 1.5380859375  C 11.1973789515806 1.24186197916667  11.3651460584234 0.998806423611109  11.5372148859544 0.808919270833332  C 11.7092837134854 0.619032118055551  11.937274909964 0.440538194444441  12.2211884753902 0.2734375  C 12.5051020408163 0.106336805555551  12.8148259303721 0.0189887152777773  13.1503601440576 0.011393229166668  C 13.4858943577431 0.00379774305555081  13.8945578231293 0.045572916666668  14.3763505402161 0.13671875  L 14.3505402160864 0.205078125  C 15.0044017607043 0.068359375  15.4431772709084 0  15.6668667466987 0  L 35.3085234093637 0  C 36.5818327330932 0  37.56262505002 0.425347222222219  38.2509003601441 1.27604166666667  C 38.9391756702681 2.12673611111111  39.094037615046 3.11414930555555  38.7154861944778 4.23828125  L 31.6434573829532 24.8828125  C 31.0240096038415 26.6905381944444  30.4088635454182 27.8564453125  29.7980192076831 28.3805338541667  C 29.187174869948 28.9046223958333  28.0816326530612 29.1666666666667  26.4813925570228 29  L 4.05222088835534 29  C 3.58763505402161 29.1666666666667  3.26070428171269 29.2805989583333  3.07142857142857 29.5084635416667  C 2.88215286114446 29.7515190972222  2.87354941976791 30.078125  3.04561824729892 30.48828125  C 3.45858343337335 31.5516493055556  4.69747899159664 32.0833333333333  6.76230492196879 32  L 30.5852340936375 32  C 31.0842336934774 32.0833333333333  31.5660264105642 31.9656032986111  32.030612244898 31.7301432291667  C 32.4951980792317 31.4946831597222  32.796318527411 31.1794704861111  32.9339735894358 30.7845052083333  L 40.6770708283313 8.29427083333333  C 40.797519007603 7.96006944444444  40.8405362144858 7.52712673611111  40.8061224489796 6.99544270833333  Z M 15.4087635054022 6.5625  L 14.8667466986795 8.02083333333333  C 14.7979191676671 8.21831597222222  14.8151260504202 8.38921440972222  14.9183673469388 8.53352864583333  C 15.0216086434574 8.67784288194444  15.1936774709884 8.75  15.4345738295318 9  L 31.1272509003601 9  C 31.3509403761505 8.75  31.5703281312525 8.67784288194444  31.7854141656663 8.53352864583333  C 32.00050020008 8.38921440972222  32.1424569827931 8.21831597222222  32.2112845138055 8.02083333333333  L 32.7533013205282 6.5625  C 32.8221288515406 6.36501736111111  32.8049219687875 6.19411892361111  32.7016806722689 6.0498046875  C 32.5984393757503 5.90549045138889  32.4263705482193 5.83333333333333  32.1854741896759 6  L 16.4927971188475 6  C 16.2691076430572 5.83333333333333  16.0497198879552 5.90549045138889  15.8346338535414 6.0498046875  C 15.6195478191277 6.19411892361111  15.4775910364146 6.36501736111111  15.4087635054022 6.5625  Z M 13.2665066026411 12.3958333333333  L 12.7244897959184 13.8541666666667  C 12.655662264906 14.0516493055556  12.6728691476591 14.2225477430556  12.7761104441777 14.3668619791667  C 12.8793517406963 14.5111762152778  13.0514205682273 14.5833333333333  13.2923169267707 15  L 28.984993997599 15  C 29.2086834733894 14.5833333333333  29.4280712284914 14.5111762152778  29.6431572629052 14.3668619791667  C 29.8582432973189 14.2225477430556  30.000200080032 14.0516493055556  30.0690276110444 13.8541666666667  L 30.6110444177671 12.3958333333333  C 30.6798719487795 12.1983506944444  30.6626650660264 12.0274522569444  30.5594237695078 11.8831380208333  C 30.4561824729892 11.7388237847222  30.2841136454582 11.6666666666667  30.0432172869148 12  L 14.3505402160864 12  C 14.1268507402961 11.6666666666667  13.9074629851941 11.7388237847222  13.6923769507803 11.8831380208333  C 13.4772909163665 12.0274522569444  13.3353341336535 12.1983506944444  13.2665066026411 12.3958333333333  Z " fill-rule="nonzero" fill="#f24040" stroke="none" transform="matrix(1 0 0 1 298 27 )" />
  </g>
</svg>