<?xml version="1.0" encoding="utf-8"?>
<svg version="1.1" xmlns:xlink="http://www.w3.org/1999/xlink" width="45px" height="37px" xmlns="http://www.w3.org/2000/svg">
  <defs>
    <linearGradient gradientUnits="userSpaceOnUse" x1="44.55" y1="18.5" x2="0.45" y2="18.5" id="LinearGradient115">
      <stop id="Stop116" stop-color="#ff8686" offset="0" />
      <stop id="Stop117" stop-color="#f61010" offset="1" />
    </linearGradient>
  </defs>
  <g transform="matrix(1 0 0 1 -128 -28 )">
    <path d="M 22.55859375 21.1428571428571  C 26.93359375 21.1428571428571  29.12109375 22.2991071428571  29.12109375 24.6116071428571  C 29.12109375 25.7953869047619  28.955078125 27.1512276785714  28.623046875 28.6791294642857  C 28.017578125 31.6385788690476  27.48046875 33.7927827380952  27.01171875 35.1417410714286  C 26.58203125 36.3805803571429  25.09765625 37  22.55859375 37  C 20.01953125 37  18.53515625 36.3805803571429  18.10546875 35.1417410714286  C 17.63671875 33.7927827380952  17.099609375 31.6385788690476  16.494140625 28.6791294642857  C 16.162109375 27.1649925595238  15.99609375 25.8091517857143  15.99609375 24.6116071428571  C 15.99609375 22.2991071428571  18.18359375 21.1428571428571  22.55859375 21.1428571428571  Z M 43.0810546875 9.48744419642857  C 44.3603515625 11.5039992559524  45 13.6272321428571  45 15.8571428571429  C 45 19.1607142857143  43.69140625 22.1476934523809  41.07421875 24.8180803571429  C 38.45703125 27.4884672619048  35.0390625 29.4155505952381  30.8203125 30.5993303571429  C 30.6640625 30.640625  30.517578125 30.6199776785714  30.380859375 30.5373883928571  C 30.244140625 30.4547991071429  30.185546875 30.3515625  30.205078125 30.2276785714286  C 30.341796875 29.5669642857143  30.439453125 29.1127232142857  30.498046875 28.8649553571429  C 30.576171875 28.4244791666667  30.634765625 28.1010044642857  30.673828125 27.89453125  C 30.693359375 27.7706473214286  30.78125 27.6880580357143  30.9375 27.6467633928571  C 34.04296875 26.5318080357143  36.5380859375 24.9213169642857  38.4228515625 22.8152901785714  C 40.3076171875 20.7092633928571  41.25 18.389880952381  41.25 15.8571428571429  C 41.25 13.3794642857143  40.361328125 11.1048177083333  38.583984375 9.033203125  C 36.806640625 6.96158854166667  34.39453125 5.34765625  31.34765625 4.19140625  C 28.30078125 3.03515625  25.009765625 2.5258556547619  21.474609375 2.66350446428571  C 19.052734375 2.75985863095238  16.73828125 3.1796875  14.53125 3.92299107142857  C 12.32421875 4.66629464285714  10.4345703125 5.6332775297619  8.8623046875 6.82393973214286  C 7.2900390625 8.01460193452381  6.0400390625 9.40485491071429  5.1123046875 10.9946986607143  C 4.1845703125 12.5845424107143  3.73046875 14.2397693452381  3.75 15.9603794642857  C 3.76953125 18.4931175595238  4.736328125 20.8090587797619  6.650390625 22.908203125  C 8.564453125 25.0073474702381  11.07421875 26.6006324404762  14.1796875 27.6880580357143  C 14.31640625 27.7293526785714  14.404296875 27.8119419642857  14.443359375 27.9358258928571  C 14.501953125 28.2248883928571  14.560546875 28.5345982142857  14.619140625 28.8649553571429  C 14.638671875 28.9888392857143  14.6875 29.2125186011905  14.765625 29.5359933035714  C 14.84375 29.8594680059524  14.90234375 30.1037946428571  14.94140625 30.2689732142857  C 14.9609375 30.3928571428571  14.8974609375 30.49609375  14.7509765625 30.5786830357143  C 14.6044921875 30.6612723214286  14.453125 30.675037202381  14.296875 30.6199776785714  C 11.40625 29.8216145833333  8.857421875 28.655040922619  6.650390625 27.1202566964286  C 4.443359375 25.5854724702381  2.7490234375 23.7685081845238  1.5673828125 21.6693638392857  C 0.3857421875 19.5702194940476  -0.126953125 17.3712797619048  0.029296875 15.0725446428571  C 0.166015625 13.1041666666667  0.810546875 11.2218191964286  1.962890625 9.42550223214286  C 3.115234375 7.62918526785714  4.6240234375 6.0668712797619  6.4892578125 4.73856026785714  C 8.3544921875 3.41024925595238  10.5517578125 2.32626488095238  13.0810546875 1.48660714285714  C 15.6103515625 0.646949404761901  18.271484375 0.165178571428571  21.064453125 0.0412946428571417  C 24.267578125 -0.0963541666666694  27.3486328125 0.223679315476189  30.3076171875 1.00139508928571  C 33.2666015625 1.77911086309524  35.8154296875 2.88374255952381  37.9541015625 4.31529017857143  C 40.0927734375 5.74683779761905  41.8017578125 7.47088913690476  43.0810546875 9.48744419642857  Z M 27.2021484375 11.923828125  C 28.4814453125 12.8254278273809  29.12109375 13.9162946428571  29.12109375 15.1964285714286  C 29.12109375 16.4765625  28.4814453125 17.5674293154762  27.2021484375 18.4690290178571  C 25.9228515625 19.3706287202381  24.375 19.8214285714286  22.55859375 19.8214285714286  C 20.7421875 19.8214285714286  19.1943359375 19.3706287202381  17.9150390625 18.4690290178571  C 16.6357421875 17.5674293154762  15.99609375 16.4765625  15.99609375 15.1964285714286  C 15.99609375 13.9162946428571  16.6357421875 12.8254278273809  17.9150390625 11.923828125  C 19.1943359375 11.022228422619  20.7421875 10.5714285714286  22.55859375 10.5714285714286  C 24.375 10.5714285714286  25.9228515625 11.022228422619  27.2021484375 11.923828125  Z M 35.4345703125 10.4165736607143  C 36.8505859375 12.0752418154762  37.55859375 13.8887648809524  37.55859375 15.8571428571429  C 37.55859375 17.5364583333333  37.0361328125 19.1090959821429  35.9912109375 20.5750558035714  C 34.9462890625 22.041015625  33.515625 23.2626488095238  31.69921875 24.2399553571429  C 31.54296875 24.3225446428571  31.38671875 24.3363095238095  31.23046875 24.28125  C 31.07421875 24.2261904761905  30.9765625 24.1298363095238  30.9375 23.9921875  C 30.8203125 23.2764136904762  30.537109375 22.6432291666667  30.087890625 22.0926339285714  C 29.951171875 21.9549851190476  29.98046875 21.8173363095238  30.17578125 21.6796875  C 31.30859375 20.9363839285714  32.197265625 20.0623139880952  32.841796875 19.0574776785714  C 33.486328125 18.0526413690476  33.80859375 16.9858630952381  33.80859375 15.8571428571429  C 33.80859375 14.3292410714286  33.2373046875 12.9252232142857  32.0947265625 11.6450892857143  C 30.9521484375 10.3649553571429  29.4140625 9.3910900297619  27.48046875 8.72349330357143  C 25.546875 8.05589657738095  23.4765625 7.8046875  21.26953125 7.96986607142857  C 18.671875 8.17633928571429  16.435546875 8.95405505952381  14.560546875 10.3030133928571  C 12.685546875 11.6519717261905  11.62109375 13.2418154761905  11.3671875 15.0725446428571  C 11.171875 16.3389136904762  11.4013671875 17.5502232142857  12.0556640625 18.7064732142857  C 12.7099609375 19.8627232142857  13.671875 20.8537946428571  14.94140625 21.6796875  C 15.13671875 21.8173363095238  15.166015625 21.9549851190476  15.029296875 22.0926339285714  C 14.560546875 22.656994047619  14.27734375 23.2970610119048  14.1796875 24.0128348214286  C 14.140625 24.13671875  14.04296875 24.2261904761905  13.88671875 24.28125  C 13.73046875 24.3363095238095  13.57421875 24.3225446428571  13.41796875 24.2399553571429  C 11.5625 23.2213541666667  10.1123046875 21.9618675595238  9.0673828125 20.4614955357143  C 8.0224609375 18.9611235119048  7.51953125 17.3506324404762  7.55859375 15.6300223214286  C 7.6171875 13.8268229166667  8.291015625 12.1475074404762  9.580078125 10.5920758928571  C 10.869140625 9.03664434523809  12.59765625 7.78748139880952  14.765625 6.84458705357143  C 16.93359375 5.90169270833333  19.287109375 5.38895089285714  21.826171875 5.30636160714286  C 24.638671875 5.21000744047619  27.255859375 5.62295386904762  29.677734375 6.54520089285714  C 32.099609375 7.46744791666667  34.0185546875 8.75790550595238  35.4345703125 10.4165736607143  Z " fill-rule="nonzero" fill="url(#LinearGradient115)" stroke="none" transform="matrix(1 0 0 1 128 28 )" />
  </g>
</svg>