<?xml version="1.0" encoding="utf-8"?>
<svg version="1.1" xmlns:xlink="http://www.w3.org/1999/xlink" width="26px" height="26px" xmlns="http://www.w3.org/2000/svg">
  <g transform="matrix(1 0 0 1 -105 -737 )">
    <path d="M 1.58059118795315 24.4194088120469  C 1.76426845138502 24.6030860754787  1.85610708310095 24.8205986242796  1.85610708310095 25.0719464584495  C 1.85610708310095 25.3232942926194  1.76426845138502 25.5408068414203  1.58059118795315 25.7244841048522  C 1.39691392452129 25.9081613682841  1.17940137572039 26  0.928053541550474 26  C 0.676705707380554 26  0.459193158579662 25.9081613682841  0.275515895147797 25.7244841048522  C 0.0918386317159323 25.5408068414203  0 25.3232942926194  0 25.0719464584495  C 0 24.8205986242796  0.0918386317159323 24.6030860754787  0.275515895147797 24.4194088120469  C 0.459193158579662 24.235731548615  0.676705707380554 24.1438929168991  0.928053541550474 24.1438929168991  C 1.17940137572039 24.1438929168991  1.39691392452129 24.235731548615  1.58059118795315 24.4194088120469  Z M 4.36475181260457 21.6352481873954  C 4.54842907603644 21.8189254508273  4.64026770775237 22.0364379996282  4.64026770775237 22.2877858337981  C 4.64026770775237 22.539133667968  4.54842907603644 22.7566462167689  4.36475181260457 22.9403234802008  C 4.18107454917271 23.1240007436326  3.96356200037182 23.2158393753486  3.7122141662019 23.2158393753486  C 3.46086633203198 23.2158393753486  3.24335378323108 23.1240007436326  3.05967651979922 22.9403234802008  C 2.87599925636735 22.7566462167689  2.78416062465142 22.539133667968  2.78416062465142 22.2877858337981  C 2.78416062465142 22.0364379996282  2.87599925636735 21.8189254508273  3.05967651979922 21.6352481873954  C 3.24335378323108 21.4515709239636  3.46086633203198 21.3597322922476  3.7122141662019 21.3597322922476  C 3.96356200037182 21.3597322922476  4.18107454917271 21.4515709239636  4.36475181260457 21.6352481873954  Z M 3.98773006134969 18.3000557724484  L 5.29280535415505 16.9949804796431  L 9.00501952035694 20.707194645845  L 7.69994422755159 22.0122699386503  L 3.98773006134969 18.3000557724484  Z M 9.93307306190742 16.0669269380926  C 10.1167503253393 16.2506042015244  10.2085889570552 16.4681167503253  10.2085889570552 16.7194645844953  C 10.2085889570552 16.9708124186652  10.1167503253393 17.1883249674661  9.93307306190742 17.3720022308979  C 9.74939579847555 17.5556794943298  9.53188324967466 17.6475181260457  9.28053541550474 17.6475181260457  C 9.02918758133482 17.6475181260457  8.81167503253393 17.5556794943298  8.62799776910206 17.3720022308979  C 8.4443205056702 17.1883249674661  8.35248187395427 16.9708124186652  8.35248187395427 16.7194645844953  C 8.35248187395427 16.4681167503253  8.4443205056702 16.2506042015244  8.62799776910206 16.0669269380926  C 8.81167503253393 15.8832496746607  9.02918758133482 15.7914110429448  9.28053541550474 15.7914110429448  C 9.53188324967466 15.7914110429448  9.74939579847555 15.8832496746607  9.93307306190742 16.0669269380926  Z M 19.8008923591746 8.83825989960959  C 20.2407510689719 9.86781929726715  20.4606804238706 10.9481316229782  20.4606804238706 12.0791968767429  C 20.4606804238706 12.6495631158208  20.4050938836215 13.1740100390407  20.2939208031233 13.6525376464027  C 20.182747722625 14.1310652537646  20.0014872652909 14.5830079940509  19.750139431121 15.0083658672616  C 19.4987915969511 15.4337237404722  19.2861126603458 15.7599925636735  19.1121026213051 15.9871723368656  C 18.9380925822644 16.2143521100576  18.6819111358989 16.5261200966722  18.3435582822086 16.9224762967094  C 18.0438743260829 17.2608291503997  17.8239449711842 17.5218442089608  17.6837702175125 17.7055214723926  C 17.5435954638409 17.8891987358245  17.3816694552891 18.1308793456033  17.1979921918572 18.4305633017289  C 17.0143149284254 18.7302472578546  16.8862242052426 19.0395984383714  16.813720022309 19.3586168432794  C 16.7412158393753 19.6776352481874  16.7049637479085 20.03532255066  16.7049637479085 20.4316787506972  C 16.7049637479085 21.9687674288901  16.1611823759063 23.2810931399888  15.0736196319018 24.3686558839933  C 13.9860568878974 25.4562186279978  12.6737311767987 26  11.1366424986057 26  C 10.8852946644358 26  10.6677821156349 25.9081613682841  10.484104852203 25.7244841048522  C 10.3004275887711 25.5408068414203  10.2085889570552 25.3232942926194  10.2085889570552 25.0719464584495  C 10.2085889570552 24.8205986242796  10.3004275887711 24.6030860754787  10.484104852203 24.4194088120469  C 10.6677821156349 24.235731548615  10.8852946644358 24.1438929168991  11.1366424986057 24.1438929168991  C 12.1613682840677 24.1438929168991  13.0362520914668 23.7813720022309  13.7612939208031 23.0563301728946  C 14.4863357501394 22.3312883435583  14.8488566648076 21.4564045361591  14.8488566648076 20.4316787506972  C 14.8488566648076 19.8806469604016  14.9044432050567 19.3707008737684  15.0156162855549 18.9018404907975  C 15.1267893660532 18.4329801078267  15.3056330172895 17.9931213980294  15.5521472392638 17.5822643614055  C 15.7986614612381 17.1714073247816  16.0089235917457 16.8499721137758  16.1829336307864 16.6179587283882  C 16.3569436698271 16.3859453430006  16.608291503997 16.0814277746793  16.9369771332962 15.7044060234244  C 17.3236661089422 15.2597137014315  17.6112660345789 14.9116936233501  17.7997769102064 14.6603457891801  C 17.9882877858338 14.4089979550102  18.1695482431679 14.0488938464399  18.3435582822086 13.580033463469  C 18.5175683212493 13.1111730804982  18.6045733407697 12.6108942182562  18.6045733407697 12.0791968767429  C 18.6045733407697 10.29076036438  17.9689533370515 8.76092210448038  16.6977133296152 7.48968209704406  C 15.4264733221788 6.21844208960773  13.8966350622792 5.58282208588957  12.1081985499163 5.58282208588957  C 10.3197620375535 5.58282208588957  8.78992377765384 6.21844208960773  7.51868377021751 7.48968209704406  C 6.24744376278119 8.76092210448038  5.61182375906302 10.29076036438  5.61182375906302 12.0791968767429  C 5.61182375906302 12.3305447109128  5.51998512734709 12.5480572597137  5.33630786391523 12.7317345231456  C 5.15263060048336 12.9154117865774  4.93511805168247 13.0072504182934  4.68377021751255 13.0072504182934  C 4.43242238334263 13.0072504182934  4.21490983454174 12.9154117865774  4.03123257110987 12.7317345231456  C 3.84755530767801 12.5480572597137  3.75571667596207 12.3305447109128  3.75571667596207 12.0791968767429  C 3.75571667596207 10.9481316229782  3.97564603086076 9.86781929726715  4.41550474065811 8.83825989960959  C 4.85536345045548 7.80870050195204  5.44989775051125 6.91931585796616  6.19910764082543 6.17010596765198  C 6.94831753113962 5.42089607733779  7.83770217512549 4.82636177728202  8.86726157278305 4.38650306748466  C 9.8968209704406 3.9466443576873  10.9771332961517 3.72671500278862  12.1081985499163 3.72671500278862  C 13.239263803681 3.72671500278862  14.3195761293921 3.9466443576873  15.3491355270496 4.38650306748466  C 16.3786949247072 4.82636177728202  17.2680795686931 5.42089607733779  18.0172894590073 6.17010596765198  C 18.7664993493214 6.91931585796616  19.3610336493772 7.80870050195204  19.8008923591746 8.83825989960959  Z M 12.7172336865588 13.2827663134412  C 12.9009109499907 13.466443576873  12.9927495817066 13.6839561256739  12.9927495817066 13.9353039598438  C 12.9927495817066 14.1866517940138  12.9009109499907 14.4041643428146  12.7172336865588 14.5878416062465  C 12.533556423127 14.7715188696784  12.3160438743261 14.8633575013943  12.0646960401562 14.8633575013943  C 11.8133482059862 14.8633575013943  11.5958356571854 14.7715188696784  11.4121583937535 14.5878416062465  C 11.2284811303216 14.4041643428146  11.1366424986057 14.1866517940138  11.1366424986057 13.9353039598438  C 11.1366424986057 13.6839561256739  11.2284811303216 13.466443576873  11.4121583937535 13.2827663134412  C 11.5958356571854 13.0990890500093  11.8133482059862 13.0072504182934  12.0646960401562 13.0072504182934  C 12.3160438743261 13.0072504182934  12.533556423127 13.0990890500093  12.7172336865588 13.2827663134412  Z M 15.675404350251 8.46848856664808  C 16.6711284625395 9.4642126789366  17.1689905186838 10.6677821156349  17.1689905186838 12.0791968767429  C 17.1689905186838 12.3305447109128  17.0771518869678 12.5480572597137  16.893474623536 12.7317345231456  C 16.7097973601041 12.9154117865774  16.4922848113032 13.0072504182934  16.2409369771333 13.0072504182934  C 15.9895891429634 13.0072504182934  15.7720765941625 12.9154117865774  15.5883993307306 12.7317345231456  C 15.4047220672988 12.5480572597137  15.3128834355828 12.3305447109128  15.3128834355828 12.0791968767429  C 15.3128834355828 11.1801450083659  14.9962818367726 10.4140174753672  14.3630786391523 9.78081427774679  C 13.7298754415319 9.14761108012642  12.9637479085332 8.83100948131623  12.0646960401562 8.83100948131623  C 11.1753113961703 8.83100948131623  10.4116006692694 9.14761108012642  9.77356385945343 9.78081427774679  C 9.13552704963748 10.4140174753672  8.8165086447295 11.1801450083659  8.8165086447295 12.0791968767429  C 8.8165086447295 12.3305447109128  8.72467001301357 12.5480572597137  8.54099274958171 12.7317345231456  C 8.35731548614984 12.9154117865774  8.13980293734895 13.0072504182934  7.88845510317903 13.0072504182934  C 7.63710726900911 13.0072504182934  7.41959472020822 12.9154117865774  7.23591745677635 12.7317345231456  C 7.05224019334449 12.5480572597137  6.96040156162856 12.3305447109128  6.96040156162856 12.0791968767429  C 6.96040156162856 10.6677821156349  7.45826361777282 9.4642126789366  8.45398773006135 8.46848856664808  C 9.44971184234988 7.47276445435954  10.6532812790482 6.97490239821528  12.0646960401562 6.97490239821528  C 13.4761108012642 6.97490239821528  14.6796802379624 7.47276445435954  15.675404350251 8.46848856664808  Z M 19.0250976017847 2.79866146123815  C 20.7941996653653 4.1230712028258  22.0799405093884 5.81966908347276  22.8823201338539 7.88845510317903  C 22.9789923777654 8.1301357129578  22.9741587655698 8.36698271054099  22.8678192972672 8.59899609592861  C 22.7614798289645 8.83100948131623  22.5874697899238 8.99535229596579  22.345789180145 9.0920245398773  C 22.2587841606247 9.1306934374419  22.1476110801264 9.1500278862242  22.0122699386503 9.1500278862242  C 21.8285926752184 9.1500278862242  21.6569994422755 9.09685815207287  21.4974902398215 8.99051868377022  C 21.3379810373675 8.88417921546756  21.2243911507715 8.7391708496003  21.1567205800335 8.55549358616843  C 20.4993493214352 6.83472764454359  19.4166201896263 5.40881204684886  17.9085331846068 4.27774679308422  C 17.7055214723926 4.1230712028258  17.5846811675033 3.92005949061164  17.5460122699387 3.66871165644172  C 17.507343372374 3.41736382227179  17.565346718721 3.19018404907975  17.7200223089794 2.98717233686559  C 17.8843651236289 2.78416062465142  18.0922104480387 2.66332031976204  18.3435582822086 2.62465142219743  C 18.5949061163785 2.58598252463283  18.8220858895706 2.64398587097974  19.0250976017847 2.79866146123815  Z M 20.9827105409927 0.203011712214165  C 23.2545082729132 1.89477598066555  24.9027700316044 4.0650678564789  25.9274958170664 6.71388733965421  C 26.0145008365867 6.95556794943298  26.0072504182934 7.19241494701617  25.9057445621863 7.42442833240379  C 25.8042387060792 7.65644171779141  25.6326454731363 7.82078453244097  25.3909648633575 7.91745677635248  C 25.2846253950548 7.95612567391708  25.1734523145566 7.97546012269939  25.0574456218628 7.97546012269939  C 24.6320877486522 7.97546012269939  24.3420710169176 7.7772820226808  24.1873954266592 7.38092582264362  C 23.2980107826734 5.08012641754973  21.8624279605875 3.1805168246886  19.8806469604016 1.68209704406023  C 19.6679680237962 1.52742145380182  19.5447109128091 1.32440974158765  19.51087562744 1.07306190741774  C 19.477040342071 0.821714073247813  19.5374604945157 0.594534300055772  19.6921360847741 0.391522587841607  C 19.8468116750325 0.178843651236289  20.0498233872467 0.0555865402491147  20.3011712214166 0.0217512548800891  C 20.5525190555865 -0.0120840304889422  20.7796988287786 0.0483361219557488  20.9827105409927 0.203011712214165  Z " fill-rule="nonzero" fill="#d9001b" stroke="none" fill-opacity="0.996078431372549" transform="matrix(1 0 0 1 105 737 )" />
  </g>
</svg>