<?xml version="1.0" encoding="utf-8"?>
<svg version="1.1" xmlns:xlink="http://www.w3.org/1999/xlink" width="25px" height="15px" xmlns="http://www.w3.org/2000/svg">
  <defs>
    <mask fill="white" id="clip121">
      <path d="M 24.4559151785714 0.43359375  C 24.8186383928571 0.566406249999999  25 0.796875  25 1.125  L 25 13.875  C 25 14.203125  24.8186383928571 14.43359375  24.4559151785714 14.56640625  C 24.3350074404762 14.60546875  24.21875 14.625  24.1071428571429 14.625  C 23.8560267857143 14.625  23.6467633928571 14.55078125  23.4793526785714 14.40234375  L 17.8571428571429 9.6796875  L 17.8571428571429 11.625  C 17.8571428571429 12.5546875  17.4641927083333 13.349609375  16.6782924107143 14.009765625  C 15.8923921130952 14.669921875  14.946056547619 15  13.8392857142857 15  L 4.01785714285714 15  C 2.91108630952381 15  1.96475074404762 14.669921875  1.17885044642857 14.009765625  C 0.392950148809524 13.349609375  0 12.5546875  0 11.625  L 0 3.375  C 0 2.4453125  0.392950148809524 1.650390625  1.17885044642857 0.990234375  C 1.96475074404762 0.330078124999998  2.91108630952381 0  4.01785714285714 0  L 13.8392857142857 0  C 14.946056547619 0  15.8923921130952 0.330078124999998  16.6782924107143 0.990234375  C 17.4641927083333 1.650390625  17.8571428571429 2.4453125  17.8571428571429 3.375  L 17.8571428571429 5.30859375  L 23.4793526785714 0.597656249999999  C 23.6467633928571 0.449218749999999  23.8560267857143 0.375  24.1071428571429 0.375  C 24.21875 0.375  24.3350074404762 0.394531249999998  24.4559151785714 0.43359375  Z " fill-rule="evenodd" />
    </mask>
  </defs>
  <g transform="matrix(1 0 0 1 -28 -244 )">
    <path d="M 24.4559151785714 0.43359375  C 24.8186383928571 0.566406249999999  25 0.796875  25 1.125  L 25 13.875  C 25 14.203125  24.8186383928571 14.43359375  24.4559151785714 14.56640625  C 24.3350074404762 14.60546875  24.21875 14.625  24.1071428571429 14.625  C 23.8560267857143 14.625  23.6467633928571 14.55078125  23.4793526785714 14.40234375  L 17.8571428571429 9.6796875  L 17.8571428571429 11.625  C 17.8571428571429 12.5546875  17.4641927083333 13.349609375  16.6782924107143 14.009765625  C 15.8923921130952 14.669921875  14.946056547619 15  13.8392857142857 15  L 4.01785714285714 15  C 2.91108630952381 15  1.96475074404762 14.669921875  1.17885044642857 14.009765625  C 0.392950148809524 13.349609375  0 12.5546875  0 11.625  L 0 3.375  C 0 2.4453125  0.392950148809524 1.650390625  1.17885044642857 0.990234375  C 1.96475074404762 0.330078124999998  2.91108630952381 0  4.01785714285714 0  L 13.8392857142857 0  C 14.946056547619 0  15.8923921130952 0.330078124999998  16.6782924107143 0.990234375  C 17.4641927083333 1.650390625  17.8571428571429 2.4453125  17.8571428571429 3.375  L 17.8571428571429 5.30859375  L 23.4793526785714 0.597656249999999  C 23.6467633928571 0.449218749999999  23.8560267857143 0.375  24.1071428571429 0.375  C 24.21875 0.375  24.3350074404762 0.394531249999998  24.4559151785714 0.43359375  Z " fill-rule="nonzero" fill="#ffffff" stroke="none" transform="matrix(1 0 0 1 28 244 )" />
    <path d="M 24.4559151785714 0.43359375  C 24.8186383928571 0.566406249999999  25 0.796875  25 1.125  L 25 13.875  C 25 14.203125  24.8186383928571 14.43359375  24.4559151785714 14.56640625  C 24.3350074404762 14.60546875  24.21875 14.625  24.1071428571429 14.625  C 23.8560267857143 14.625  23.6467633928571 14.55078125  23.4793526785714 14.40234375  L 17.8571428571429 9.6796875  L 17.8571428571429 11.625  C 17.8571428571429 12.5546875  17.4641927083333 13.349609375  16.6782924107143 14.009765625  C 15.8923921130952 14.669921875  14.946056547619 15  13.8392857142857 15  L 4.01785714285714 15  C 2.91108630952381 15  1.96475074404762 14.669921875  1.17885044642857 14.009765625  C 0.392950148809524 13.349609375  0 12.5546875  0 11.625  L 0 3.375  C 0 2.4453125  0.392950148809524 1.650390625  1.17885044642857 0.990234375  C 1.96475074404762 0.330078124999998  2.91108630952381 0  4.01785714285714 0  L 13.8392857142857 0  C 14.946056547619 0  15.8923921130952 0.330078124999998  16.6782924107143 0.990234375  C 17.4641927083333 1.650390625  17.8571428571429 2.4453125  17.8571428571429 3.375  L 17.8571428571429 5.30859375  L 23.4793526785714 0.597656249999999  C 23.6467633928571 0.449218749999999  23.8560267857143 0.375  24.1071428571429 0.375  C 24.21875 0.375  24.3350074404762 0.394531249999998  24.4559151785714 0.43359375  Z " stroke-width="4" stroke="#000000" fill="none" transform="matrix(1 0 0 1 28 244 )" mask="url(#clip121)" />
  </g>
</svg>