<?xml version="1.0" encoding="utf-8"?>
<svg version="1.1" xmlns:xlink="http://www.w3.org/1999/xlink" width="21px" height="33px" xmlns="http://www.w3.org/2000/svg">
  <g transform="matrix(1 0 0 1 -19 -27 )">
    <path d="M 20.639175257732 1.98396793587174  C 20.8797250859107 2.20440881763527  21 2.45791583166332  21 2.74448897795591  C 21 3.0310621242485  20.8797250859107 3.28456913827655  20.639175257732 3.50501002004008  L 6.45876288659794 16.5  L 20.639175257732 29.4949899799599  C 20.8797250859107 29.7154308617234  21 29.9689378757515  21 30.2555110220441  C 21 30.5420841683367  20.8797250859107 30.7955911823647  20.639175257732 31.0160320641283  L 18.8350515463918 32.6693386773547  C 18.5945017182131 32.8897795591182  18.3178694158076 33  18.0051546391753 33  C 17.692439862543 33  17.4158075601375 32.8897795591182  17.1752577319588 32.6693386773547  L 0.360824742268041 17.2605210420842  C 0.120274914089347 17.0400801603206  0 16.7865731462926  0 16.5  C 0 16.2134268537074  0.120274914089347 15.9599198396794  0.360824742268041 15.7394789579158  L 17.1752577319588 0.330661322645291  C 17.4158075601375 0.110220440881762  17.692439862543 0  18.0051546391753 0  C 18.3178694158076 0  18.5945017182131 0.110220440881762  18.8350515463918 0.330661322645291  L 20.639175257732 1.98396793587174  Z " fill-rule="nonzero" fill="#575757" stroke="none" transform="matrix(1 0 0 1 19 27 )" />
  </g>
</svg>