<?xml version="1.0" encoding="utf-8"?>
<svg version="1.1" xmlns:xlink="http://www.w3.org/1999/xlink" width="17px" height="28px" xmlns="http://www.w3.org/2000/svg">
  <g transform="matrix(1 0 0 1 -29 -193 )">
    <path d="M 16.7079037800687 1.68336673346693  C 16.9026345933562 1.87040748162992  17 2.08550434201736  17 2.32865731462926  C 17 2.57181028724115  16.9026345933562 2.78690714762859  16.7079037800687 2.97394789579158  L 5.22852233676976 14  L 16.7079037800687 25.0260521042084  C 16.9026345933562 25.2130928523714  17 25.4281897127589  17 25.6713426853707  C 17 25.9144956579826  16.9026345933562 26.1295925183701  16.7079037800687 26.3166332665331  L 15.2474226804124 27.7194388777555  C 15.0526918671249 27.9064796259185  14.8287514318442 28  14.5756013745704 28  C 14.3224513172967 28  14.098510882016 27.9064796259185  13.9037800687285 27.7194388777555  L 0.292096219931271 14.6452905811623  C 0.0973654066437572 14.4582498329993  0 14.2431529726119  0 14  C 0 13.7568470273881  0.0973654066437572 13.5417501670007  0.292096219931271 13.3547094188377  L 13.9037800687285 0.280561122244489  C 14.098510882016 0.0935203740814954  14.3224513172967 0  14.5756013745704 0  C 14.8287514318442 0  15.0526918671249 0.0935203740814954  15.2474226804124 0.280561122244489  L 16.7079037800687 1.68336673346693  Z " fill-rule="nonzero" fill="#575757" stroke="none" transform="matrix(1 0 0 1 29 193 )" />
  </g>
</svg>