<?xml version="1.0" encoding="utf-8"?>
<svg version="1.1" xmlns:xlink="http://www.w3.org/1999/xlink" width="29px" height="23px" xmlns="http://www.w3.org/2000/svg">
  <g transform="matrix(1 0 0 1 -304 -659 )">
    <path d="M 22.6400669642857 13.5514322916667  C 22.7371651785714 13.6412760416667  22.7857142857143 13.7560763888889  22.7857142857143 13.8958333333333  L 22.7857142857143 18.6875  C 22.7857142857143 19.8754340277778  22.3298921130952 20.8911675347222  21.4182477678571 21.7347005208333  C 20.5066034226191 22.5782335069444  19.4088541666667 23  18.125 23  L 4.66071428571429 23  C 3.37686011904762 23  2.27911086309524 22.5782335069444  1.36746651785714 21.7347005208333  C 0.455822172619048 20.8911675347222  0 19.8754340277778  0 18.6875  L 0 6.22916666666667  C 0 5.04123263888889  0.455822172619048 4.02549913194444  1.36746651785714 3.18196614583333  C 2.27911086309524 2.33843315972222  3.37686011904762 1.91666666666667  4.66071428571429 2  L 16.0535714285714 2  C 16.2046130952381 1.91666666666667  16.3286830357143 1.96158854166667  16.42578125 2.05143229166667  C 16.5228794642857 2.14127604166667  16.5714285714286 2.25607638888889  16.5714285714286 2.39583333333333  L 16.5714285714286 3.35416666666667  C 16.5714285714286 3.49392361111111  16.5228794642857 3.60872395833333  16.42578125 3.69856770833333  C 16.3286830357143 3.78841145833333  16.2046130952381 3.83333333333333  16.0535714285714 4  L 4.66071428571429 4  C 3.94866071428571 3.83333333333333  3.33909970238095 4.06792534722222  2.83203125 4.537109375  C 2.32496279761905 5.00629340277778  2.07142857142857 5.5703125  2 6.22916666666667  L 2 18.6875  C 2.07142857142857 19.3463541666667  2.32496279761905 19.9103732638889  2.83203125 20.3795572916667  C 3.33909970238095 20.8487413194444  3.94866071428571 21.0833333333333  4.66071428571429 21  L 18.125 21  C 18.8370535714286 21.0833333333333  19.4466145833333 20.8487413194444  19.9536830357143 20.3795572916667  C 20.4607514880952 19.9103732638889  20.7142857142857 19.3463541666667  20.7142857142857 18.6875  L 20.7142857142857 13.8958333333333  C 20.7142857142857 13.7560763888889  20.7628348214286 13.6412760416667  20.8599330357143 13.5514322916667  C 20.95703125 13.4615885416667  21.0811011904762 13.4166666666667  21.2321428571429 13.4166666666667  L 22.2678571428571 13.4166666666667  C 22.4188988095238 13.4166666666667  22.54296875 13.4615885416667  22.6400669642857 13.5514322916667  Z M 28.6925223214286 0.284505208333332  C 28.8975074404762 0.474175347222219  29 0.698784722222219  29 0.958333333333332  L 29 8.625  C 29 8.88454861111111  28.8975074404762 9.10915798611111  28.6925223214286 9.298828125  C 28.487537202381 9.48849826388889  28.2447916666667 9.58333333333333  27.9642857142857 9.58333333333333  C 27.6837797619048 9.58333333333333  27.4410342261905 9.48849826388889  27.2360491071429 9.298828125  L 24.3878348214286 6.66341145833333  L 13.8364955357143 16.4264322916667  C 13.7286086309524 16.5262586805556  13.6045386904762 16.576171875  13.4642857142857 16.576171875  C 13.3240327380952 16.576171875  13.199962797619 16.5262586805556  13.0920758928571 16.4264322916667  L 11.2472098214286 14.7194010416667  C 11.1393229166667 14.6195746527778  11.0853794642857 14.5047743055556  11.0853794642857 14.375  C 11.0853794642857 14.2452256944444  11.1393229166667 14.1304253472222  11.2472098214286 14.0305989583333  L 21.7985491071429 4.267578125  L 18.9503348214286 1.63216145833333  C 18.745349702381 1.44249131944444  18.6428571428571 1.21788194444444  18.6428571428571 0.958333333333332  C 18.6428571428571 0.698784722222219  18.745349702381 0.474175347222219  18.9503348214286 0.284505208333332  C 19.1553199404762 0.0948350694444459  19.3980654761905 0  19.6785714285714 0  L 27.9642857142857 0  C 28.2447916666667 0  28.487537202381 0.0948350694444459  28.6925223214286 0.284505208333332  Z " fill-rule="nonzero" fill="#575757" stroke="none" transform="matrix(1 0 0 1 304 659 )" />
  </g>
</svg>