<?xml version="1.0" encoding="utf-8"?>
<svg version="1.1" xmlns:xlink="http://www.w3.org/1999/xlink" width="15px" height="22px" xmlns="http://www.w3.org/2000/svg">
  <g transform="matrix(1 0 0 1 -329 -52 )">
    <path d="M 14.7526041666667 8.71274038461539  C 14.9175347222222 8.88020833333333  15 9.07852564102564  15 9.30769230769231  L 15 11  C 15 12.9479166666667  14.3598090277778 14.6424278846154  13.0794270833333 16.0835336538462  C 11.7990451388889 17.5246394230769  10.2170138888889 18.3509615384615  8.33333333333333 18.5625  L 8.33333333333333 20.3076923076923  L 11.6666666666667 20.3076923076923  C 11.8923611111111 20.3076923076923  12.0876736111111 20.3914262820513  12.2526041666667 20.5588942307692  C 12.4175347222222 20.7263621794872  12.5 20.9246794871795  12.5 21.1538461538462  C 12.5 21.3830128205128  12.4175347222222 21.5813301282051  12.2526041666667 21.7487980769231  C 12.0876736111111 21.916266025641  11.8923611111111 22  11.6666666666667 22  L 3.33333333333333 22  C 3.10763888888889 22  2.91232638888889 21.916266025641  2.74739583333333 21.7487980769231  C 2.58246527777778 21.5813301282051  2.5 21.3830128205128  2.5 21.1538461538462  C 2.5 20.9246794871795  2.58246527777778 20.7263621794872  2.74739583333333 20.5588942307692  C 2.91232638888889 20.3914262820513  3.10763888888889 20.3076923076923  3.33333333333333 20.3076923076923  L 6.66666666666667 20.3076923076923  L 6.66666666666667 18.5625  C 4.78298611111111 18.3509615384615  3.20095486111111 17.5246394230769  1.92057291666667 16.0835336538462  C 0.640190972222222 14.6424278846154  0 12.9479166666667  0 11  L 0 9.30769230769231  C 0 9.07852564102564  0.0824652777777778 8.88020833333333  0.247395833333333 8.71274038461539  C 0.412326388888889 8.54527243589744  0.607638888888889 8.46153846153846  0.833333333333333 8.46153846153846  C 1.05902777777778 8.46153846153846  1.25434027777778 8.54527243589744  1.41927083333333 8.71274038461539  C 1.58420138888889 8.88020833333333  1.66666666666667 9.07852564102564  1.66666666666667 9.30769230769231  L 1.66666666666667 11  C 1.66666666666667 12.630608974359  2.23741319444444 14.0254407051282  3.37890625 15.1844951923077  C 4.52039930555556 16.3435496794872  5.89409722222222 16.9230769230769  7.5 16.9230769230769  C 9.10590277777778 16.9230769230769  10.4796006944444 16.3435496794872  11.62109375 15.1844951923077  C 12.7625868055556 14.0254407051282  13.3333333333333 12.630608974359  13.3333333333333 11  L 13.3333333333333 9.30769230769231  C 13.3333333333333 9.07852564102564  13.4157986111111 8.88020833333333  13.5807291666667 8.71274038461539  C 13.7456597222222 8.54527243589744  13.9409722222222 8.46153846153846  14.1666666666667 8.46153846153846  C 14.3923611111111 8.46153846153846  14.5876736111111 8.54527243589744  14.7526041666667 8.71274038461539  Z M 10.4427083333333 1.24278846153846  C 11.2586805555556 2.0713141025641  11.6666666666667 3.06730769230769  11.6666666666667 4.23076923076923  L 11.6666666666667 11  C 11.6666666666667 12.1634615384615  11.2586805555556 13.1594551282051  10.4427083333333 13.9879807692308  C 9.62673611111111 14.8165064102564  8.64583333333333 15.2307692307692  7.5 15.2307692307692  C 6.35416666666667 15.2307692307692  5.37326388888889 14.8165064102564  4.55729166666667 13.9879807692308  C 3.74131944444445 13.1594551282051  3.33333333333333 12.1634615384615  3.33333333333333 11  L 3.33333333333333 4.23076923076923  C 3.33333333333333 3.06730769230769  3.74131944444445 2.0713141025641  4.55729166666667 1.24278846153846  C 5.37326388888889 0.414262820512823  6.35416666666667 0  7.5 0  C 8.64583333333333 0  9.62673611111111 0.414262820512823  10.4427083333333 1.24278846153846  Z " fill-rule="nonzero" fill="#575757" stroke="none" transform="matrix(1 0 0 1 329 52 )" />
  </g>
</svg>