<?xml version="1.0" encoding="utf-8"?>
<svg version="1.1" xmlns:xlink="http://www.w3.org/1999/xlink" width="18px" height="20px" xmlns="http://www.w3.org/2000/svg">
  <g transform="matrix(1 0 0 1 -28 -518 )">
    <path d="M 11.9953125 15.5208333333333  C 14.1984375 13.9236111111111  15.3 12.3611111111111  15.3 10.8333333333333  L 15.3 2.5  L 9 2.5  L 9 17.3046875  C 10.115625 16.7578125  11.1140625 16.1631944444444  11.9953125 15.5208333333333  Z M 17.7328125 0.247395833333333  C 17.9109375 0.412326388888886  18 0.607638888888886  18 0.833333333333333  L 18 10.8333333333333  C 18 11.5798611111111  17.84296875 12.3198784722222  17.52890625 13.0533854166667  C 17.21484375 13.7868923611111  16.82578125 14.4379340277778  16.36171875 15.0065104166667  C 15.89765625 15.5750868055556  15.34453125 16.1284722222222  14.70234375 16.6666666666667  C 14.06015625 17.2048611111111  13.4671875 17.6519097222222  12.9234375 18.0078125  C 12.3796875 18.3637152777778  11.8125 18.7000868055556  11.221875 19.0169270833333  C 10.63125 19.3337673611111  10.21171875 19.5486111111111  9.96328125 19.6614583333333  C 9.71484375 19.7743055555556  9.515625 19.8611111111111  9.365625 19.921875  C 9.253125 19.9739583333333  9.13125 20  9 20  C 8.86875 20  8.746875 19.9739583333333  8.634375 19.921875  C 8.484375 19.8611111111111  8.28515625 19.7743055555556  8.03671875 19.6614583333333  C 7.78828125 19.5486111111111  7.36875 19.3337673611111  6.778125 19.0169270833333  C 6.1875 18.7000868055556  5.6203125 18.3637152777778  5.0765625 18.0078125  C 4.5328125 17.6519097222222  3.93984375 17.2048611111111  3.29765625 16.6666666666667  C 2.65546875 16.1284722222222  2.10234375 15.5750868055556  1.63828125 15.0065104166667  C 1.17421875 14.4379340277778  0.78515625 13.7868923611111  0.47109375 13.0533854166667  C 0.15703125 12.3198784722222  0 11.5798611111111  0 10.8333333333333  L 0 0.833333333333333  C 0 0.607638888888886  0.0890625 0.412326388888886  0.2671875 0.247395833333333  C 0.4453125 0.0824652777777768  0.65625 0  0.9 0  L 17.1 0  C 17.34375 0  17.5546875 0.0824652777777768  17.7328125 0.247395833333333  Z " fill-rule="nonzero" fill="#000000" stroke="none" transform="matrix(1 0 0 1 28 518 )" />
  </g>
</svg>