<?xml version="1.0" encoding="utf-8"?>
<svg version="1.1" xmlns:xlink="http://www.w3.org/1999/xlink" width="20px" height="17px" xmlns="http://www.w3.org/2000/svg">
  <g transform="matrix(1 0 0 1 -28 -557 )">
    <path d="M 9.5263671875 7.2548828125  C 8.7939453125 8.0849609375  7.91015625 8.5  6.875 8.5  C 5.83984375 8.5  4.9560546875 8.0849609375  4.2236328125 7.2548828125  C 3.4912109375 6.4248046875  3.125 5.42317708333333  3.125 4.25  C 3.125 3.07682291666667  3.4912109375 2.0751953125  4.2236328125 1.2451171875  C 4.9560546875 0.4150390625  5.83984375 0  6.875 0  C 7.91015625 0  8.7939453125 0.4150390625  9.5263671875 1.2451171875  C 10.2587890625 2.0751953125  10.625 3.07682291666667  10.625 4.25  C 10.625 5.42317708333333  10.2587890625 6.4248046875  9.5263671875 7.2548828125  Z M 16.25 6.02083333333333  L 16.25 9.91666666666667  L 19.6875 9.91666666666667  C 19.7721354166667 9.91666666666667  19.8453776041667 9.95171440972222  19.9072265625 10.0218098958333  C 19.9690755208333 10.0919053819444  20 10.1749131944444  20 10.2708333333333  L 20 12.3958333333333  C 20 12.4917534722222  19.9690755208333 12.5747612847222  19.9072265625 12.6448567708333  C 19.8453776041667 12.7149522569444  19.7721354166667 12.75  19.6875 12.75  L 16.25 12.75  L 16.25 16.6458333333333  C 16.25 16.7417534722222  16.2190755208333 16.8247612847222  16.1572265625 16.8948567708333  C 16.0953776041667 16.9649522569444  16.0221354166667 17  15.9375 17  L 14.0625 17  C 13.9778645833333 17  13.9046223958333 16.9649522569444  13.8427734375 16.8948567708333  C 13.7809244791667 16.8247612847222  13.75 16.7417534722222  13.75 16.6458333333333  L 13.75 12.75  L 10.3125 12.75  C 10.2278645833333 12.75  10.1546223958333 12.7149522569444  10.0927734375 12.6448567708333  C 10.0309244791667 12.5747612847222  10 12.4917534722222  10 12.3958333333333  L 10 10.2708333333333  C 10 10.1749131944444  10.0309244791667 10.0919053819444  10.0927734375 10.0218098958333  C 10.1546223958333 9.95171440972222  10.2278645833333 9.91666666666667  10.3125 9.91666666666667  L 13.75 9.91666666666667  L 13.75 6.02083333333333  C 13.75 5.92491319444444  13.7809244791667 5.84190538194444  13.8427734375 5.77180989583333  C 13.9046223958333 5.70171440972222  13.9778645833333 5.66666666666667  14.0625 5.66666666666667  L 15.9375 5.66666666666667  C 16.0221354166667 5.66666666666667  16.0953776041667 5.70171440972222  16.1572265625 5.77180989583333  C 16.2190755208333 5.84190538194444  16.25 5.92491319444444  16.25 6.02083333333333  Z M 9.0625 10.2708333333333  L 9.0625 12.3958333333333  C 9.0625 12.7795138888889  9.18619791666667 13.1115451388889  9.43359375 13.3919270833333  C 9.68098958333333 13.6723090277778  9.97395833333333 13.8125  10.3125 13.8125  L 12.8125 13.8125  L 12.8125 16.4466145833333  C 12.3697916666667 16.8155381944444  11.8131510416667 17  11.142578125 17  L 2.607421875 17  C 1.81966145833333 17  1.18815104166667 16.7454427083333  0.712890625 16.236328125  C 0.237630208333333 15.7272135416667  0 15.0262586805556  0 14.1334635416667  C 0 13.7424045138889  0.0113932291666667 13.3605685763889  0.0341796875 12.9879557291667  C 0.0569661458333333 12.6153428819444  0.1025390625 12.2132161458333  0.1708984375 11.7815755208333  C 0.2392578125 11.3499348958333  0.325520833333333 10.9496527777778  0.4296875 10.5807291666667  C 0.533854166666667 10.2118055555556  0.673828125 9.85210503472222  0.849609375 9.50162760416667  C 1.025390625 9.15115017361111  1.22721354166667 8.85232204861111  1.455078125 8.60514322916667  C 1.68294270833333 8.35796440972222  1.96126302083333 8.16059027777778  2.2900390625 8.01302083333333  C 2.61881510416667 7.86545138888889  2.98177083333333 7.79166666666667  3.37890625 7.79166666666667  C 3.50260416666667 7.79166666666667  3.62955729166667 7.85438368055556  3.759765625 7.97981770833333  C 4.27408854166667 8.42990451388889  4.77701822916667 8.76746961805556  5.2685546875 8.99251302083333  C 5.76009114583333 9.21755642361111  6.29557291666667 9.330078125  6.875 9.330078125  C 7.45442708333333 9.330078125  7.98990885416667 9.21755642361111  8.4814453125 8.99251302083333  C 8.97298177083333 8.76746961805556  9.47591145833333 8.42990451388889  9.990234375 7.97981770833333  C 10.1204427083333 7.85438368055556  10.2473958333333 7.79166666666667  10.37109375 7.79166666666667  C 11.23046875 7.79166666666667  11.9368489583333 8.14583333333333  12.490234375 8.85416666666667  L 10.3125 8.85416666666667  C 9.97395833333333 8.85416666666667  9.68098958333333 8.99435763888889  9.43359375 9.27473958333333  C 9.18619791666667 9.55512152777778  9.0625 9.88715277777778  9.0625 10.2708333333333  Z " fill-rule="nonzero" fill="#000000" stroke="none" transform="matrix(1 0 0 1 28 557 )" />
  </g>
</svg>