<?xml version="1.0" encoding="utf-8"?>
<svg version="1.1" xmlns:xlink="http://www.w3.org/1999/xlink" width="18px" height="18px" xmlns="http://www.w3.org/2000/svg">
  <g transform="matrix(1 0 0 1 -28 -641 )">
    <path d="M 17.0816326530612 3.59765625  C 17.3553421368547 3.71484375  17.5678271308523 3.8828125  17.719087635054 4.1015625  C 18.0072028811525 4.546875  18.0720288115246 5.05078125  17.9135654261705 5.61328125  L 14.9423769507803 16.23046875  C 14.8055222088836 16.73046875  14.5300120048019 17.150390625  14.1158463385354 17.490234375  C 13.7016806722689 17.830078125  13.2605042016807 18  12.7923169267707 18  L 2.81992797118848 18  C 2.26530612244898 18  1.73049219687875 17.791015625  1.21548619447779 17.373046875  C 0.700480192076831 16.955078125  0.342136854741897 16.44140625  0.140456182472989 15.83203125  C -0.0324129651860744 15.30859375  -0.0396158463385354 14.8125  0.118847539015606 14.34375  C 0.118847539015606 14.3125  0.129651860744298 14.20703125  0.151260504201681 14.02734375  C 0.172869147659064 13.84765625  0.187274909963986 13.703125  0.194477791116447 13.59375  C 0.201680672268908 13.53125  0.190876350540216 13.447265625  0.162064825930372 13.341796875  C 0.133253301320528 13.236328125  0.122448979591837 13.16015625  0.129651860744298 13.11328125  C 0.14405762304922 13.02734375  0.172869147659064 12.9453125  0.21608643457383 12.8671875  C 0.259303721488595 12.7890625  0.318727490996399 12.697265625  0.394357743097239 12.591796875  C 0.469987995198079 12.486328125  0.529411764705882 12.39453125  0.572629051620648 12.31640625  C 0.738295318127251 12.01953125  0.900360144057623 11.662109375  1.05882352941176 11.244140625  C 1.21728691476591 10.826171875  1.32533013205282 10.46875  1.38295318127251 10.171875  C 1.40456182472989 10.09375  1.40636254501801 9.9765625  1.38835534213685 9.8203125  C 1.3703481392557 9.6640625  1.36854741896759 9.5546875  1.38295318127251 9.4921875  C 1.40456182472989 9.40625  1.46578631452581 9.296875  1.56662665066026 9.1640625  C 1.66746698679472 9.03125  1.72869147659064 8.94140625  1.75030012004802 8.89453125  C 1.9015606242497 8.61328125  2.05282112845138 8.25390625  2.20408163265306 7.81640625  C 2.35534213685474 7.37890625  2.4453781512605 7.02734375  2.47418967587035 6.76171875  C 2.48139255702281 6.69140625  2.47238895558223 6.56640625  2.44717887154862 6.38671875  C 2.42196878751501 6.20703125  2.42376950780312 6.09765625  2.45258103241297 6.05859375  C 2.48139255702281 5.95703125  2.56062424969988 5.837890625  2.69027611044418 5.701171875  C 2.81992797118848 5.564453125  2.89915966386555 5.4765625  2.92797118847539 5.4375  C 3.06482593037215 5.234375  3.21788715486195 4.904296875  3.38715486194478 4.447265625  C 3.55642256902761 3.990234375  3.65546218487395 3.61328125  3.68427370948379 3.31640625  C 3.69147659063625 3.25390625  3.68067226890756 3.154296875  3.65186074429772 3.017578125  C 3.62304921968788 2.880859375  3.61584633853541 2.77734375  3.63025210084034 2.70703125  C 3.64465786314526 2.64453125  3.67707082833133 2.57421875  3.72749099639856 2.49609375  C 3.77791116446579 2.41796875  3.84273709483794 2.328125  3.92196878751501 2.2265625  C 4.00120048019208 2.125  4.06242496998799 2.04296875  4.10564225690276 1.98046875  C 4.16326530612245 1.88671875  4.22268907563025 1.767578125  4.28391356542617 1.623046875  C 4.34513805522209 1.478515625  4.39915966386555 1.341796875  4.44597839135654 1.212890625  C 4.49279711884754 1.083984375  4.55042016806723 0.943359374999999  4.61884753901561 0.791015625  C 4.68727490996399 0.638671875000001  4.75750300120048 0.513671874999999  4.82953181272509 0.416015624999999  C 4.9015606242497 0.318359374999998  4.99699879951981 0.226562499999998  5.11584633853541 0.140625  C 5.23469387755102 0.0546874999999976  5.36434573829532 0.00976562499999978  5.50480192076831 0.00585937500000067  C 5.6452581032413 0.00195312499999756  5.81632653061225 0.0234375000000007  6.01800720288115 0.0703125  L 6.00720288115246 0.10546875  C 6.28091236494598 0.03515625  6.46458583433373 0  6.55822328931573 0  L 14.7803121248499 0  C 15.3133253301321 0  15.7238895558223 0.218749999999998  16.0120048019208 0.656250000000001  C 16.3001200480192 1.09375  16.3649459783914 1.6015625  16.2064825930372 2.1796875  L 13.2460984393757 12.796875  C 12.9867947178872 13.7265625  12.7292917166867 14.326171875  12.4735894357743 14.595703125  C 12.2178871548619 14.865234375  11.7551020408163 15  11.0852340936375 15  L 1.69627851140456 15  C 1.50180072028812 15  1.36494597839136 15.05859375  1.28571428571429 15.17578125  C 1.20648259303721 15.30078125  1.20288115246098 15.46875  1.27490996398559 15.6796875  C 1.44777911164466 16.2265625  1.96638655462185 16.5  2.83073229291717 16.5  L 12.8031212484994 16.5  C 13.0120048019208 16.5  13.2136854741897 16.439453125  13.4081632653061 16.318359375  C 13.6026410564226 16.197265625  13.7286914765906 16.03515625  13.7863145258103 15.83203125  L 17.0276110444178 4.265625  C 17.078031212485 4.09375  17.0960384153661 3.87109375  17.0816326530612 3.59765625  Z M 6.45018007202881 3.375  L 6.22328931572629 4.125  C 6.19447779111645 4.2265625  6.20168067226891 4.314453125  6.24489795918367 4.388671875  C 6.28811524609844 4.462890625  6.36014405762305 4.5  6.4609843937575 4.5  L 13.0300120048019 4.5  C 13.1236494597839 4.5  13.2154861944778 4.462890625  13.3055222088836 4.388671875  C 13.3955582232893 4.314453125  13.4549819927971 4.2265625  13.483793517407 4.125  L 13.7106842737095 3.375  C 13.7394957983193 3.2734375  13.7322929171669 3.185546875  13.6890756302521 3.111328125  C 13.6458583433373 3.037109375  13.5738295318127 3  13.4729891956783 3  L 6.90396158463385 3  C 6.81032412965186 3  6.71848739495798 3.037109375  6.62845138055222 3.111328125  C 6.53841536614646 3.185546875  6.47899159663866 3.2734375  6.45018007202881 3.375  Z M 5.55342136854742 6.375  L 5.3265306122449 7.125  C 5.29771908763505 7.2265625  5.30492196878752 7.314453125  5.34813925570228 7.388671875  C 5.39135654261705 7.462890625  5.46338535414166 7.5  5.56422569027611 7.5  L 12.1332533013205 7.5  C 12.2268907563025 7.5  12.3187274909964 7.462890625  12.4087635054022 7.388671875  C 12.4987995198079 7.314453125  12.5582232893157 7.2265625  12.5870348139256 7.125  L 12.8139255702281 6.375  C 12.8427370948379 6.2734375  12.8355342136855 6.185546875  12.7923169267707 6.111328125  C 12.7490996398559 6.037109375  12.6770708283313 6  12.5762304921969 6  L 6.00720288115246 6  C 5.91356542617047 6  5.82172869147659 6.037109375  5.73169267707083 6.111328125  C 5.64165666266507 6.185546875  5.58223289315726 6.2734375  5.55342136854742 6.375  Z " fill-rule="nonzero" fill="#000000" stroke="none" transform="matrix(1 0 0 1 28 641 )" />
  </g>
</svg>