<?xml version="1.0" encoding="utf-8"?>
<svg version="1.1" xmlns:xlink="http://www.w3.org/1999/xlink" width="18px" height="18px" xmlns="http://www.w3.org/2000/svg">
  <g transform="matrix(1 0 0 1 -28 -717 )">
    <path d="M 13.41796875 10.951171875  C 13.45703125 10.986328125  13.4765625 11.03125  13.4765625 11.0859375  L 13.4765625 12.36328125  C 13.4765625 12.75390625  13.333984375 13.1015625  13.048828125 13.40625  C 12.763671875 13.7109375  12.396484375 13.947265625  11.947265625 14.115234375  C 11.498046875 14.283203125  11.037109375 14.41015625  10.564453125 14.49609375  C 10.091796875 14.58203125  9.6328125 14.625  9.1875 14.625  C 7.5859375 14.625  6.248046875 14.08203125  5.173828125 12.99609375  C 4.099609375 11.91015625  3.5625 10.55859375  3.5625 8.94140625  C 3.5625 7.35546875  4.09375 6.03125  5.15625 4.96875  C 6.21875 3.90625  7.54296875 3.375  9.12890625 3.375  C 9.39453125 3.375  9.689453125 3.392578125  10.013671875 3.427734375  C 10.337890625 3.462890625  10.701171875 3.533203125  11.103515625 3.638671875  C 11.505859375 3.744140625  11.8671875 3.876953125  12.1875 4.037109375  C 12.5078125 4.197265625  12.77734375 4.41796875  12.99609375 4.69921875  C 13.21484375 4.98046875  13.32421875 5.296875  13.32421875 5.6484375  L 13.32421875 6.92578125  C 13.32421875 7.05078125  13.26171875 7.11328125  13.13671875 7.11328125  L 11.75390625 7.11328125  C 11.62890625 7.11328125  11.56640625 7.05078125  11.56640625 6.92578125  L 11.56640625 6.10546875  C 11.56640625 5.76953125  11.310546875 5.505859375  10.798828125 5.314453125  C 10.287109375 5.123046875  9.75 5.02734375  9.1875 5.02734375  C 8.09375 5.02734375  7.201171875 5.384765625  6.509765625 6.099609375  C 5.818359375 6.814453125  5.47265625 7.7421875  5.47265625 8.8828125  C 5.47265625 10.0625  5.830078125 11.037109375  6.544921875 11.806640625  C 7.259765625 12.576171875  8.171875 12.9609375  9.28125 12.9609375  C 9.8125 12.9609375  10.3515625 12.8671875  10.8984375 12.6796875  C 11.4453125 12.4921875  11.71875 12.234375  11.71875 11.90625  L 11.71875 11.0859375  C 11.71875 11.03125  11.736328125 10.986328125  11.771484375 10.951171875  C 11.806640625 10.916015625  11.84765625 10.8984375  11.89453125 10.8984375  L 13.2890625 10.8984375  C 13.3359375 10.8984375  13.37890625 10.916015625  13.41796875 10.951171875  Z M 11.912109375 2.09765625  C 10.986328125 1.69921875  10.015625 1.5  9 1.5  C 7.984375 1.5  7.013671875 1.69921875  6.087890625 2.09765625  C 5.162109375 2.49609375  4.365234375 3.029296875  3.697265625 3.697265625  C 3.029296875 4.365234375  2.49609375 5.162109375  2.09765625 6.087890625  C 1.69921875 7.013671875  1.5 7.984375  1.5 9  C 1.5 10.015625  1.69921875 10.986328125  2.09765625 11.912109375  C 2.49609375 12.837890625  3.029296875 13.634765625  3.697265625 14.302734375  C 4.365234375 14.970703125  5.162109375 15.50390625  6.087890625 15.90234375  C 7.013671875 16.30078125  7.984375 16.5  9 16.5  C 10.015625 16.5  10.986328125 16.30078125  11.912109375 15.90234375  C 12.837890625 15.50390625  13.634765625 14.970703125  14.302734375 14.302734375  C 14.970703125 13.634765625  15.50390625 12.837890625  15.90234375 11.912109375  C 16.30078125 10.986328125  16.5 10.015625  16.5 9  C 16.5 7.984375  16.30078125 7.013671875  15.90234375 6.087890625  C 15.50390625 5.162109375  14.970703125 4.365234375  14.302734375 3.697265625  C 13.634765625 3.029296875  12.837890625 2.49609375  11.912109375 2.09765625  Z M 16.79296875 4.482421875  C 17.59765625 5.861328125  18 7.3671875  18 9  C 18 10.6328125  17.59765625 12.138671875  16.79296875 13.517578125  C 15.98828125 14.896484375  14.896484375 15.98828125  13.517578125 16.79296875  C 12.138671875 17.59765625  10.6328125 18  9 18  C 7.3671875 18  5.861328125 17.59765625  4.482421875 16.79296875  C 3.103515625 15.98828125  2.01171875 14.896484375  1.20703125 13.517578125  C 0.40234375 12.138671875  0 10.6328125  0 9  C 0 7.3671875  0.40234375 5.861328125  1.20703125 4.482421875  C 2.01171875 3.103515625  3.103515625 2.01171875  4.482421875 1.20703125  C 5.861328125 0.402343749999998  7.3671875 0  9 0  C 10.6328125 0  12.138671875 0.402343749999998  13.517578125 1.20703125  C 14.896484375 2.01171875  15.98828125 3.103515625  16.79296875 4.482421875  Z " fill-rule="nonzero" fill="#000000" stroke="none" transform="matrix(1 0 0 1 28 717 )" />
  </g>
</svg>