<?xml version="1.0" encoding="utf-8"?>
<svg version="1.1" xmlns:xlink="http://www.w3.org/1999/xlink" width="18px" height="18px" xmlns="http://www.w3.org/2000/svg">
  <g transform="matrix(1 0 0 1 -30 -241 )">
    <path d="M 14.8258928571429 9.65625  C 16.0848214285714 8.1875  16.7142857142857 6.796875  16.7142857142857 5.484375  C 16.7142857142857 4.8515625  16.6422991071429 4.29296875  16.4983258928571 3.80859375  C 16.3543526785714 3.32421875  16.1702008928571 2.939453125  15.9458705357143 2.654296875  C 15.7215401785714 2.369140625  15.4486607142857 2.13671875  15.1272321428571 1.95703125  C 14.8058035714286 1.77734375  14.4910714285714 1.65625  14.1830357142857 1.59375  C 13.875 1.53125  13.546875 1.5  13.1986607142857 1.5  C 12.8504464285714 1.5  12.4754464285714 1.599609375  12.0736607142857 1.798828125  C 11.671875 1.998046875  11.3018973214286 2.248046875  10.9637276785714 2.548828125  C 10.6255580357143 2.849609375  10.3359375 3.130859375  10.0948660714286 3.392578125  C 9.85379464285714 3.654296875  9.65290178571429 3.89453125  9.4921875 4.11328125  C 9.37165178571429 4.28515625  9.20758928571429 4.37109375  9 4.37109375  C 8.79241071428572 4.37109375  8.62834821428571 4.28515625  8.5078125 4.11328125  C 8.34709821428571 3.89453125  8.14620535714286 3.654296875  7.90513392857143 3.392578125  C 7.6640625 3.130859375  7.37444196428572 2.849609375  7.03627232142857 2.548828125  C 6.69810267857143 2.248046875  6.328125 1.998046875  5.92633928571429 1.798828125  C 5.52455357142857 1.599609375  5.14955357142857 1.5  4.80133928571429 1.5  C 4.453125 1.5  4.125 1.53125  3.81696428571429 1.59375  C 3.50892857142857 1.65625  3.19419642857143 1.77734375  2.87276785714286 1.95703125  C 2.55133928571429 2.13671875  2.27845982142857 2.369140625  2.05412946428571 2.654296875  C 1.82979910714286 2.939453125  1.64564732142857 3.32421875  1.50167410714286 3.80859375  C 1.35770089285714 4.29296875  1.28571428571429 4.8515625  1.28571428571429 5.484375  C 1.28571428571429 6.796875  1.91183035714286 8.18359375  3.1640625 9.64453125  L 9 16.20703125  L 14.8258928571429 9.65625  Z M 16.7243303571429 1.453125  C 17.5747767857143 2.421875  18 3.765625  18 5.484375  C 18 7.2109375  17.2332589285714 8.96875  15.6997767857143 10.7578125  L 9.44196428571428 17.7890625  C 9.32142857142857 17.9296875  9.17410714285714 18  9 18  C 8.82589285714286 18  8.67857142857143 17.9296875  8.55803571428571 17.7890625  L 2.29017857142857 10.734375  C 2.22321428571429 10.671875  2.13113839285714 10.5703125  2.01395089285714 10.4296875  C 1.89676339285714 10.2890625  1.7109375 10.033203125  1.45647321428571 9.662109375  C 1.20200892857143 9.291015625  0.974330357142857 8.91015625  0.7734375 8.51953125  C 0.572544642857143 8.12890625  0.393415178571429 7.65625  0.236049107142857 7.1015625  C 0.0786830357142857 6.546875  0 6.0078125  0 5.484375  C 0 3.765625  0.425223214285714 2.421875  1.27566964285714 1.453125  C 2.12611607142857 0.484375  3.30133928571429 0  4.80133928571429 0  C 5.21651785714286 0  5.64006696428571 0.0839843749999989  6.07198660714286 0.251953125000001  C 6.50390625 0.419921874999998  6.90569196428571 0.646484374999999  7.27734375 0.931640625  C 7.64899553571429 1.216796875  7.96875 1.484375  8.23660714285714 1.734375  C 8.50446428571429 1.984375  8.75892857142857 2.25  9 2.53125  C 9.24107142857143 2.25  9.49553571428572 1.984375  9.76339285714286 1.734375  C 10.03125 1.484375  10.3510044642857 1.216796875  10.72265625 0.931640625  C 11.0943080357143 0.646484374999999  11.49609375 0.419921874999998  11.9280133928571 0.251953125000001  C 12.3599330357143 0.0839843749999989  12.7834821428571 0  13.1986607142857 0  C 14.6986607142857 0  15.8738839285714 0.484375  16.7243303571429 1.453125  Z " fill-rule="nonzero" fill="#000000" stroke="none" transform="matrix(1 0 0 1 30 241 )" />
  </g>
</svg>