<?xml version="1.0" encoding="utf-8"?>
<svg version="1.1" xmlns:xlink="http://www.w3.org/1999/xlink" width="42px" height="42px" xmlns="http://www.w3.org/2000/svg">
  <g transform="matrix(1 0 0 1 -34 -193 )">
    <path d="M 55 193  C 66.76 193  76 202.24  76 214  C 76 225.76  66.76 235  55 235  C 43.24 235  34 225.76  34 214  C 34 202.24  43.24 193  55 193  Z " fill-rule="nonzero" fill="#fde0e0" stroke="none" fill-opacity="0.462745098039216" />
    <path d="M 55 193.5  C 66.48 193.5  75.5 202.52  75.5 214  C 75.5 225.48  66.48 234.5  55 234.5  C 43.52 234.5  34.5 225.48  34.5 214  C 34.5 202.52  43.52 193.5  55 193.5  Z " stroke-width="1" stroke="#ffffff" fill="none" />
  </g>
</svg>