<?xml version="1.0" encoding="utf-8"?>
<svg version="1.1" xmlns:xlink="http://www.w3.org/1999/xlink" width="26px" height="27px" xmlns="http://www.w3.org/2000/svg">
  <defs>
    <linearGradient gradientUnits="userSpaceOnUse" x1="25.74" y1="13.5" x2="0.26" y2="13.5" id="LinearGradient1">
      <stop id="Stop2" stop-color="#ff8686" offset="0" />
      <stop id="Stop3" stop-color="#f61010" offset="1" />
    </linearGradient>
  </defs>
  <g transform="matrix(1 0 0 1 -42 -200 )">
    <path d="M 2 10  L 2 25  L 24 25  L 24 10  L 2 10  Z M 7.859375 7.09654017857143  C 7.953125 7.00613839285714  8 6.890625  8 6.75  L 8 2.41071428571429  C 8 2.27008928571428  7.953125 2.15457589285714  7.859375 2.06417410714286  C 7.765625 1.97377232142857  7.64583333333333 1.92857142857143  7.5 1.92857142857143  L 6.5 1.92857142857143  C 6.35416666666667 1.92857142857143  6.234375 1.97377232142857  6.140625 2.06417410714286  C 6.046875 2.15457589285714  6 2.27008928571428  6 2.41071428571429  L 6 6.75  C 6 6.890625  6.046875 7.00613839285714  6.140625 7.09654017857143  C 6.234375 7.18694196428571  6.35416666666667 7.23214285714286  6.5 7.23214285714286  L 7.5 7.23214285714286  C 7.64583333333333 7.23214285714286  7.765625 7.18694196428571  7.859375 7.09654017857143  Z M 19.859375 7.09654017857143  C 19.953125 7.00613839285714  20 6.890625  20 6.75  L 20 2.41071428571429  C 20 2.27008928571428  19.953125 2.15457589285714  19.859375 2.06417410714286  C 19.765625 1.97377232142857  19.6458333333333 1.92857142857143  19.5 1.92857142857143  L 18.5 1.92857142857143  C 18.3541666666667 1.92857142857143  18.234375 1.97377232142857  18.140625 2.06417410714286  C 18.046875 2.15457589285714  18 2.27008928571428  18 2.41071428571429  L 18 6.75  C 18 6.890625  18.046875 7.00613839285714  18.140625 7.09654017857143  C 18.234375 7.18694196428571  18.3541666666667 7.23214285714286  18.5 7.23214285714286  L 19.5 7.23214285714286  C 19.6458333333333 7.23214285714286  19.765625 7.18694196428571  19.859375 7.09654017857143  Z M 25.40625 4.4296875  C 25.8020833333333 4.81138392857143  26 5.26339285714286  26 5.78571428571429  L 26 25.0714285714286  C 26 25.59375  25.8020833333333 26.0457589285714  25.40625 26.4274553571429  C 25.0104166666667 26.8091517857143  24.5416666666667 27  24 27  L 2 27  C 1.45833333333333 27  0.989583333333333 26.8091517857143  0.59375 26.4274553571429  C 0.197916666666667 26.0457589285714  0 25.59375  0 25.0714285714286  L 0 5.78571428571429  C 0 5.26339285714286  0.197916666666667 4.81138392857143  0.59375 4.4296875  C 0.989583333333333 4.04799107142857  1.45833333333333 3.85714285714286  2 3.85714285714286  L 4 3.85714285714286  L 4 2.41071428571429  C 4 1.74776785714286  4.24479166666667 1.18024553571428  4.734375 0.708147321428572  C 5.22395833333333 0.236049107142857  5.8125 0  6.5 0  L 7.5 0  C 8.1875 0  8.77604166666667 0.236049107142857  9.265625 0.708147321428572  C 9.75520833333333 1.18024553571428  10 1.74776785714286  10 2.41071428571429  L 10 3.85714285714286  L 16 3.85714285714286  L 16 2.41071428571429  C 16 1.74776785714286  16.2447916666667 1.18024553571428  16.734375 0.708147321428572  C 17.2239583333333 0.236049107142857  17.8125 0  18.5 0  L 19.5 0  C 20.1875 0  20.7760416666667 0.236049107142857  21.265625 0.708147321428572  C 21.7552083333333 1.18024553571428  22 1.74776785714286  22 2.41071428571429  L 22 3.85714285714286  L 24 3.85714285714286  C 24.5416666666667 3.85714285714286  25.0104166666667 4.04799107142857  25.40625 4.4296875  Z " fill-rule="nonzero" fill="url(#LinearGradient1)" stroke="none" transform="matrix(1 0 0 1 42 200 )" />
  </g>
</svg>