<?xml version="1.0" encoding="utf-8"?>
<svg version="1.1" xmlns:xlink="http://www.w3.org/1999/xlink" width="23px" height="27px" xmlns="http://www.w3.org/2000/svg">
  <defs>
    <linearGradient gradientUnits="userSpaceOnUse" x1="22.77" y1="13.5" x2="0.23" y2="13.5" id="LinearGradient22">
      <stop id="Stop23" stop-color="#ff8686" offset="0" />
      <stop id="Stop24" stop-color="#f61010" offset="1" />
    </linearGradient>
  </defs>
  <g transform="matrix(1 0 0 1 -176 -201 )">
    <path d="M 11.5299479166667 15.4285714285714  C 13.7660590277778 15.4285714285714  14.8841145833333 16.2723214285714  14.8841145833333 17.9598214285714  C 14.8841145833333 18.8236607142857  14.7992621527778 19.8130580357143  14.6295572916667 20.9280133928571  C 14.3200954861111 23.0876116071429  14.0455729166667 24.6595982142857  13.8059895833333 25.6439732142857  C 13.5863715277778 26.5479910714286  12.8276909722222 27  11.5299479166667 27  C 10.2322048611111 27  9.47352430555556 26.5479910714286  9.25390625 25.6439732142857  C 9.01432291666667 24.6595982142857  8.73980034722222 23.0876116071429  8.43033854166667 20.9280133928571  C 8.26063368055556 19.8231026785714  8.17578125 18.8337053571429  8.17578125 17.9598214285714  C 8.17578125 16.2723214285714  9.29383680555556 15.4285714285714  11.5299479166667 15.4285714285714  Z M 22.0192057291667 6.92327008928571  C 22.6730685763889 8.39481026785714  23 9.94419642857143  23 11.5714285714286  C 23 13.9821428571429  22.3311631944444 16.1618303571429  20.9934895833333 18.1104910714286  C 19.6558159722222 20.0591517857143  17.9088541666667 21.4654017857143  15.7526041666667 22.3292410714286  C 15.6727430555556 22.359375  15.5978732638889 22.3443080357143  15.5279947916667 22.2840401785714  C 15.4581163194444 22.2237723214286  15.4281684027778 22.1484375  15.4381510416667 22.0580357142857  C 15.5080295138889 21.5758928571429  15.5579427083333 21.2444196428571  15.587890625 21.0636160714286  C 15.6278211805556 20.7421875  15.6577690972222 20.5061383928571  15.677734375 20.35546875  C 15.6877170138889 20.2650669642857  15.7326388888889 20.2047991071429  15.8125 20.1746651785714  C 17.3997395833333 19.3610491071429  18.6750217013889 18.1858258928571  19.6383463541667 16.6489955357143  C 20.6016710069444 15.1121651785714  21.0833333333333 13.4196428571429  21.0833333333333 11.5714285714286  C 21.0833333333333 9.76339285714286  20.6291232638889 8.103515625  19.720703125 6.591796875  C 18.8122829861111 5.080078125  17.5794270833333 3.90234375  16.0221354166667 3.05859375  C 14.46484375 2.21484375  12.7827690972222 1.84319196428571  10.9759114583333 1.94363839285714  C 9.73806423611111 2.01395089285714  8.55512152777778 2.3203125  7.42708333333333 2.86272321428571  C 6.29904513888889 3.40513392857143  5.33322482638889 4.11077008928571  4.52962239583333 4.97963169642857  C 3.72601996527778 5.84849330357143  3.08713107638889 6.86300223214286  2.61295572916667 8.02315848214286  C 2.13878038194444 9.18331473214286  1.90668402777778 10.3911830357143  1.91666666666667 11.6467633928571  C 1.92664930555556 13.4949776785714  2.42078993055556 15.1849888392857  3.39908854166667 16.716796875  C 4.37738715277778 18.2486049107143  5.66015625 19.4112723214286  7.24739583333333 20.2047991071429  C 7.31727430555556 20.2349330357143  7.36219618055556 20.2952008928571  7.38216145833333 20.3856026785714  C 7.412109375 20.5965401785714  7.44205729166667 20.8225446428571  7.47200520833333 21.0636160714286  C 7.48198784722222 21.1540178571429  7.50694444444444 21.3172433035714  7.546875 21.5532924107143  C 7.58680555555556 21.7893415178571  7.61675347222222 21.9676339285714  7.63671875 22.0881696428571  C 7.64670138888889 22.1785714285714  7.6142578125 22.25390625  7.53938802083333 22.3141741071429  C 7.46451822916667 22.3744419642857  7.38715277777778 22.3844866071429  7.30729166666667 22.3443080357143  C 5.82986111111111 21.76171875  4.52712673611111 20.9104352678571  3.39908854166667 19.7904575892857  C 2.27105034722222 18.6704799107143  1.40505642361111 17.3445870535714  0.801106770833333 15.8127790178571  C 0.197157118055556 14.2809709821429  -0.0648871527777778 12.6763392857143  0.0149739583333333 10.9988839285714  C 0.0848524305555556 9.5625  0.414279513888889 8.18889508928571  1.00325520833333 6.87806919642857  C 1.59223090277778 5.56724330357143  2.36338975694444 4.42717633928571  3.31673177083333 3.45786830357143  C 4.27007378472222 2.48856026785714  5.39312065972222 1.69754464285714  6.68587239583333 1.08482142857143  C 7.97862413194444 0.472098214285712  9.33875868055556 0.120535714285714  10.7662760416667 0.0301339285714277  C 12.4034288194444 -0.070312500000002  13.9781901041667 0.16322544642857  15.4905598958333 0.730747767857142  C 17.0029296875 1.29827008928571  18.3056640625 2.10435267857143  19.3987630208333 3.14899553571429  C 20.4918619791667 4.19363839285714  21.3653428819444 5.45172991071428  22.0192057291667 6.92327008928571  Z M 13.9033203125 8.701171875  C 14.5571831597222 9.35909598214285  14.8841145833333 10.1551339285714  14.8841145833333 11.0892857142857  C 14.8841145833333 12.0234375  14.5571831597222 12.8194754464286  13.9033203125 13.4773995535714  C 13.2494574652778 14.1353236607143  12.4583333333333 14.4642857142857  11.5299479166667 14.4642857142857  C 10.6015625 14.4642857142857  9.81043836805556 14.1353236607143  9.15657552083333 13.4773995535714  C 8.50271267361111 12.8194754464286  8.17578125 12.0234375  8.17578125 11.0892857142857  C 8.17578125 10.1551339285714  8.50271267361111 9.35909598214285  9.15657552083333 8.701171875  C 9.81043836805556 8.04324776785714  10.6015625 7.71428571428571  11.5299479166667 7.71428571428571  C 12.4583333333333 7.71428571428571  13.2494574652778 8.04324776785714  13.9033203125 8.701171875  Z M 18.1110026041667 7.60128348214286  C 18.8347439236111 8.81166294642857  19.1966145833333 10.1350446428571  19.1966145833333 11.5714285714286  C 19.1966145833333 12.796875  18.9295789930556 13.9444754464286  18.3955078125 15.0142299107143  C 17.8614366319444 16.083984375  17.1302083333333 16.9754464285714  16.2018229166667 17.6886160714286  C 16.1219618055556 17.7488839285714  16.0421006944444 17.7589285714286  15.9622395833333 17.71875  C 15.8823784722222 17.6785714285714  15.8324652777778 17.6082589285714  15.8125 17.5078125  C 15.7526041666667 16.9854910714286  15.6078559027778 16.5234375  15.3782552083333 16.1216517857143  C 15.3083767361111 16.0212053571429  15.3233506944444 15.9207589285714  15.4231770833333 15.8203125  C 16.0021701388889 15.2779017857143  16.4563802083333 14.6400669642857  16.7858072916667 13.9068080357143  C 17.115234375 13.1735491071429  17.2799479166667 12.3950892857143  17.2799479166667 11.5714285714286  C 17.2799479166667 10.4564732142857  16.9879557291667 9.43191964285714  16.4039713541667 8.49776785714286  C 15.8199869791667 7.56361607142857  15.0338541666667 6.85295758928571  14.0455729166667 6.36579241071429  C 13.0572916666667 5.87862723214285  11.9991319444444 5.6953125  10.87109375 5.81584821428571  C 9.54340277777778 5.96651785714286  8.400390625 6.53404017857143  7.44205729166667 7.51841517857143  C 6.48372395833333 8.50279017857143  5.93967013888889 9.66294642857143  5.80989583333333 10.9988839285714  C 5.71006944444445 11.9229910714286  5.82736545138889 12.8069196428571  6.16178385416667 13.6506696428571  C 6.49620225694444 14.4944196428571  6.98784722222222 15.2176339285714  7.63671875 15.8203125  C 7.73654513888889 15.9207589285714  7.75151909722222 16.0212053571429  7.681640625 16.1216517857143  C 7.44205729166667 16.5334821428571  7.29730902777778 17.0005580357143  7.24739583333333 17.5228794642857  C 7.22743055555556 17.61328125  7.17751736111111 17.6785714285714  7.09765625 17.71875  C 7.01779513888889 17.7589285714286  6.93793402777778 17.7488839285714  6.85807291666667 17.6886160714286  C 5.90972222222222 16.9453125  5.16851128472222 16.0262276785714  4.63444010416667 14.9313616071429  C 4.10036892361111 13.8364955357143  3.84331597222222 12.6612723214286  3.86328125 11.4056919642857  C 3.89322916666667 10.08984375  4.23763020833333 8.86439732142857  4.896484375 7.72935267857143  C 5.55533854166667 6.59430803571428  6.43880208333333 5.68275669642857  7.546875 4.99469866071429  C 8.65494791666667 4.306640625  9.85785590277778 3.93247767857143  11.1555989583333 3.87220982142857  C 12.5930989583333 3.80189732142857  13.9307725694444 4.10323660714286  15.1686197916667 4.77622767857143  C 16.4064670138889 5.44921875  17.3872612847222 6.39090401785714  18.1110026041667 7.60128348214286  Z " fill-rule="nonzero" fill="url(#LinearGradient22)" stroke="none" transform="matrix(1 0 0 1 176 201 )" />
  </g>
</svg>