<?xml version="1.0" encoding="utf-8"?>
<svg version="1.1" xmlns:xlink="http://www.w3.org/1999/xlink" width="25px" height="25px" xmlns="http://www.w3.org/2000/svg">
  <defs>
    <linearGradient gradientUnits="userSpaceOnUse" x1="24.75" y1="12.5" x2="0.25" y2="12.5" id="LinearGradient31">
      <stop id="Stop32" stop-color="#ff8686" offset="0" />
      <stop id="Stop33" stop-color="#f61010" offset="1" />
    </linearGradient>
  </defs>
  <g transform="matrix(1 0 0 1 -307 -202 )">
    <path d="M 21.8927556818182 3.10724431818182  C 21.3364109848485 2.55089962121212  20.6676136363636 2.27272727272727  19.8863636363636 2.27272727272727  L 5.11363636363636 2.27272727272727  C 4.33238636363636 2.27272727272727  3.66358901515152 2.55089962121212  3.10724431818182 3.10724431818182  C 2.55089962121212 3.66358901515151  2.27272727272727 4.33238636363637  2.27272727272727 5.11363636363637  L 2.27272727272727 19.8863636363636  C 2.27272727272727 20.6676136363636  2.55089962121212 21.3364109848485  3.10724431818182 21.8927556818182  C 3.66358901515152 22.4491003787879  4.33238636363636 22.7272727272727  5.11363636363636 22.7272727272727  L 19.8863636363636 22.7272727272727  C 20.6676136363636 22.7272727272727  21.3364109848485 22.4491003787879  21.8927556818182 21.8927556818182  C 22.4491003787879 21.3364109848485  22.7272727272727 20.6676136363636  22.7272727272727 19.8863636363636  L 22.7272727272727 5.11363636363637  C 22.7272727272727 4.33238636363637  22.4491003787879 3.66358901515151  21.8927556818182 3.10724431818182  Z M 23.4996448863636 1.50035511363636  C 24.4998816287879 2.50059185606061  25 3.70501893939394  25 5.11363636363637  L 25 19.8863636363636  C 25 21.2949810606061  24.4998816287879 22.4994081439394  23.4996448863636 23.4996448863636  C 22.4994081439394 24.4998816287879  21.2949810606061 25  19.8863636363636 25  L 5.11363636363636 25  C 3.70501893939394 25  2.50059185606061 24.4998816287879  1.50035511363636 23.4996448863636  C 0.500118371212121 22.4994081439394  0 21.2949810606061  0 19.8863636363636  L 0 5.11363636363637  C 0 3.70501893939394  0.500118371212121 2.50059185606061  1.50035511363636 1.50035511363636  C 2.50059185606061 0.500118371212119  3.70501893939394 0  5.11363636363636 0  L 19.8863636363636 0  C 21.2949810606061 0  22.4994081439394 0.500118371212119  23.4996448863636 1.50035511363636  Z " fill-rule="nonzero" fill="url(#LinearGradient31)" stroke="none" transform="matrix(1 0 0 1 307 202 )" />
  </g>
</svg>