<?xml version="1.0" encoding="utf-8"?>
<svg version="1.1" xmlns:xlink="http://www.w3.org/1999/xlink" width="25px" height="20px" xmlns="http://www.w3.org/2000/svg">
  <g transform="matrix(1 0 0 1 -21 -196 )">
    <path d="M 13.1138392857143 19.765625  C 12.9464285714286 19.921875  12.7418154761905 20  12.5 20  C 12.2581845238095 20  12.0535714285714 19.921875  11.8861607142857 19.765625  L 3.18080357142857 11.9270833333333  C 3.08779761904762 11.8576388888889  2.95991443452381 11.7447916666667  2.79715401785714 11.5885416666667  C 2.63439360119048 11.4322916666667  2.37630208333333 11.1480034722222  2.02287946428571 10.7356770833333  C 1.6694568452381 10.3233506944444  1.35323660714286 9.90017361111111  1.07421875 9.46614583333333  C 0.795200892857143 9.03211805555556  0.546409970238095 8.50694444444444  0.327845982142857 7.890625  C 0.109281994047619 7.27430555555555  0 6.67534722222222  0 6.09375  C 0 4.18402777777778  0.590587797619048 2.69097222222222  1.77176339285714 1.61458333333333  C 2.95293898809524 0.538194444444444  4.58519345238095 0  6.66852678571429 0  C 7.24516369047619 0  7.83342633928571 0.093315972222221  8.43331473214286 0.279947916666667  C 9.033203125 0.466579861111109  9.59123883928571 0.718315972222221  10.107421875 1.03515625  C 10.6236049107143 1.35199652777778  11.0677083333333 1.64930555555555  11.4397321428571 1.92708333333333  C 11.811755952381 2.20486111111111  12.1651785714286 2.5  12.5 2.8125  C 12.8348214285714 2.5  13.188244047619 2.20486111111111  13.5602678571429 1.92708333333333  C 13.9322916666667 1.64930555555555  14.3763950892857 1.35199652777778  14.892578125 1.03515625  C 15.4087611607143 0.718315972222221  15.966796875 0.466579861111109  16.5666852678571 0.279947916666667  C 17.1665736607143 0.093315972222221  17.7548363095238 0  18.3314732142857 0  C 20.4148065476191 0  22.0470610119048 0.538194444444444  23.2282366071429 1.61458333333333  C 24.409412202381 2.69097222222222  25 4.18402777777778  25 6.09375  C 25 8.01215277777778  23.9350818452381 9.96527777777778  21.8052455357143 11.953125  L 13.1138392857143 19.765625  Z " fill-rule="nonzero" fill="#d9001b" stroke="none" transform="matrix(1 0 0 1 21 196 )" />
  </g>
</svg>