<?xml version="1.0" encoding="utf-8"?>
<svg version="1.1" xmlns:xlink="http://www.w3.org/1999/xlink" width="69px" height="62px" xmlns="http://www.w3.org/2000/svg">
  <g transform="matrix(1 0 0 1 -35 -125 )">
    <path d="M 69.5 125  C 88.82 125  104 138.64  104 156  C 104 173.36  88.82 187  69.5 187  C 50.18 187  35 173.36  35 156  C 35 138.64  50.18 125  69.5 125  Z " fill-rule="nonzero" fill="#ffffff" stroke="none" />
    <path d="M 69.5 125.5  C 88.54 125.5  103.5 138.92  103.5 156  C 103.5 173.08  88.54 186.5  69.5 186.5  C 50.46 186.5  35.5 173.08  35.5 156  C 35.5 138.92  50.46 125.5  69.5 125.5  Z " stroke-width="1" stroke="#fcefef" fill="none" />
  </g>
</svg>