<?xml version="1.0" encoding="utf-8"?>
<svg version="1.1" xmlns:xlink="http://www.w3.org/1999/xlink" width="24px" height="31px" xmlns="http://www.w3.org/2000/svg">
  <g transform="matrix(1 0 0 1 -23 -61 )">
    <path d="M 23.5876288659794 1.86372745490982  C 23.8625429553265 2.07080828323313  24 2.30895123580494  24 2.57815631262525  C 24 2.84736138944556  23.8625429553265 3.08550434201737  23.5876288659794 3.29258517034068  L 7.38144329896907 15.5  L 23.5876288659794 27.7074148296593  C 23.8625429553265 27.9144956579826  24 28.1526386105544  24 28.4218436873748  C 24 28.6910487641951  23.8625429553265 28.9291917167669  23.5876288659794 29.1362725450902  L 21.5257731958763 30.689378757515  C 21.2508591065292 30.8964595858383  20.9347079037801 31  20.5773195876289 31  C 20.2199312714777 31  19.9037800687285 30.8964595858383  19.6288659793814 30.689378757515  L 0.412371134020619 16.2144288577154  C 0.13745704467354 16.0073480293921  0 15.7692050768203  0 15.5  C 0 15.2307949231797  0.13745704467354 14.9926519706079  0.412371134020619 14.7855711422846  L 19.6288659793814 0.31062124248497  C 19.9037800687285 0.103540414161656  20.2199312714777 0  20.5773195876289 0  C 20.9347079037801 0  21.2508591065292 0.103540414161656  21.5257731958763 0.31062124248497  L 23.5876288659794 1.86372745490982  Z " fill-rule="nonzero" fill="#000000" stroke="none" transform="matrix(1 0 0 1 23 61 )" />
  </g>
</svg>