<?xml version="1.0" encoding="utf-8"?>
<svg version="1.1" xmlns:xlink="http://www.w3.org/1999/xlink" width="72px" height="66px" xmlns="http://www.w3.org/2000/svg">
  <g transform="matrix(1 0 0 1 -136 -125 )">
    <path d="M 172 125  C 192.16 125  208 139.52  208 158  C 208 176.48  192.16 191  172 191  C 151.84 191  136 176.48  136 158  C 136 139.52  151.84 125  172 125  Z " fill-rule="nonzero" fill="#ffffff" stroke="none" />
    <path d="M 172 125.5  C 191.88 125.5  207.5 139.8  207.5 158  C 207.5 176.2  191.88 190.5  172 190.5  C 152.12 190.5  136.5 176.2  136.5 158  C 136.5 139.8  152.12 125.5  172 125.5  Z " stroke-width="1" stroke="#fcefef" fill="none" />
  </g>
</svg>