<?xml version="1.0" encoding="utf-8"?>
<svg version="1.1" xmlns:xlink="http://www.w3.org/1999/xlink" width="50px" height="48px" xmlns="http://www.w3.org/2000/svg">
  <g transform="matrix(1 0 0 1 -147 -130 )">
    <path d="M 7.40625 39.421875  C 7.80208333333333 39.0364583333333  8 38.5625  8 38  C 8 37.4583333333333  7.80208333333333 36.9895833333333  7.40625 36.59375  C 7.01041666666667 36.1979166666667  6.54166666666667 36  6 36  C 5.4375 36  4.96354166666667 36.1979166666667  4.578125 36.59375  C 4.19270833333333 36.9895833333333  4 37.4583333333333  4 38  C 4 38.5625  4.19270833333333 39.0364583333333  4.578125 39.421875  C 4.96354166666667 39.8072916666667  5.4375 40  6 40  C 6.54166666666667 40  7.01041666666667 39.8072916666667  7.40625 39.421875  Z M 12.40625 20.59375  C 12.8020833333333 20.9895833333333  13 21.4583333333333  13 22  L 13 42  C 13 42.5416666666667  12.8020833333333 43.0104166666667  12.40625 43.40625  C 12.0104166666667 43.8020833333333  11.5416666666667 44  11 44  L 2 44  C 1.45833333333333 44  0.989583333333333 43.8020833333333  0.59375 43.40625  C 0.197916666666667 43.0104166666667  0 42.5416666666667  0 42  L 0 22  C 0 21.4583333333333  0.197916666666667 20.9895833333333  0.59375 20.59375  C 0.989583333333333 20.1979166666667  1.45833333333333 20  2 20  L 11 20  C 11.5416666666667 20  12.0104166666667 20.1979166666667  12.40625 20.59375  Z M 48.21875 17.78125  C 49.40625 18.96875  50 20.375  50 22  C 50 23.7916666666667  49.4270833333333 25.34375  48.28125 26.65625  C 48.59375 27.5729166666667  48.75 28.3645833333333  48.75 29.03125  C 48.8125 30.6145833333333  48.3645833333333 32.0416666666667  47.40625 33.3125  C 47.7604166666667 34.4791666666667  47.7604166666667 35.6979166666667  47.40625 36.96875  C 47.09375 38.15625  46.53125 39.1354166666667  45.71875 39.90625  C 45.90625 42.2395833333333  45.3958333333333 44.125  44.1875 45.5625  C 42.8541666666667 47.1458333333333  40.8020833333333 47.9583333333333  38.03125 48  L 36.90625 48  L 34.53125 48  L 34 48  C 32.625 48  31.125 47.8385416666667  29.5 47.515625  C 27.875 47.1927083333333  26.609375 46.890625  25.703125 46.609375  C 24.796875 46.328125  23.5416666666667 45.9166666666667  21.9375 45.375  C 19.375 44.4791666666667  17.7291666666667 44.0208333333333  17 44  C 16.4583333333333 43.9791666666667  15.9895833333333 43.7760416666667  15.59375 43.390625  C 15.1979166666667 43.0052083333333  15 42.5416666666667  15 42  L 15 21.96875  C 15 21.4479166666667  15.1875 20.9947916666667  15.5625 20.609375  C 15.9375 20.2239583333333  16.3854166666667 20.0104166666667  16.90625 19.96875  C 17.40625 19.9270833333333  18.1979166666667 19.3125  19.28125 18.125  C 20.3645833333333 16.9375  21.4166666666667 15.6770833333333  22.4375 14.34375  C 23.8541666666667 12.53125  24.90625 11.28125  25.59375 10.59375  C 25.96875 10.21875  26.2916666666667 9.71875  26.5625 9.09375  C 26.8333333333333 8.46875  27.015625 7.96354166666666  27.109375 7.578125  C 27.203125 7.19270833333333  27.34375 6.5625  27.53125 5.6875  C 27.6770833333333 4.875  27.8072916666667 4.23958333333333  27.921875 3.78125  C 28.0364583333333 3.32291666666666  28.2395833333333 2.78125  28.53125 2.15625  C 28.8229166666667 1.53125  29.1770833333333 1.01041666666667  29.59375 0.593749999999998  C 29.9895833333333 0.197916666666664  30.4583333333333 0  31 0  C 31.9583333333333 0  32.8177083333333 0.109375000000002  33.578125 0.328125  C 34.3385416666667 0.546874999999998  34.9635416666667 0.817708333333329  35.453125 1.140625  C 35.9427083333333 1.46354166666666  36.359375 1.88541666666666  36.703125 2.40625  C 37.046875 2.92708333333333  37.296875 3.39583333333333  37.453125 3.8125  C 37.609375 4.22916666666666  37.734375 4.75  37.828125 5.375  C 37.921875 6  37.9739583333333 6.46875  37.984375 6.78125  C 37.9947916666667 7.09375  38 7.5  38 8  C 38 8.79166666666667  37.9010416666667 9.58333333333333  37.703125 10.375  C 37.5052083333333 11.1666666666667  37.3072916666667 11.7916666666667  37.109375 12.25  C 36.9114583333333 12.7083333333333  36.625 13.2916666666667  36.25 14  C 36.1875 14.125  36.0833333333333 14.3125  35.9375 14.5625  C 35.7916666666667 14.8125  35.6770833333333 15.0416666666667  35.59375 15.25  C 35.5104166666667 15.4583333333333  35.4270833333333 15.7083333333333  35.34375 16  L 44 16  C 45.625 16  47.03125 16.59375  48.21875 17.78125  Z " fill-rule="nonzero" fill="#f24040" stroke="none" transform="matrix(1 0 0 1 147 130 )" />
  </g>
</svg>