<?xml version="1.0" encoding="utf-8"?>
<svg version="1.1" xmlns:xlink="http://www.w3.org/1999/xlink" width="50px" height="49px" xmlns="http://www.w3.org/2000/svg">
  <g transform="matrix(1 0 0 1 -255 -129 )">
    <path d="M 1.00334448160535 38  L 48.9966555183946 38  L 49.9721293199554 47.05859375  C 50.0278706800446 47.5690104166667  49.8792270531401 48.0247395833333  49.5261984392419 48.42578125  C 49.1731698253437 48.80859375  48.7272389446303 49  48.1884057971014 49  L 1.81159420289855 49  C 1.27276105536975 49  0.826830174656262 48.80859375  0.473801560758083 48.42578125  C 0.120772946859903 48.0247395833333  -0.0278706800445931 47.5690104166667  0.0278706800445931 47.05859375  L 1.00334448160535 38  Z M 45.819397993311 14.451171875  C 46.1538461538462 14.751953125  46.3489409141583 15.12109375  46.4046822742475 15.55859375  L 48.8015607580825 36  L 1.1984392419175 36  L 3.59531772575251 15.55859375  C 3.65105908584169 15.12109375  3.84615384615385 14.751953125  4.18060200668896 14.451171875  C 4.51505016722408 14.150390625  4.91452991452991 14  5.37904124860647 14  L 12.5139353400223 14  L 12.5139353400223 17.5  C 12.5139353400223 18.4661458333333  12.8623188405797 19.291015625  13.5590858416945 19.974609375  C 14.2558528428094 20.658203125  15.0966183574879 21  16.0813823857302 21  C 17.0661464139725 21  17.9069119286511 20.658203125  18.6036789297659 19.974609375  C 19.3004459308807 19.291015625  19.6488294314381 18.4661458333333  19.6488294314381 17.5  L 19.6488294314381 14  L 30.3511705685619 14  L 30.3511705685619 17.5  C 30.3511705685619 18.4661458333333  30.6995540691193 19.291015625  31.3963210702341 19.974609375  C 32.0930880713489 20.658203125  32.9338535860275 21  33.9186176142698 21  C 34.9033816425121 21  35.7441471571906 20.658203125  36.4409141583055 19.974609375  C 37.1376811594203 19.291015625  37.4860646599777 18.4661458333333  37.4860646599777 17.5  L 37.4860646599777 14  L 44.6209587513935 14  C 45.0854700854701 14  45.4849498327759 14.150390625  45.819397993311 14.451171875  Z M 32.566889632107 3.076171875  C 34.6571906354515 5.126953125  35.7023411371237 7.6015625  35.7023411371237 10.5  L 35.7023411371237 17.5  C 35.7023411371237 17.9739583333333  35.5258268301747 18.3841145833333  35.1727982162765 18.73046875  C 34.8197696023783 19.0768229166667  34.4017094017094 19.25  33.9186176142698 19.25  C 33.4355258268302 19.25  33.0174656261613 19.0768229166667  32.6644370122631 18.73046875  C 32.3114083983649 18.3841145833333  32.1348940914158 17.9739583333333  32.1348940914158 17.5  L 32.1348940914158 10.5  C 32.1348940914158 8.56770833333333  31.438127090301 6.91796875  30.0445930880713 5.55078125  C 28.6510590858417 4.18359375  26.9695280564846 3.5  25 3.5  C 23.0304719435154 3.5  21.3489409141583 4.18359375  19.9554069119286 5.55078125  C 18.561872909699 6.91796875  17.8651059085842 8.56770833333333  17.8651059085842 10.5  L 17.8651059085842 17.5  C 17.8651059085842 17.9739583333333  17.6885916016351 18.3841145833333  17.3355629877369 18.73046875  C 16.9825343738387 19.0768229166667  16.5644741731698 19.25  16.0813823857302 19.25  C 15.5982905982906 19.25  15.1802303976217 19.0768229166667  14.8272017837235 18.73046875  C 14.4741731698253 18.3841145833333  14.2976588628763 17.9739583333333  14.2976588628763 17.5  L 14.2976588628763 10.5  C 14.2976588628763 7.6015625  15.3428093645485 5.126953125  17.433110367893 3.076171875  C 19.5234113712375 1.025390625  22.0457079152731 0  25 0  C 27.9542920847269 0  30.4765886287625 1.025390625  32.566889632107 3.076171875  Z " fill-rule="nonzero" fill="#f24040" stroke="none" transform="matrix(1 0 0 1 255 129 )" />
  </g>
</svg>