<?xml version="1.0" encoding="utf-8"?>
<svg version="1.1" xmlns:xlink="http://www.w3.org/1999/xlink" width="21px" height="22px" xmlns="http://www.w3.org/2000/svg">
  <g transform="matrix(1 0 0 1 -337 -245 )">
    <path d="M 20.740234375 17.9265625  C 20.9134114583333 18.1442708333333  21 18.4020833333333  21 18.7  L 21 20.9  C 21 21.1979166666667  20.9134114583333 21.4557291666667  20.740234375 21.6734375  C 20.5670572916667 21.8911458333333  20.3619791666667 22  20.125 22  L 0.875 22  C 0.638020833333333 22  0.432942708333333 21.8911458333333  0.259765625 21.6734375  C 0.0865885416666667 21.4557291666667  0 21.1979166666667  0 20.9  L 0 18.7  C 0 18.4020833333333  0.0865885416666667 18.1442708333333  0.259765625 17.9265625  C 0.432942708333333 17.7088541666667  0.638020833333333 17.6  0.875 17.6  L 20.125 17.6  C 20.3619791666667 17.6  20.5670572916667 17.7088541666667  20.740234375 17.9265625  Z M 20.740234375 9.1265625  C 20.9134114583333 9.34427083333333  21 9.60208333333333  21 9.9  L 21 12.1  C 21 12.3979166666667  20.9134114583333 12.6557291666667  20.740234375 12.8734375  C 20.5670572916667 13.0911458333333  20.3619791666667 13.2  20.125 13  L 0.875 13  C 0.638020833333333 13.2  0.432942708333333 13.0911458333333  0.259765625 12.8734375  C 0.0865885416666667 12.6557291666667  0 12.3979166666667  0 12.1  L 0 9.9  C 0 9.60208333333333  0.0865885416666667 9.34427083333333  0.259765625 9.1265625  C 0.432942708333333 8.90885416666667  0.638020833333333 8.8  0.875 9  L 20.125 9  C 20.3619791666667 8.8  20.5670572916667 8.90885416666667  20.740234375 9.1265625  Z M 20.740234375 0.326562500000001  C 20.9134114583333 0.544270833333332  21 0.802083333333332  21 1.1  L 21 3.3  C 21 3.59791666666666  20.9134114583333 3.85572916666666  20.740234375 4.0734375  C 20.5670572916667 4.29114583333333  20.3619791666667 4.4  20.125 4.4  L 0.875 4.4  C 0.638020833333333 4.4  0.432942708333333 4.29114583333333  0.259765625 4.0734375  C 0.0865885416666667 3.85572916666666  0 3.59791666666666  0 3.3  L 0 1.1  C 0 0.802083333333332  0.0865885416666667 0.544270833333332  0.259765625 0.326562500000001  C 0.432942708333333 0.108854166666665  0.638020833333333 0  0.875 0  L 20.125 0  C 20.3619791666667 0  20.5670572916667 0.108854166666665  20.740234375 0.326562500000001  Z " fill-rule="nonzero" fill="#7f7f7f" stroke="none" transform="matrix(1 0 0 1 337 245 )" />
  </g>
</svg>