<?xml version="1.0" encoding="utf-8"?>
<svg version="1.1" xmlns:xlink="http://www.w3.org/1999/xlink" width="20px" height="22px" xmlns="http://www.w3.org/2000/svg">
  <g transform="matrix(1 0 0 1 -301 -245 )">
    <path d="M 19.6022727272727 8.4375  C 19.8674242424242 8.72916666666666  20 9.08333333333333  20 9.5  L 20 12.5  C 20 12.9166666666667  19.8674242424242 13.2708333333333  19.6022727272727 13.5625  C 19.3371212121212 13.8541666666667  19.0151515151515 14  18.6363636363636 14  L 12.7272727272727 14  L 12.7272727272727 20.5  C 12.7272727272727 20.9166666666667  12.594696969697 21.2708333333333  12.3295454545455 21.5625  C 12.0643939393939 21.8541666666667  11.7424242424242 22  11.3636363636364 22  L 8.63636363636364 22  C 8.25757575757576 22  7.93560606060606 21.8541666666667  7.67045454545455 21.5625  C 7.40530303030303 21.2708333333333  7.27272727272727 20.9166666666667  7.27272727272727 20.5  L 7.27272727272727 14  L 1.36363636363636 14  C 0.984848484848485 14  0.662878787878788 13.8541666666667  0.397727272727273 13.5625  C 0.132575757575758 13.2708333333333  0 12.9166666666667  0 12.5  L 0 9.5  C 0 9.08333333333333  0.132575757575758 8.72916666666666  0.397727272727273 8.4375  C 0.662878787878788 8.14583333333333  0.984848484848485 8  1.36363636363636 8  L 7.27272727272727 8  L 7.27272727272727 1.5  C 7.27272727272727 1.08333333333333  7.40530303030303 0.729166666666665  7.67045454545455 0.4375  C 7.93560606060606 0.145833333333333  8.25757575757576 0  8.63636363636364 0  L 11.3636363636364 0  C 11.7424242424242 0  12.0643939393939 0.145833333333333  12.3295454545455 0.4375  C 12.594696969697 0.729166666666665  12.7272727272727 1.08333333333333  12.7272727272727 1.5  L 12.7272727272727 8  L 18.6363636363636 8  C 19.0151515151515 8  19.3371212121212 8.14583333333333  19.6022727272727 8.4375  Z " fill-rule="nonzero" fill="#7f7f7f" stroke="none" transform="matrix(1 0 0 1 301 245 )" />
  </g>
</svg>