<?xml version="1.0" encoding="utf-8"?>
<svg version="1.1" xmlns:xlink="http://www.w3.org/1999/xlink" width="46px" height="34px" xmlns="http://www.w3.org/2000/svg">
  <g transform="matrix(1 0 0 1 -24 -293 )">
    <path d="M 24.1294642857143 33.6015625  C 23.8214285714286 33.8671875  23.4449404761905 34  23 34  C 22.5550595238095 34  22.1785714285714 33.8671875  21.8705357142857 33.6015625  L 5.85267857142857 20.2760416666667  C 5.68154761904762 20.1579861111111  5.44624255952381 19.9661458333333  5.14676339285714 19.7005208333333  C 4.84728422619048 19.4348958333333  4.37239583333333 18.9516059027778  3.72209821428571 18.2506510416667  C 3.0718005952381 17.5496961805556  2.48995535714286 16.8302951388889  1.9765625 16.0924479166667  C 1.46316964285714 15.3546006944444  1.0053943452381 14.4618055555556  0.603236607142857 13.4140625  C 0.201078869047619 12.3663194444444  0 11.3480902777778  0 10.359375  C 0 7.11284722222222  1.08668154761905 4.57465277777778  3.26004464285714 2.74479166666667  C 5.43340773809524 0.914930555555555  8.43675595238095 0  12.2700892857143 0  C 13.3311011904762 0  14.4135044642857 0.158637152777776  15.5172991071429 0.475911458333335  C 16.62109375 0.793185763888886  17.6478794642857 1.22113715277778  18.59765625 1.759765625  C 19.5474330357143 2.29839409722222  20.3645833333333 2.80381944444444  21.0491071428571 3.27604166666667  C 21.733630952381 3.74826388888889  22.3839285714286 4.25  23 4.78125  C 23.6160714285714 4.25  24.2663690476191 3.74826388888889  24.9508928571429 3.27604166666667  C 25.6354166666667 2.80381944444444  26.4525669642857 2.29839409722222  27.40234375 1.759765625  C 28.3521205357143 1.22113715277778  29.37890625 0.793185763888886  30.4827008928571 0.475911458333335  C 31.5864955357143 0.158637152777776  32.6688988095238 0  33.7299107142857 0  C 37.5632440476191 0  40.5665922619048 0.914930555555555  42.7399553571429 2.74479166666667  C 44.913318452381 4.57465277777778  46 7.11284722222222  46 10.359375  C 46 13.6206597222222  44.0405505952381 16.9409722222222  40.1216517857143 20.3203125  L 24.1294642857143 33.6015625  Z " fill-rule="nonzero" fill="#ec808d" stroke="none" transform="matrix(1 0 0 1 24 293 )" />
  </g>
</svg>