<?xml version="1.0" encoding="utf-8"?>
<svg version="1.1" xmlns:xlink="http://www.w3.org/1999/xlink" width="20px" height="12px" xmlns="http://www.w3.org/2000/svg">
  <g transform="matrix(1 0 0 1 -327 -473 )">
    <path d="M 19.5286195286195 8.96969696969697  C 19.8428731762065 9.15824915824916  20 9.38720538720539  20 9.65656565656566  C 20 9.92592592592593  19.8428731762065 10.1548821548822  19.5286195286195 10.3434343434343  L 17.2390572390572 11.7171717171717  C 16.9248035914703 11.9057239057239  16.5432098765432 12  16.0942760942761 12  C 15.645342312009 12  15.2637485970819 11.9057239057239  14.9494949494949 11.7171717171717  L 10 8.74747474747475  L 5.05050505050505 11.7171717171717  C 4.73625140291807 11.9057239057239  4.35465768799102 12  3.90572390572391 12  C 3.45679012345679 12  3.07519640852974 11.9057239057239  2.76094276094276 11.7171717171717  L 0.471380471380471 10.3434343434343  C 0.157126823793491 10.1548821548822  0 9.92592592592593  0 9.65656565656566  C 0 9.38720538720539  0.157126823793491 9.15824915824916  0.471380471380471 8.96969696969697  L 5.42087542087542 6  L 0.471380471380471 3.03030303030303  C 0.157126823793491 2.84175084175084  0 2.61279461279461  0 2.34343434343434  C 0 2.07407407407407  0.157126823793491 1.84511784511784  0.471380471380471 1.65656565656566  L 2.76094276094276 0.282828282828283  C 3.07519640852974 0.0942760942760938  3.45679012345679 0  3.90572390572391 0  C 4.35465768799102 0  4.73625140291807 0.0942760942760938  5.05050505050505 0.282828282828283  L 10 3.25252525252525  L 14.9494949494949 0.282828282828283  C 15.2637485970819 0.0942760942760938  15.645342312009 0  16.0942760942761 0  C 16.5432098765432 0  16.9248035914703 0.0942760942760938  17.2390572390572 0.282828282828283  L 19.5286195286195 1.65656565656566  C 19.8428731762065 1.84511784511784  20 2.07407407407407  20 2.34343434343434  C 20 2.61279461279461  19.8428731762065 2.84175084175084  19.5286195286195 3.03030303030303  L 14.5791245791246 6  L 19.5286195286195 8.96969696969697  Z " fill-rule="nonzero" fill="#7f7f7f" stroke="none" transform="matrix(1 0 0 1 327 473 )" />
  </g>
</svg>