<?xml version="1.0" encoding="utf-8"?>
<svg version="1.1" xmlns:xlink="http://www.w3.org/1999/xlink" width="21px" height="14px" xmlns="http://www.w3.org/2000/svg">
  <g transform="matrix(1 0 0 1 -310 -465 )">
    <path d="M 19.6387096774193 0.809949396903917  C 19.4387096774194 0.50994939690392  20.8 1.59999999999999  20.4 1.92929292929293  C 19.9999999999999 2.25858585858586  19.8795698924731 2.55218855218855  19.6387096774193 2.78787878787878  L 17.3000000000001 5.01604278074865  L 14.9 7.35858585858585  L 10.2967741935484 11.9292929292929  L 8.54193548387099 13.6464646464647  C 8.30107526881721 13.8821548821549  8.00860215053763 14  7.66451612903228 14  C 7.32043010752687 14  7.02795698924729 13.8821548821549  6.78709677419357 13.6464646464647  L 5.0322580645161 11.9292929292929  L 0.361290322580658 7.35858585858585  C 0.120430107526886 7.12289562289563  0 6.83670033670033  0 6.5  C 0 6.16329966329967  0.120430107526886 5.87710437710437  0.361290322580658 5.64141414141415  L 0 6.5  C 0.240860215053772 6.26430976430977  0.0172043010752532 5.64141414141415  0.361290322580658 5.64141414141415  C 0.705376344086005 5.64141414141415  1.14951411649702 5.40572390572392  1.39037433155079 5.64141414141415  L 7.66451612903228 11.9292929292929  L 18 1.92929292929293  C 18.2408602150538 1.6936026936027  17.5 2.39999999999999  18.7 1.09999999999999  C 19.9 -0.200000000000003  20.1591397849462 1.46430976430977  20.4 1.7  L 20.0679867133832 0.809949396903917  L 19.6387096774193 0.809949396903917  Z " fill-rule="nonzero" fill="#ff0000" stroke="none" transform="matrix(1 0 0 1 310 465 )" />
  </g>
</svg>