<?xml version="1.0" encoding="utf-8"?>
<svg version="1.1" xmlns:xlink="http://www.w3.org/1999/xlink" width="22px" height="22px" xmlns="http://www.w3.org/2000/svg">
  <g transform="matrix(1 0 0 1 -248 -720 )">
    <path d="M 21.44140625 0.98828125  C 21.8138020833333 1.15060763888889  22 1.43229166666667  22 1.83333333333333  L 22 8.25  C 22 8.49826388888889  21.9092881944444 8.71310763888889  21.7278645833333 8.89453125  C 21.5464409722222 9.07595486111111  21.3315972222222 9.16666666666667  21.0833333333333 9.16666666666667  L 14.6666666666667 9.16666666666667  C 14.265625 9.16666666666667  13.9839409722222 8.97569444444445  13.8216145833333 8.59375  C 13.6592881944444 8.22135416666667  13.7261284722222 7.89192708333333  14.0221354166667 7.60546875  L 15.9986979166667 5.62890625  C 14.5855034722222 4.32074652777778  12.9192708333333 3.66666666666667  11 3.66666666666667  C 10.0069444444444 3.66666666666667  9.05924479166667 3.86002604166667  8.15690104166667 4.24674479166667  C 7.25455729166667 4.63346354166667  6.47395833333333 5.15625  5.81510416666667 5.81510416666667  C 5.15625 6.47395833333333  4.63346354166667 7.25455729166667  4.24674479166667 8.15690104166667  C 3.86002604166667 9.05924479166667  3.66666666666667 10.0069444444444  3.66666666666667 11  C 3.66666666666667 11.9930555555556  3.86002604166667 12.9407552083333  4.24674479166667 13.8430989583333  C 4.63346354166667 14.7454427083333  5.15625 15.5260416666667  5.81510416666667 16.1848958333333  C 6.47395833333333 16.84375  7.25455729166667 17.3665364583333  8.15690104166667 17.7532552083333  C 9.05924479166667 18.1399739583333  10.0069444444444 18.3333333333333  11 18.3333333333333  C 12.1362847222222 18.3333333333333  13.2105034722222 18.0850694444444  14.22265625 17.5885416666667  C 15.2348090277778 17.0920138888889  16.0894097222222 16.3901909722222  16.7864583333333 15.4830729166667  C 16.8532986111111 15.3875868055556  16.9631076388889 15.3302951388889  17.1158854166667 15.3111979166667  C 17.2591145833333 15.3111979166667  17.3784722222222 15.3541666666667  17.4739583333333 15.4401041666667  L 19.4361979166667 17.4166666666667  C 19.5221354166667 17.4930555555556  19.5674913194444 17.5909288194444  19.572265625 17.7102864583333  C 19.5770399305556 17.8296440972222  19.5412326388889 17.9370659722222  19.46484375 18.0325520833333  C 18.4240451388889 19.29296875  17.1636284722222 20.2693142361111  15.68359375 20.9615885416667  C 14.2035590277778 21.6538628472222  12.6423611111111 22  11 22  C 9.51041666666667 22  8.08767361111111 21.7087673611111  6.73177083333333 21.1263020833333  C 5.37586805555556 20.5438368055556  4.20616319444444 19.7608506944444  3.22265625 18.77734375  C 2.23914930555556 17.7938368055556  1.45616319444444 16.6241319444444  0.873697916666667 15.2682291666667  C 0.291232638888889 13.9123263888889  0 12.4895833333333  0 11  C 0 9.51041666666667  0.291232638888889 8.08767361111111  0.873697916666667 6.73177083333333  C 1.45616319444444 5.37586805555555  2.23914930555556 4.20616319444444  3.22265625 3.22265625  C 4.20616319444444 2.23914930555555  5.37586805555556 1.45616319444444  6.73177083333333 0.873697916666666  C 8.08767361111111 0.291232638888889  9.51041666666667 0  11 0  C 12.4036458333333 0  13.7619357638889 0.264973958333334  15.0748697916667 0.794921875  C 16.3878038194444 1.32486979166667  17.5551215277778 2.07204861111111  18.5768229166667 3.03645833333333  L 20.4388020833333 1.18880208333333  C 20.7157118055556 0.892795138888889  21.0499131944444 0.825954861111109  21.44140625 0.98828125  Z " fill-rule="nonzero" fill="#000000" stroke="none" transform="matrix(1 0 0 1 248 720 )" />
  </g>
</svg>