<?xml version="1.0" encoding="utf-8"?>
<svg version="1.1" xmlns:xlink="http://www.w3.org/1999/xlink" width="55px" height="56px" xmlns="http://www.w3.org/2000/svg">
  <g transform="matrix(1 0 0 1 -158 -703 )">
    <path d="M 38.6360677083333 39.3385416666667  C 38.8509114583333 39.1197916666667  38.9583333333333 38.8402777777778  39 38.5  L 39 17.5  C 38.9583333333333 17.1597222222222  38.8509114583333 16.8802083333333  38.6360677083333 16.6614583333333  C 38.4212239583333 16.4427083333333  38.1467013888889 16.3333333333333  37.8125 17  L 17.1875 17  C 16.8532986111111 16.3333333333333  16.5787760416667 16.4427083333333  16.3639322916667 16.6614583333333  C 16.1490885416667 16.8802083333333  16.0416666666667 17.1597222222222  16 17.5  L 16 38.5  C 16.0416666666667 38.8402777777778  16.1490885416667 39.1197916666667  16.3639322916667 39.3385416666667  C 16.5787760416667 39.5572916666667  16.8532986111111 39.6666666666667  17.1875 39  L 37.8125 39  C 38.1467013888889 39.6666666666667  38.4212239583333 39.5572916666667  38.6360677083333 39.3385416666667  Z M 51.3118489583333 13.9453125  C 53.7706163194444 18.2352430555556  55 22.9201388888889  55 28  C 55 33.0798611111111  53.7706163194444 37.7647569444444  51.3118489583333 42.0546875  C 48.8530815972222 46.3446180555556  45.5170355902778 49.7413194444444  41.3037109375 52.2447916666667  C 37.0903862847222 54.7482638888889  32.4891493055556 56  27.5 56  C 22.5108506944444 56  17.9096137152778 54.7482638888889  13.6962890625 52.2447916666667  C 9.48296440972222 49.7413194444444  6.14691840277778 46.3446180555556  3.68815104166667 42.0546875  C 1.22938368055556 37.7647569444444  0 33.0798611111111  0 28  C 0 22.9201388888889  1.22938368055556 18.2352430555556  3.68815104166667 13.9453125  C 6.14691840277778 9.65538194444444  9.48296440972222 6.25868055555555  13.6962890625 3.75520833333333  C 17.9096137152778 1.25173611111111  22.5108506944444 0  27.5 0  C 32.4891493055556 0  37.0903862847222 1.25173611111111  41.3037109375 3.75520833333333  C 45.5170355902778 6.25868055555555  48.8530815972222 9.65538194444444  51.3118489583333 13.9453125  Z " fill-rule="nonzero" fill="#000000" stroke="none" transform="matrix(1 0 0 1 158 703 )" />
  </g>
</svg>