<?xml version="1.0" encoding="utf-8"?>
<svg version="1.1" xmlns:xlink="http://www.w3.org/1999/xlink" width="28px" height="23px" xmlns="http://www.w3.org/2000/svg">
  <g transform="matrix(1 0 0 1 -323 -720 )">
    <path d="M 23.3698135898978 12.6271306818182  C 23.5943074764482 12.7142518939394  23.7065544197234 12.8721590909091  23.7065544197234 13.1008522727273  L 23.7065544197234 18.2954545454545  C 23.7065544197234 19.5913825757576  23.2323110843857 20.6994554924242  22.2838244137102 21.6196732954545  C 21.3353377430347 22.5398910984848  20.1932250952095 23  18.8574864702345 23  L 4.84906794948888 23  C 3.51332932451393 23  2.37121667668872 22.5398910984848  1.42273000601323 21.6196732954545  C 0.474243335337743 20.6994554924242  0 19.5913825757576  0 18.2954545454545  L 0 4.70454545454546  C 0 3.40861742424242  0.474243335337743 2.30054450757576  1.42273000601323 1.38032670454546  C 2.37121667668872 0.460108901515149  3.51332932451393 0  4.84906794948888 0  L 18.8574864702345 0  C 19.5646422128683 0  20.2212868310283 0.136126893939393  20.8274203247144 0.408380681818181  C 20.9957907396272 0.484611742424241  21.0968129885749 0.609848484848484  21.1304870715574 0.784090909090908  C 21.16416115454 0.969223484848484  21.1136500300661 1.12713068181818  20.9789536981359 1.2578125  L 20.1539386650631 2.05823863636364  C 20.0416917217879 2.16714015151515  19.9126077370214 2.22159090909091  19.7666867107637 2.22159090909091  C 19.7330126277811 2.22159090909091  19.6825015033073 2.21070075757576  19.6151533373422 2.18892045454546  C 19.3569853678092 2.12357954545454  19.10442974544 2.09090909090909  18.8574864702345 2  L 4.84906794948888 2  C 4.10823812387252 2.09090909090909  3.47404289436761 2.34682765151515  2.94648226097414 2.85866477272727  C 2.41892162758068 3.37050189393939  2.15514131088394 3.98579545454546  2.15514131088394 4.70454545454546  L 2.15514131088394 18.2954545454545  C 2.15514131088394 19.0142045454545  2.41892162758068 19.6294981060606  2.94648226097414 20.1413352272727  C 3.47404289436761 20.6531723484848  4.10823812387252 20.9090909090909  4.84906794948888 21  L 18.8574864702345 21  C 19.5983162958509 20.9090909090909  20.2325115253558 20.6531723484848  20.7600721587492 20.1413352272727  C 21.2876327921427 19.6294981060606  21.5514131088394 19.0142045454545  21.5514131088394 18.2954545454545  L 21.5514131088394 14.1463068181818  C 21.5514131088394 14.0047348484848  21.6019242333133 13.8849431818182  21.702946482261 13.7869318181818  L 22.7805171377029 12.7414772727273  C 22.8927640809782 12.6325757575758  23.0218480657446 12.578125  23.1677690920024 12.578125  C 23.2351172579675 12.578125  23.3024654239327 12.5944602272727  23.3698135898978 12.6271306818182  Z M 28 4.18181818181818  C 28 4.54119318181818  27.8653036680698 4.8515625  27.5959110042093 5.11292613636364  L 13.8905592303067 18.4098011363636  C 13.6211665664462 18.6711647727273  13.3012627781118 18.8018465909091  12.9308478653037 18.8018465909091  C 12.5604329524955 18.8018465909091  12.2405291641612 18.6711647727273  11.9711365003007 18.4098011363636  L 4.73120865904991 11.3856534090909  C 4.46181599518942 11.1242897727273  4.32711966325917 10.8139204545455  4.32711966325917 10.4545454545455  C 4.32711966325917 10.0951704545455  4.46181599518942 9.78480113636363  4.73120865904991 9.5234375  L 6.5832832230908 7.7265625  C 6.85267588695129 7.46519886363636  7.17257967528563 7.33451704545455  7.54299458809381 7.33451704545455  C 7.91340950090199 7.33451704545455  8.23331328923632 7.46519886363636  8.50270595309681 7.7265625  L 12.9308478653037 12.0227272727273  L 23.8244137101624 1.45383522727273  C 24.0938063740229 1.19247159090909  24.4137101623572 1.06178977272727  24.7841250751654 1.06178977272727  C 25.1545399879735 1.06178977272727  25.4744437763079 1.19247159090909  25.7438364401684 1.45383522727273  L 27.5959110042093 3.25071022727273  C 27.8653036680698 3.51207386363636  28 3.82244318181818  28 4.18181818181818  Z " fill-rule="nonzero" fill="#000000" stroke="none" transform="matrix(1 0 0 1 323 720 )" />
  </g>
</svg>