<?xml version="1.0" encoding="utf-8"?>
<svg version="1.1" xmlns:xlink="http://www.w3.org/1999/xlink" width="22px" height="21px" xmlns="http://www.w3.org/2000/svg">
  <g transform="matrix(1 0 0 1 -101 -719 )">
    <path d="M 0 17.1818181818182  L 5.04166666666667 17.1818181818182  L 5.04166666666667 19.0909090909091  L 0 19.0909090909091  L 0 17.1818181818182  Z M 6.41666666666667 15.2727272727273  L 10.0833333333333 15.2727272727273  C 10.3315972222222 15.2727272727273  10.5464409722222 15.3671875  10.7278645833333 15.5561079545455  C 10.9092881944444 15.7450284090909  11 15.96875  11 16.2272727272727  L 11 20.0454545454545  C 11 20.3039772727273  10.9092881944444 20.5276988636364  10.7278645833333 20.7166193181818  C 10.5464409722222 20.9055397727273  10.3315972222222 21  10.0833333333333 21  L 6.41666666666667 21  C 6.16840277777778 21  5.95355902777778 20.9055397727273  5.77213541666667 20.7166193181818  C 5.59071180555556 20.5276988636364  5.5 20.3039772727273  5.5 20.0454545454545  L 5.5 16.2272727272727  C 5.5 15.96875  5.59071180555556 15.7450284090909  5.77213541666667 15.5561079545455  C 5.95355902777778 15.3671875  6.16840277777778 15.2727272727273  6.41666666666667 15.2727272727273  Z M 0 9.54545454545455  L 12.375 9.54545454545455  L 12.375 11.4545454545455  L 0 11.4545454545455  L 0 9.54545454545455  Z M 0 1.90909090909091  L 3.20833333333333 1.90909090909091  L 3.20833333333333 3.81818181818182  L 0 3.81818181818182  L 0 1.90909090909091  Z M 11.4583333333333 17  L 22 17  L 22 19  L 11.4583333333333 19  L 11.4583333333333 17  Z M 4.58333333333333 0  L 8.25 0  C 8.49826388888889 0  8.71310763888889 0.0944602272727253  8.89453125 0.283380681818183  C 9.07595486111111 0.472301136363633  9.16666666666667 0.696022727272726  9.16666666666667 0.954545454545454  L 9.16666666666667 4.77272727272727  C 9.16666666666667 5.03125  9.07595486111111 5.25497159090909  8.89453125 5.44389204545455  C 8.71310763888889 5.6328125  8.49826388888889 5.72727272727273  8.25 5.72727272727273  L 4.58333333333333 5.72727272727273  C 4.33506944444444 5.72727272727273  4.12022569444444 5.6328125  3.93880208333333 5.44389204545455  C 3.75737847222222 5.25497159090909  3.66666666666667 5.03125  3.66666666666667 4.77272727272727  L 3.66666666666667 0.954545454545454  C 3.66666666666667 0.696022727272726  3.75737847222222 0.472301136363633  3.93880208333333 0.283380681818183  C 4.12022569444444 0.0944602272727253  4.33506944444444 0  4.58333333333333 0  Z M 13.75 7.63636363636364  L 17.4166666666667 7.63636363636364  C 17.6649305555556 7.63636363636364  17.8797743055556 7.73082386363636  18.0611979166667 7.91974431818182  C 18.2426215277778 8.10866477272727  18.3333333333333 8.33238636363636  18.3333333333333 8.59090909090909  L 18.3333333333333 12.4090909090909  C 18.3333333333333 12.6676136363636  18.2426215277778 12.8913352272727  18.0611979166667 13.0802556818182  C 17.8797743055556 13.2691761363636  17.6649305555556 13.3636363636364  17.4166666666667 13.3636363636364  L 13.75 13.3636363636364  C 13.5017361111111 13.3636363636364  13.2868923611111 13.2691761363636  13.10546875 13.0802556818182  C 12.9240451388889 12.8913352272727  12.8333333333333 12.6676136363636  12.8333333333333 12.4090909090909  L 12.8333333333333 8.59090909090909  C 12.8333333333333 8.33238636363636  12.9240451388889 8.10866477272727  13.10546875 7.91974431818182  C 13.2868923611111 7.73082386363636  13.5017361111111 7.63636363636364  13.75 7.63636363636364  Z M 18.7916666666667 9.54545454545455  L 22 9.54545454545455  L 22 11.4545454545455  L 18.7916666666667 11.4545454545455  L 18.7916666666667 9.54545454545455  Z M 9.625 2  L 22 2  L 22 4  L 9.625 4  L 9.625 2  Z " fill-rule="nonzero" fill="#000000" stroke="none" transform="matrix(1 0 0 1 101 719 )" />
  </g>
</svg>