<?xml version="1.0" encoding="utf-8"?>
<svg version="1.1" xmlns:xlink="http://www.w3.org/1999/xlink" width="30px" height="35px" xmlns="http://www.w3.org/2000/svg">
  <g transform="matrix(1 0 0 1 -39 -425 )">
    <path d="M 22.578125 1.328125  L 28.671875 7.421875  C 29.0364583333333 7.78645833333333  29.3489583333333 8.28125  29.609375 8.90625  C 29.8697916666667 9.53125  30 10.1041666666667  30 10.625  L 30 33.125  C 30 33.6458333333333  29.8177083333333 34.0885416666667  29.453125 34.453125  C 29.0885416666667 34.8177083333333  28.6458333333333 35  28.125 35  L 1.875 35  C 1.35416666666667 35  0.911458333333333 34.8177083333333  0.546875 34.453125  C 0.182291666666667 34.0885416666667  0 33.6458333333333  0 33.125  L 0 1.875  C 0 1.35416666666667  0.182291666666667 0.911458333333332  0.546875 0.546875  C 0.911458333333333 0.182291666666668  1.35416666666667 0  1.875 0  L 19.375 0  C 19.8958333333333 0  20.46875 0.130208333333335  21.09375 0.390625000000001  C 21.71875 0.651041666666666  22.2135416666667 0.963541666666665  22.578125 1.328125  Z M 20.80078125 3.0859375  C 20.64453125 2.9296875  20.3776041666667 2.78645833333333  20 2.65625  L 20 10  L 27.34375 10  C 27.2135416666667 9.62239583333333  27.0703125 9.35546875  26.9140625 9.19921875  L 20.80078125 3.0859375  Z M 3 32  L 27 32  L 27 12.5  L 19.375 12.5  C 18.8541666666667 12.5  18.4114583333333 12.3177083333333  18.046875 11.953125  C 17.6822916666667 11.5885416666667  17.5 11.1458333333333  17.5 10.625  L 17.5 3  L 3 3  L 3 32  Z M 11.42578125 16.73828125  C 11.6341145833333 16.54296875  11.8619791666667 16.4973958333333  12.109375 16.6015625  C 12.3697916666667 16.7057291666667  12.5 16.9010416666667  13 17.1875  L 13 27.8125  C 12.5 28.0989583333333  12.3697916666667 28.2942708333333  12.109375 28.3984375  C 12.0052083333333 28.4244791666667  11.9270833333333 28.4375  11.875 28.4375  C 11.71875 28.4375  11.5690104166667 28.37890625  11.42578125 28.26171875  L 8.18359375 25  L 5.625 25  C 5.44270833333333 25  5.29296875 24.94140625  5.17578125 24.82421875  C 5.05859375 24.70703125  5 24.5572916666667  5 24.375  L 5 20.625  C 5 20.4427083333333  5.05859375 20.29296875  5.17578125 20.17578125  C 5.29296875 20.05859375  5.44270833333333 20  5.625 20  L 8.18359375 20  L 11.42578125 16.73828125  Z M 19.47265625 29.765625  C 19.70703125 29.9609375  19.9674479166667 30.05859375  20.25390625 30.05859375  C 20.6575520833333 30.05859375  20.9830729166667 29.90234375  21.23046875 29.58984375  C 22.91015625 27.51953125  23.75 25.15625  23.75 22.5  C 23.75 19.84375  22.91015625 17.48046875  21.23046875 15.41015625  C 21.0221354166667 15.13671875  20.7421875 14.98046875  20.390625 14.94140625  C 20.0390625 14.90234375  19.7330729166667 14.9934895833333  19.47265625 15.21484375  C 19.19921875 15.4361979166667  19.0462239583333 15.7194010416667  19.013671875 16.064453125  C 18.9811197916667 16.4095052083333  19.0755208333333 16.71875  19.296875 16.9921875  C 20.5989583333333 18.59375  21.25 20.4296875  21.25 22.5  C 21.25 24.5703125  20.5989583333333 26.40625  19.296875 28.0078125  C 19.0755208333333 28.28125  18.9811197916667 28.5904947916667  19.013671875 28.935546875  C 19.0462239583333 29.2805989583333  19.19921875 29.5572916666667  19.47265625 29.765625  Z M 15.2734375 26.8359375  C 15.5338541666667 27.0572916666667  15.8203125 27.16796875  16.1328125 27.16796875  C 16.484375 27.16796875  16.7903645833333 27.0377604166667  17.05078125 26.77734375  C 18.18359375 25.56640625  18.75 24.140625  18.75 22.5  C 18.75 20.859375  18.18359375 19.43359375  17.05078125 18.22265625  C 16.81640625 17.9752604166667  16.5234375 17.8450520833333  16.171875 17.83203125  C 15.8203125 17.8190104166667  15.5208333333333 17.9296875  15.2734375 18.1640625  C 15.0260416666667 18.3984375  14.8958333333333 18.6881510416667  14.8828125 19.033203125  C 14.8697916666667 19.3782552083333  14.9869791666667 19.6809895833333  15.234375 19.94140625  C 15.9114583333333 20.68359375  16.25 21.5364583333333  16.25 22.5  C 16.25 23.4635416666667  15.9114583333333 24.31640625  15.234375 25.05859375  C 14.9869791666667 25.3190104166667  14.8697916666667 25.6217447916667  14.8828125 25.966796875  C 14.8958333333333 26.3118489583333  15.0260416666667 26.6015625  15.2734375 26.8359375  Z " fill-rule="nonzero" fill="#000000" stroke="none" transform="matrix(1 0 0 1 39 425 )" />
  </g>
</svg>