<?xml version="1.0" encoding="utf-8"?>
<svg version="1.1" xmlns:xlink="http://www.w3.org/1999/xlink" width="29px" height="22px" xmlns="http://www.w3.org/2000/svg">
  <g transform="matrix(1 0 0 1 -170 -662 )">
    <path d="M 9.75027901785714 7.87044270833333  C 10.1548549107143 8.228515625  10.3571428571429 8.66059027777778  10.3571428571429 9.16666666666667  C 10.3571428571429 9.67274305555555  10.1548549107143 10.1048177083333  9.75027901785714 10.462890625  C 9.345703125 10.8209635416667  8.85751488095238 11  8.28571428571428 11  C 7.71391369047619 11  7.22572544642857 10.8209635416667  6.82114955357143 10.462890625  C 6.41657366071429 10.1048177083333  6.21428571428571 9.67274305555555  6.21428571428571 9.16666666666667  C 6.21428571428571 8.66059027777778  6.41657366071429 8.228515625  6.82114955357143 7.87044270833333  C 7.22572544642857 7.51236979166667  7.71391369047619 7.33333333333333  8.28571428571428 7.33333333333333  C 8.85751488095238 7.33333333333333  9.345703125 7.51236979166667  9.75027901785714 7.87044270833333  Z M 15.9645647321429 7.87044270833333  C 16.369140625 8.228515625  16.5714285714286 8.66059027777778  16.5714285714286 9.16666666666667  C 16.5714285714286 9.67274305555555  16.369140625 10.1048177083333  15.9645647321429 10.462890625  C 15.5599888392857 10.8209635416667  15.0718005952381 11  14.5 11  C 13.9281994047619 11  13.4400111607143 10.8209635416667  13.0354352678571 10.462890625  C 12.630859375 10.1048177083333  12.4285714285714 9.67274305555555  12.4285714285714 9.16666666666667  C 12.4285714285714 8.66059027777778  12.630859375 8.228515625  13.0354352678571 7.87044270833333  C 13.4400111607143 7.51236979166667  13.9281994047619 7.33333333333333  14.5 7.33333333333333  C 15.0718005952381 7.33333333333333  15.5599888392857 7.51236979166667  15.9645647321429 7.87044270833333  Z M 22.1788504464286 7.87044270833333  C 22.5834263392857 8.228515625  22.7857142857143 8.66059027777778  22.7857142857143 9.16666666666667  C 22.7857142857143 9.67274305555555  22.5834263392857 10.1048177083333  22.1788504464286 10.462890625  C 21.7742745535714 10.8209635416667  21.2860863095238 11  20.7142857142857 11  C 20.1424851190476 11  19.654296875 10.8209635416667  19.2497209821429 10.462890625  C 18.8451450892857 10.1048177083333  18.6428571428571 9.67274305555555  18.6428571428571 9.16666666666667  C 18.6428571428571 8.66059027777778  18.8451450892857 8.228515625  19.2497209821429 7.87044270833333  C 19.654296875 7.51236979166667  20.1424851190476 7.33333333333333  20.7142857142857 7.33333333333333  C 21.2860863095238 7.33333333333333  21.7742745535714 7.51236979166667  22.1788504464286 7.87044270833333  Z M 20.673828125 2.82877604166667  C 18.7588355654762 2.16514756944444  16.7008928571429 1.83333333333333  14.5 1.83333333333333  C 12.2991071428571 1.83333333333333  10.2411644345238 2.16514756944444  8.326171875 2.82877604166667  C 6.41117931547619 3.49240451388889  4.88997395833333 4.38758680555555  3.76255580357143 5.51432291666667  C 2.63513764880952 6.64105902777778  2.07142857142857 7.85850694444444  2.07142857142857 9.16666666666667  C 2.07142857142857 10.2361111111111  2.45712425595238 11.2554253472222  3.228515625 12.224609375  C 3.99990699404762 13.1937934027778  5.08686755952381 14.0316840277778  6.48939732142857 14.73828125  L 7.89732142857143 15.4544270833333  L 7.46037946428571 16.8294270833333  C 7.20145089285714 17.6983506944444  6.82384672619048 18.51953125  6.32756696428571 19.29296875  C 7.96744791666667 18.69140625  9.45089285714286 17.875  10.7779017857143 16.84375  L 11.4737723214286 16.2994791666667  L 12.3962053571429 16.3854166666667  C 13.140625 16.4618055555556  13.8418898809524 16.5  14.5 16.5  C 16.7008928571429 16.5  18.7588355654762 16.1681857638889  20.673828125 15.5045572916667  C 22.5888206845238 14.8409288194444  24.1100260416667 13.9457465277778  25.2374441964286 12.8190104166667  C 26.3648623511905 11.6922743055556  26.9285714285714 10.4748263888889  26.9285714285714 9.16666666666667  C 26.9285714285714 7.85850694444444  26.3648623511905 6.64105902777778  25.2374441964286 5.51432291666667  C 24.1100260416667 4.38758680555555  22.5888206845238 3.49240451388889  20.673828125 2.82877604166667  Z M 27.8510044642857 5.607421875  C 28.6170014880952 6.73893229166667  29 7.92534722222222  29 9.16666666666667  C 29 10.828125  28.3526785714286 12.3630642361111  27.0580357142857 13.771484375  C 25.7633928571429 15.1799045138889  24.0048363095238 16.2923177083333  21.7823660714286 17.1087239583333  C 19.5598958333333 17.9251302083333  17.1324404761905 18.3333333333333  14.5 18.3333333333333  C 13.7447916666667 18.3333333333333  12.9626116071429 18.2951388888889  12.1534598214286 18.21875  C 10.0172991071429 19.8897569444444  7.53590029761905 21.0451388888889  4.70926339285714 21.6848958333333  C 4.18061755952381 21.8185763888889  3.56566220238095 21.9236111111111  2.86439732142857 22  L 2.78348214285714 22  C 2.62165178571429 22  2.47600446428571 21.9498697916667  2.34654017857143 21.849609375  C 2.21707589285714 21.7493489583333  2.13076636904762 21.6180555555556  2.08761160714286 21.4557291666667  L 2.08761160714286 21.44140625  C 2.05524553571429 21.4032118055556  2.05254836309524 21.3459201388889  2.07952008928571 21.26953125  C 2.10649181547619 21.1931423611111  2.11728050595238 21.1453993055556  2.11188616071429 21.1263020833333  C 2.10649181547619 21.1072048611111  2.13076636904762 21.0618489583333  2.18470982142857 20.990234375  L 2.28180803571429 20.861328125  C 2.28180803571429 20.861328125  2.31956845238095 20.8207465277778  2.39508928571429 20.7395833333333  C 2.47061011904762 20.6584201388889  2.51376488095238 20.6154513888889  2.52455357142857 20.6106770833333  C 2.60007440476191 20.5342881944444  2.76729910714286 20.3695746527778  3.02622767857143 20.1165364583333  C 3.28515625 19.8634982638889  3.47126116071429 19.6820746527778  3.58454241071429 19.572265625  C 3.69782366071429 19.4624565972222  3.86504836309524 19.2738715277778  4.08621651785714 19.0065104166667  C 4.30738467261905 18.7391493055556  4.48270089285714 18.4956597222222  4.61216517857143 18.2760416666667  C 4.74162946428571 18.0564236111111  4.88727678571429 17.7747395833333  5.04910714285714 17.4309895833333  C 5.2109375 17.0872395833333  5.35119047619048 16.7243923611111  5.46986607142857 16.3424479166667  C 3.77604166666667 15.4926215277778  2.4409412202381 14.4422743055556  1.46456473214286 13.19140625  C 0.488188244047619 11.9405381944444  0 10.5989583333333  0 9.16666666666667  C 0 7.92534722222222  0.382998511904762 6.73893229166667  1.14899553571429 5.607421875  C 1.91499255952381 4.47591145833333  2.9453125 3.49956597222222  4.23995535714286 2.67838541666667  C 5.53459821428571 1.85720486111111  7.07738095238095 1.20551215277777  8.86830357142857 0.723307291666666  C 10.6592261904762 0.241102430555554  12.5364583333333 0  14.5 0  C 16.4635416666667 0  18.3407738095238 0.241102430555554  20.1316964285714 0.723307291666666  C 21.9226190476191 1.20551215277777  23.4654017857143 1.85720486111111  24.7600446428571 2.67838541666667  C 26.0546875 3.49956597222222  27.0850074404762 4.47591145833333  27.8510044642857 5.607421875  Z " fill-rule="nonzero" fill="#575757" stroke="none" transform="matrix(1 0 0 1 170 662 )" />
  </g>
</svg>