<?xml version="1.0" encoding="utf-8"?>
<svg version="1.1" xmlns:xlink="http://www.w3.org/1999/xlink" width="21px" height="20px" xmlns="http://www.w3.org/2000/svg">
  <g transform="matrix(1 0 0 1 -54 -662 )">
    <path d="M 3.240234375 16.6947115384615  C 3.41341145833333 16.5424679487179  3.5 16.3621794871795  3.5 16.1538461538462  C 3.5 15.9455128205128  3.41341145833333 15.7652243589744  3.240234375 15.6129807692308  C 3.06705729166667 15.4607371794872  2.86197916666667 15.3846153846154  2.625 15.3846153846154  C 2.38802083333333 15.3846153846154  2.18294270833333 15.4607371794872  2.009765625 15.6129807692308  C 1.83658854166667 15.7652243589744  1.75 15.9455128205128  1.75 16.1538461538462  C 1.75 16.3621794871795  1.83658854166667 16.5424679487179  2.009765625 16.6947115384615  C 2.18294270833333 16.8469551282051  2.38802083333333 16.9230769230769  2.625 16.9230769230769  C 2.86197916666667 16.9230769230769  3.06705729166667 16.8469551282051  3.240234375 16.6947115384615  Z M 18.9560546875 10.2043269230769  C 19.1520182291667 9.83573717948718  19.25 9.51121794871795  19.25 9.23076923076923  C 19.25 8.82211538461538  19.072265625 8.46354166666666  18.716796875 8.15504807692308  C 18.361328125 7.84655448717949  17.9557291666667 7.69230769230769  17.5 7.69230769230769  L 12.6875 7.69230769230769  C 12.6875 7.2275641025641  12.90625 6.58854166666667  13.34375 5.77524038461539  C 13.78125 4.9619391025641  14 4.31891025641026  14 3.84615384615385  C 14 3.06089743589743  13.8541666666667 2.47996794871795  13.5625 2.10336538461539  C 13.2708333333333 1.72676282051282  12.6875 1.53846153846154  11.8125 1.53846153846154  C 11.5755208333333 1.74679487179487  11.40234375 2.08733974358974  11.29296875 2.56009615384615  C 11.18359375 3.03285256410256  11.0445963541667 3.53565705128205  10.8759765625 4.06850961538462  C 10.7073567708333 4.60136217948718  10.4361979166667 5.0400641025641  10.0625 5.38461538461539  C 9.86197916666667 5.56891025641026  9.51106770833333 5.93349358974359  9.009765625 6.47836538461539  C 8.97330729166667 6.51842948717949  8.86848958333333 6.63862179487179  8.6953125 6.83894230769231  C 8.52213541666667 7.03926282051282  8.37858072916667 7.20352564102564  8.2646484375 7.33173076923077  C 8.15071614583333 7.4599358974359  7.99348958333333 7.63020833333333  7.79296875 7.84254807692308  C 7.59244791666667 8.05488782051282  7.41015625 8.23116987179487  7.24609375 8.37139423076923  C 7.08203125 8.51161858974359  6.90657552083333 8.65384615384615  6.7197265625 8.79807692307692  C 6.53287760416667 8.94230769230769  6.3505859375 9.05048076923077  6.1728515625 9.12259615384615  C 5.9951171875 9.19471153846154  5.83333333333333 9.23076923076923  5.6875 9.23076923076923  L 5.25 9.23076923076923  L 5.25 16.9230769230769  L 5.6875 16.9230769230769  C 5.80598958333333 16.9230769230769  5.94954427083333 16.9350961538462  6.1181640625 16.9591346153846  C 6.28678385416667 16.9831730769231  6.43717447916667 17.0092147435897  6.5693359375 17.0372596153846  C 6.70149739583333 17.0653044871795  6.87467447916667 17.109375  7.0888671875 17.1694711538462  C 7.30305989583333 17.2295673076923  7.46256510416667 17.275641025641  7.5673828125 17.3076923076923  C 7.67220052083333 17.3397435897436  7.833984375 17.3898237179487  8.052734375 17.4579326923077  C 8.271484375 17.5260416666667  8.40364583333333 17.568108974359  8.44921875 17.5841346153846  C 10.3723958333333 18.1690705128205  11.9309895833333 18.4615384615385  13.125 18.4615384615385  L 14.779296875 18.4615384615385  C 16.529296875 18.4615384615385  17.404296875 17.7924679487179  17.404296875 16.4543269230769  C 17.404296875 16.2459935897436  17.3815104166667 16.0216346153846  17.3359375 15.78125  C 17.609375 15.6530448717949  17.8258463541667 15.4427083333333  17.9853515625 15.1502403846154  C 18.1448567708333 14.8577724358974  18.224609375 14.5633012820513  18.224609375 14.2668269230769  C 18.224609375 13.9703525641026  18.142578125 13.6939102564103  17.978515625 13.4375  C 18.4615885416667 13.036858974359  18.703125 12.5600961538462  18.703125 12.0072115384615  C 18.703125 11.806891025641  18.6575520833333 11.5845352564103  18.56640625 11.3401442307692  C 18.4752604166667 11.0957532051282  18.361328125 10.9054487179487  18.224609375 10.7692307692308  C 18.5162760416667 10.7612179487179  18.7600911458333 10.5729166666667  18.9560546875 10.2043269230769  Z M 19.9609375 7.06730769230769  C 20.6536458333333 7.67628205128205  21 8.39342948717949  21 9.21875  C 21 9.93189102564102  20.7766927083333 10.5849358974359  20.330078125 11.1778846153846  C 20.412109375 11.4423076923077  20.453125 11.71875  20.453125 12.0072115384615  C 20.453125 12.6241987179487  20.2799479166667 13.2011217948718  19.93359375 13.7379807692308  C 19.9609375 13.90625  19.974609375 14.0785256410256  19.974609375 14.2548076923077  C 19.974609375 15.0641025641026  19.701171875 15.7772435897436  19.154296875 16.3942307692308  C 19.1634114583333 17.5080128205128  18.7760416666667 18.3874198717949  17.9921875 19.0324519230769  C 17.2083333333333 19.677483974359  16.173828125 20  14.888671875 20  L 14.396484375 20  L 13.125 20  C 12.25 20  11.3863932291667 19.9098557692308  10.5341796875 19.7295673076923  C 9.68196614583333 19.5492788461538  8.6953125 19.286858974359  7.57421875 18.9423076923077  C 6.51692708333333 18.6217948717949  5.88802083333333 18.4615384615385  5.6875 18.4615384615385  L 1.75 18.4615384615385  C 1.26692708333333 18.4615384615385  0.8544921875 18.3112980769231  0.5126953125 18.0108173076923  C 0.1708984375 17.7103365384615  0 17.3477564102564  0 16.9230769230769  L 0 9.23076923076923  C 0 8.80608974358974  0.1708984375 8.44350961538462  0.5126953125 8.14302884615385  C 0.8544921875 7.84254807692308  1.26692708333333 7.69230769230769  1.75 7.69230769230769  L 5.49609375 7.69230769230769  C 5.82421875 7.5  6.44856770833333 6.87900641025641  7.369140625 5.82932692307692  C 7.89778645833333 5.22836538461539  8.38541666666667 4.71554487179487  8.83203125 4.29086538461539  C 9.05078125 4.09054487179487  9.21256510416667 3.74799679487179  9.3173828125 3.26322115384615  C 9.42220052083333 2.77844551282051  9.56119791666667 2.27163461538461  9.734375 1.74278846153846  C 9.90755208333333 1.21394230769231  10.1901041666667 0.78125  10.58203125 0.444711538461537  C 10.9375 0.148237179487181  11.34765625 0  11.8125 0  C 12.578125 0  13.2662760416667 0.130208333333335  13.876953125 0.390625  C 14.4876302083333 0.651041666666665  14.9524739583333 1.05769230769231  15.271484375 1.61057692307692  C 15.5904947916667 2.16346153846154  15.75 2.90865384615385  15.75 3.84615384615385  C 15.75 4.59134615384615  15.53125 5.36057692307692  15.09375 6.15384615384615  L 17.5 6.15384615384615  C 18.4479166666667 6.15384615384615  19.2682291666667 6.45833333333333  19.9609375 7.06730769230769  Z " fill-rule="nonzero" fill="#333333" stroke="none" transform="matrix(1 0 0 1 54 662 )" />
  </g>
</svg>