<?xml version="1.0" encoding="utf-8"?>
<svg version="1.1" xmlns:xlink="http://www.w3.org/1999/xlink" width="16px" height="22px" xmlns="http://www.w3.org/2000/svg">
  <g transform="matrix(1 0 0 1 -25 -52 )">
    <path d="M 15.7250859106529 1.32264529058116  C 15.9083619702176 1.46960587842351  16 1.63861055444221  16 1.82965931863728  C 16 2.02070808283233  15.9083619702176 2.18971275885103  15.7250859106529 2.33667334669339  L 4.92096219931272 11  L 15.7250859106529 19.6633266533066  C 15.9083619702176 19.810287241149  16 19.9792919171677  16 20.1703406813627  C 16 20.3613894455578  15.9083619702176 20.5303941215765  15.7250859106529 20.6773547094188  L 14.3505154639175 21.7795591182365  C 14.1672394043528 21.9265197060788  13.9564719358534 22  13.7182130584192 22  C 13.4799541809851 22  13.2691867124857 21.9265197060788  13.085910652921 21.7795591182365  L 0.274914089347079 11.5070140280561  C 0.0916380297823597 11.3600534402138  0 11.1910487641951  0 11  C 0 10.8089512358049  0.0916380297823597 10.6399465597862  0.274914089347079 10.4929859719439  L 13.085910652921 0.220440881763527  C 13.2691867124857 0.0734802939211749  13.4799541809851 0  13.7182130584192 0  C 13.9564719358534 0  14.1672394043528 0.0734802939211749  14.3505154639175 0.220440881763527  L 15.7250859106529 1.32264529058116  Z " fill-rule="nonzero" fill="#000000" stroke="none" transform="matrix(1 0 0 1 25 52 )" />
  </g>
</svg>