<?xml version="1.0" encoding="utf-8"?>
<svg version="1.1" xmlns:xlink="http://www.w3.org/1999/xlink" width="23px" height="13px" xmlns="http://www.w3.org/2000/svg">
  <g transform="matrix(1 0 0 1 -28 -61 )">
    <path d="M 22.7695390781563 1.34020618556701  C 22.9231796927188 1.48911798396334  23 1.66036655211913  23 1.85395189003436  C 23 2.0475372279496  22.9231796927188 2.21878579610538  22.7695390781563 2.36769759450172  L 12.0300601202405 12.7766323024055  C 11.876419505678 12.9255441008018  11.6997327989312 13  11.5 13  C 11.3002672010688 13  11.123580494322 12.9255441008018  10.9699398797595 12.7766323024055  L 0.230460921843687 2.36769759450172  C 0.0768203072812294 2.21878579610538  0 2.0475372279496  0 1.85395189003436  C 0 1.66036655211913  0.0768203072812294 1.48911798396334  0.230460921843687 1.34020618556701  L 1.38276553106212 0.223367697594502  C 1.53640614562458 0.0744558991981655  1.71309285237141 0  1.91282565130261 0  C 2.1125584502338 0  2.28924515698063 0.0744558991981655  2.44288577154309 0.223367697594502  L 11.5 9.00171821305842  L 20.5571142284569 0.223367697594502  C 20.7107548430194 0.0744558991981655  20.8874415497662 0  21.0871743486974 0  C 21.2869071476286 0  21.4635938543754 0.0744558991981655  21.6172344689379 0.223367697594502  L 22.7695390781563 1.34020618556701  Z " fill-rule="nonzero" fill="#000000" stroke="none" transform="matrix(1 0 0 1 28 61 )" />
  </g>
</svg>