<?xml version="1.0" encoding="utf-8"?>
<svg version="1.1" xmlns:xlink="http://www.w3.org/1999/xlink" width="250px" height="250px" xmlns="http://www.w3.org/2000/svg">
  <g transform="matrix(1 0 0 1 -52 -165 )">
    <path d="M 169.43359375 48.33984375  C 155.870225694444 40.4188368055556  141.059027777778 36.4583333333333  125 36.4583333333333  C 108.940972222222 36.4583333333333  94.1297743055556 40.4188368055556  80.56640625 48.33984375  C 67.0030381944444 56.2608506944444  56.2608506944445 67.0030381944444  48.33984375 80.56640625  C 40.4188368055556 94.1297743055556  36.4583333333333 108.940972222222  36.4583333333333 125  C 36.4583333333333 141.059027777778  40.4188368055556 155.870225694444  48.33984375 169.43359375  C 56.2608506944445 182.996961805556  67.0030381944444 193.739149305556  80.56640625 201.66015625  C 94.1297743055556 209.581163194444  108.940972222222 213.541666666667  125 213.541666666667  C 141.059027777778 213.541666666667  155.870225694444 209.581163194444  169.43359375 201.66015625  C 182.996961805556 193.739149305556  193.739149305556 182.996961805556  201.66015625 169.43359375  C 209.581163194444 155.870225694444  213.541666666667 141.059027777778  213.541666666667 125  C 213.541666666667 108.940972222222  209.581163194444 94.1297743055556  201.66015625 80.56640625  C 193.739149305556 67.0030381944444  182.996961805556 56.2608506944444  169.43359375 48.33984375  Z M 233.235677083333 62.255859375  C 244.411892361111 81.4073350694444  250 102.322048611111  250 125  C 250 147.677951388889  244.411892361111 168.592664930556  233.235677083333 187.744140625  C 222.059461805556 206.895616319444  206.895616319444 222.059461805556  187.744140625 233.235677083333  C 168.592664930556 244.411892361111  147.677951388889 250  125 250  C 102.322048611111 250  81.4073350694444 244.411892361111  62.255859375 233.235677083333  C 43.1043836805556 222.059461805556  27.9405381944444 206.895616319444  16.7643229166667 187.744140625  C 5.58810763888889 168.592664930556  0 147.677951388889  0 125  C 0 102.322048611111  5.58810763888889 81.4073350694444  16.7643229166667 62.255859375  C 27.9405381944444 43.1043836805556  43.1043836805556 27.9405381944444  62.255859375 16.7643229166667  C 81.4073350694444 5.58810763888887  102.322048611111 0  125 0  C 147.677951388889 0  168.592664930556 5.58810763888887  187.744140625 16.7643229166667  C 206.895616319444 27.9405381944444  222.059461805556 43.1043836805556  233.235677083333 62.255859375  Z " fill-rule="nonzero" fill="#000000" stroke="none" transform="matrix(1 0 0 1 52 165 )" />
  </g>
</svg>