<?xml version="1.0" encoding="utf-8"?>
<svg version="1.1" xmlns:xlink="http://www.w3.org/1999/xlink" width="27px" height="20px" xmlns="http://www.w3.org/2000/svg">
  <g transform="matrix(1 0 0 1 -165 -528 )">
    <path d="M 21.0786830357143 11.7838541666667  C 21.1690848214286 11.8619791666667  21.2142857142857 11.9618055555556  21.2142857142857 12.0833333333333  L 21.2142857142857 16.25  C 21.2142857142857 17.2829861111111  20.7898995535714 18.1662326388889  19.9411272321429 18.8997395833333  C 19.0923549107143 19.6332465277778  18.0703125 20  16.875 20  L 4.33928571428571 20  C 3.14397321428571 20  2.12193080357143 19.6332465277778  1.27315848214286 18.8997395833333  C 0.424386160714286 18.1662326388889  0 17.2829861111111  0 16.25  L 0 5.41666666666667  C 0 4.38368055555555  0.424386160714286 3.50043402777778  1.27315848214286 2.76692708333333  C 2.12193080357143 2.03342013888889  3.14397321428571 1.66666666666667  4.33928571428571 2  L 14.9464285714286 2  C 15.0870535714286 1.66666666666667  15.2025669642857 1.70572916666667  15.29296875 1.78385416666667  C 15.3833705357143 1.86197916666667  15.4285714285714 1.96180555555555  15.4285714285714 2.08333333333333  L 15.4285714285714 2.91666666666667  C 15.4285714285714 3.03819444444444  15.3833705357143 3.13802083333333  15.29296875 3.21614583333333  C 15.2025669642857 3.29427083333333  15.0870535714286 3.33333333333333  14.9464285714286 3.33333333333333  L 4.33928571428571 3.33333333333333  C 3.67633928571429 3.33333333333333  3.10881696428571 3.53732638888889  2.63671875 3.9453125  C 2.16462053571429 4.35329861111111  1.92857142857143 4.84375  2 5.41666666666667  L 2 16.25  C 1.92857142857143 16.8229166666667  2.16462053571429 17.3133680555556  2.63671875 17.7213541666667  C 3.10881696428571 18.1293402777778  3.67633928571429 18.3333333333333  4.33928571428571 18  L 16.875 18  C 17.5379464285714 18.3333333333333  18.10546875 18.1293402777778  18.5775669642857 17.7213541666667  C 19.0496651785714 17.3133680555556  19.2857142857143 16.8229166666667  19.2857142857143 16.25  L 19.2857142857143 12.0833333333333  C 19.2857142857143 11.9618055555556  19.3309151785714 11.8619791666667  19.4213169642857 11.7838541666667  C 19.51171875 11.7057291666667  19.6272321428571 11.6666666666667  19.7678571428571 11.6666666666667  L 20.7321428571429 11.6666666666667  C 20.8727678571429 11.6666666666667  20.98828125 11.7057291666667  21.0786830357143 11.7838541666667  Z M 26.7137276785714 0.247395833333333  C 26.9045758928571 0.412326388888886  27 0.607638888888886  27 0.833333333333333  L 27 7.5  C 27 7.72569444444444  26.9045758928571 7.92100694444444  26.7137276785714 8.0859375  C 26.5228794642857 8.25086805555556  26.296875 8.33333333333333  26.0357142857143 8.33333333333333  C 25.7745535714286 8.33333333333333  25.5485491071429 8.25086805555556  25.3577008928571 8.0859375  L 22.7059151785714 5.79427083333333  L 12.8822544642857 14.2838541666667  C 12.7818080357143 14.3706597222222  12.6662946428571 14.4140625  12.5357142857143 14.4140625  C 12.4051339285714 14.4140625  12.2896205357143 14.3706597222222  12.1891741071429 14.2838541666667  L 10.4715401785714 12.7994791666667  C 10.37109375 12.7126736111111  10.3208705357143 12.6128472222222  10.3208705357143 12.5  C 10.3208705357143 12.3871527777778  10.37109375 12.2873263888889  10.4715401785714 12.2005208333333  L 20.2952008928571 3.7109375  L 17.6434151785714 1.41927083333333  C 17.4525669642857 1.25434027777778  17.3571428571429 1.05902777777778  17.3571428571429 0.833333333333333  C 17.3571428571429 0.607638888888886  17.4525669642857 0.412326388888886  17.6434151785714 0.247395833333333  C 17.8342633928571 0.082465277777779  18.0602678571429 0  18.3214285714286 0  L 26.0357142857143 0  C 26.296875 0  26.5228794642857 0.082465277777779  26.7137276785714 0.247395833333333  Z " fill-rule="nonzero" fill="#000000" stroke="none" transform="matrix(1 0 0 1 165 528 )" />
  </g>
</svg>