<?xml version="1.0" encoding="utf-8"?>
<svg version="1.1" xmlns:xlink="http://www.w3.org/1999/xlink" width="24px" height="20px" xmlns="http://www.w3.org/2000/svg">
  <g transform="matrix(1 0 0 1 -278 -528 )">
    <path d="M 18.1875 18.0859375  C 18.3701923076923 17.9210069444444  18.4615384615385 17.7256944444444  18.4615384615385 17.5  C 18.4615384615385 17.2743055555556  18.3701923076923 17.0789930555556  18.1875 16.9140625  C 18.0048076923077 16.7491319444444  17.7884615384615 16.6666666666667  17.5384615384615 16.6666666666667  C 17.2884615384615 16.6666666666667  17.0721153846154 16.7491319444444  16.8894230769231 16.9140625  C 16.7067307692308 17.0789930555556  16.6153846153846 17.2743055555556  16.6153846153846 17.5  C 16.6153846153846 17.7256944444444  16.7067307692308 17.9210069444444  16.8894230769231 18.0859375  C 17.0721153846154 18.2508680555556  17.2884615384615 18.3333333333333  17.5384615384615 18.3333333333333  C 17.7884615384615 18.3333333333333  18.0048076923077 18.2508680555556  18.1875 18.0859375  Z M 21.8798076923077 18.0859375  C 22.0625 17.9210069444444  22.1538461538462 17.7256944444444  22.1538461538462 17.5  C 22.1538461538462 17.2743055555556  22.0625 17.0789930555556  21.8798076923077 16.9140625  C 21.6971153846154 16.7491319444444  21.4807692307692 16.6666666666667  21.2307692307692 16.6666666666667  C 20.9807692307692 16.6666666666667  20.7644230769231 16.7491319444444  20.5817307692308 16.9140625  C 20.3990384615385 17.0789930555556  20.3076923076923 17.2743055555556  20.3076923076923 17.5  C 20.3076923076923 17.7256944444444  20.3990384615385 17.9210069444444  20.5817307692308 18.0859375  C 20.7644230769231 18.2508680555556  20.9807692307692 18.3333333333333  21.2307692307692 18.3333333333333  C 21.4807692307692 18.3333333333333  21.6971153846154 18.2508680555556  21.8798076923077 18.0859375  Z M 23.5961538461538 13.6979166666667  C 23.8653846153846 13.9409722222222  24 14.2361111111111  24 14.5833333333333  L 24 18.75  C 24 19.0972222222222  23.8653846153846 19.3923611111111  23.5961538461538 19.6354166666667  C 23.3269230769231 19.8784722222222  23 20  22.6153846153846 20  L 1.38461538461538 20  C 1 20  0.673076923076923 19.8784722222222  0.403846153846154 19.6354166666667  C 0.134615384615385 19.3923611111111  0 19.0972222222222  0 18.75  L 0 14.5833333333333  C 0 14.2361111111111  0.134615384615385 13.9409722222222  0.403846153846154 13.6979166666667  C 0.673076923076923 13.4548611111111  1 13.3333333333333  1.38461538461538 13.3333333333333  L 8.09134615384615 13.3333333333333  L 10.0384615384615 15.1041666666667  C 10.5961538461538 15.5902777777778  11.25 15.8333333333333  12 15.8333333333333  C 12.75 15.8333333333333  13.4038461538462 15.5902777777778  13.9615384615385 15.1041666666667  L 15.9230769230769 13.3333333333333  L 22.6153846153846 13.3333333333333  C 23 13.3333333333333  23.3269230769231 13.4548611111111  23.5961538461538 13.6979166666667  Z M 18.4615384615385 6.66666666666667  C 18.8653846153846 6.66666666666667  19.1490384615385 6.8359375  19.3125 7.17447916666667  C 19.4759615384615 7.53038194444444  19.4086538461538 7.83420138888889  19.1105769230769 8.0859375  L 12.6490384615385 13.9192708333333  C 12.4759615384615 14.0842013888889  12.2596153846154 14.1666666666667  12 14.1666666666667  C 11.7403846153846 14.1666666666667  11.5240384615385 14.0842013888889  11.3509615384615 13.9192708333333  L 4.88942307692308 8.0859375  C 4.59134615384615 7.83420138888889  4.52403846153846 7.53038194444444  4.6875 7.17447916666667  C 4.85096153846154 6.8359375  5.13461538461538 6.66666666666667  5.53846153846154 6.66666666666667  L 9.23076923076923 6.66666666666667  L 9.23076923076923 0.833333333333333  C 9.23076923076923 0.607638888888886  9.32211538461539 0.412326388888886  9.50480769230769 0.247395833333333  C 9.6875 0.082465277777779  9.90384615384616 0  10.1538461538462 0  L 13.8461538461538 0  C 14.0961538461538 0  14.3125 0.082465277777779  14.4951923076923 0.247395833333333  C 14.6778846153846 0.412326388888886  14.7692307692308 0.607638888888886  14.7692307692308 0.833333333333333  L 14.7692307692308 6.66666666666667  L 18.4615384615385 6.66666666666667  Z " fill-rule="nonzero" fill="#000000" stroke="none" transform="matrix(1 0 0 1 278 528 )" />
  </g>
</svg>