<?xml version="1.0" encoding="utf-8"?>
<svg version="1.1" xmlns:xlink="http://www.w3.org/1999/xlink" width="19px" height="20px" xmlns="http://www.w3.org/2000/svg">
  <g transform="matrix(1 0 0 1 -112 -690 )">
    <path d="M 4.9912109375 9.41558441558442  L 18.1650390625 0.194805194805194  C 18.4000651041667 0.0303030303030294  18.5979817708333 -0.0259740259740271  18.7587890625 0.0259740259740249  C 18.9195963541667 0.0779220779220768  19 0.216450216450215  19 0.441558441558441  L 19 19.5584415584416  C 19 19.7835497835498  18.9195963541667 19.9220779220779  18.7587890625 19.974025974026  C 18.5979817708333 20.025974025974  18.4000651041667 19.969696969697  18.1650390625 19.8051948051948  L 4.9912109375 10.5844155844156  C 4.8798828125 10.5064935064935  4.79947916666667 10.4242424242424  4.75 10.3376623376623  L 4.75 19.1428571428571  C 4.75 19.3679653679654  4.63248697916667 19.5627705627706  4.3974609375 19.7272727272727  C 4.16243489583333 19.8917748917749  3.88411458333333 19.974025974026  3.5625 19.974025974026  L 1.1875 19.974025974026  C 0.865885416666667 19.974025974026  0.587565104166667 19.8917748917749  0.3525390625 19.7272727272727  C 0.117513020833333 19.5627705627706  0 19.3679653679654  0 19.1428571428571  L 0 0.857142857142856  C 0 0.63203463203463  0.117513020833333 0.437229437229436  0.3525390625 0.272727272727273  C 0.587565104166667 0.108225108225106  0.865885416666667 0.0259740259740249  1.1875 0.0259740259740249  L 3.5625 0.0259740259740249  C 3.88411458333333 0.0259740259740249  4.16243489583333 0.108225108225106  4.3974609375 0.272727272727273  C 4.63248697916667 0.437229437229436  4.75 0.63203463203463  4.75 0.857142857142856  L 4.75 9.66233766233766  C 4.79947916666667 9.57575757575757  4.8798828125 9.49350649350649  4.9912109375 9.41558441558442  Z " fill-rule="nonzero" fill="#7f7f7f" stroke="none" transform="matrix(1 0 0 1 112 690 )" />
  </g>
</svg>