<?xml version="1.0" encoding="utf-8"?>
<svg version="1.1" xmlns:xlink="http://www.w3.org/1999/xlink" width="19px" height="20px" xmlns="http://www.w3.org/2000/svg">
  <g transform="matrix(1 0 0 1 -245 -690 )">
    <path d="M 14.0087890625 10.5844155844156  L 0.8349609375 19.8051948051948  C 0.599934895833343 19.969696969697  0.402018229166657 20.0259740259741  0.2412109375 19.9740259740259  C 0.0804036458333428 19.922077922078  0 19.7835497835498  0 19.5584415584416  L 0 0.441558441558414  C 0 0.216450216450198  0.0804036458333428 0.0779220779220395  0.2412109375 0.0259740259740511  C 0.402018229166657 -0.0259740259740511  0.599934895833343 0.0303030303030027  0.8349609375 0.194805194805213  L 8.20340637734222 5.35221334955463  L 14.0087890625 9.41558441558436  C 14.1201171875 9.49350649350652  14.2005208333333 9.57575757575762  14.25 9.66233766233768  L 14.25 0.85714285714289  C 14.25 0.632034632034674  14.3675130208333 0.437229437229462  14.6025390625 0.272727272727252  C 14.8375651041667 0.108225108225156  15.1158854166667 0.0259740259740511  15.4375 0.0259740259740511  L 17.8125 0.0259740259740511  C 18.1341145833333 0.0259740259740511  18.4124348958333 0.108225108225156  18.6474609375 0.272727272727252  C 18.8824869791667 0.437229437229462  19 0.632034632034674  19 0.85714285714289  L 19 19.1428571428571  C 19 19.3679653679653  18.8824869791667 19.5627705627705  18.6474609375 19.7272727272727  C 18.4124348958333 19.8917748917748  18.1341145833333 19.9740259740259  17.8125 19.9740259740259  L 15.4375 19.9740259740259  C 15.1158854166667 19.9740259740259  14.8375651041667 19.8917748917748  14.6025390625 19.7272727272727  C 14.3675130208333 19.5627705627705  14.25 19.3679653679653  14.25 19.1428571428571  L 14.25 10.3376623376623  C 14.2005208333333 10.4242424242424  14.1201171875 10.5064935064935  14.0087890625 10.5844155844156  Z " fill-rule="nonzero" fill="#7f7f7f" stroke="none" transform="matrix(1 0 0 1 245 690 )" />
  </g>
</svg>