<?xml version="1.0" encoding="utf-8"?>
<svg version="1.1" xmlns:xlink="http://www.w3.org/1999/xlink" width="25px" height="23px" xmlns="http://www.w3.org/2000/svg">
  <g transform="matrix(1 0 0 1 -22 -78 )">
    <path d="M 11.2530048076923 1.9732770745429  C 11.4433092948718 2.17815283638068  11.5384615384615 2.42076887013596  12 2.70112517580872  L 12 20.2988748241913  C 11.5384615384615 20.579231129864  11.4433092948718 20.8218471636193  11.2530048076923 21.0267229254571  C 11.0627003205128 21.2315986872949  10.8373397435897 21.3340365682138  10.5769230769231 21.3340365682138  C 10.3165064102564 21.3340365682138  10.0911458333333 21.2315986872949  9.90084134615385 21.0267229254571  L 4.89783653846154 15.64064697609  L 0.961538461538462 15.64064697609  C 0.701121794871795 15.64064697609  0.475761217948718 15.5382090951711  0.285456730769231 15.3333333333333  C 0.0951522435897436 15.1284575714955  0 14.8858415377403  0 14.6054852320675  L 0 8.39451476793249  C 0 8.11415846225973  0.0951522435897436 7.87154242850445  0.285456730769231 7.66666666666667  C 0.475761217948718 7.46179090482888  0.701121794871795 7.35935302390999  0.961538461538462 7.35935302390999  L 4.89783653846154 7.35935302390999  L 9.90084134615385 1.9732770745429  C 10.0911458333333 1.76840131270511  10.3165064102564 1.66596343178622  10.5769230769231 1.66596343178622  C 10.8373397435897 1.66596343178622  11.0627003205128 1.76840131270511  11.2530048076923 1.9732770745429  Z M 16.6691706730769 9.20323488045007  C 17.0948517628205 9.91490857946554  17.3076923076923 10.6804969526488  17.3076923076923 11.5  C 17.3076923076923 12.3195030473511  17.0948517628205 13.0823956868261  16.6691706730769 13.7886779184248  C 16.2434895833333 14.4949601500234  15.6800881410256 14.9990623534927  14.9789663461538 15.3009845288326  C 14.8788060897436 15.3548992030005  14.7536057692308 15.3818565400844  14.6033653846154 15.3818565400844  C 14.3429487179487 15.3818565400844  14.1175881410256 15.2821143928739  13.9272836538462 15.0826300984529  C 13.7369791666667 14.8831458040319  13.6418269230769 14.6378340365682  13.6418269230769 14.3466947960619  C 13.6418269230769 14.120253164557  13.7019230769231 13.9288560712611  13.8221153846154 13.7725035161744  C 13.9423076923077 13.6161509610877  14.0875400641026 13.4813642756681  14.2578125 13.3681434599156  C 14.4280849358974 13.2549226441632  14.5983573717949 13.1309188935771  14.7686298076923 12.9961322081575  C 14.9389022435897 12.8613455227379  15.0841346153846 12.6672526957337  15.2043269230769 12.4138537271449  C 15.3245192307692 12.160454758556  15.3846153846154 11.8558368495077  15.3846153846154 11.5  C 15.3846153846154 11.1441631504923  15.3245192307692 10.839545241444  15.2043269230769 10.5861462728551  C 15.0841346153846 10.3327473042663  14.9389022435897 10.1386544772621  14.7686298076923 10.0038677918425  C 14.5983573717949 9.86908110642288  14.4280849358974 9.74507735583685  14.2578125 9.63185654008439  C 14.0875400641026 9.51863572433193  13.9423076923077 9.38384903891233  13.8221153846154 9.2274964838256  C 13.7019230769231 9.07114392873886  13.6418269230769 8.87974683544304  13.6418269230769 8.65330520393812  C 13.6418269230769 8.36216596343179  13.7369791666667 8.11685419596812  13.9272836538462 7.91736990154712  C 14.1175881410256 7.71788560712611  14.3429487179487 7.61814345991561  14.6033653846154 7.61814345991561  C 14.7536057692308 7.61814345991561  14.8788060897436 7.64510079699953  14.9789663461538 7.69901547116737  C 15.6800881410256 7.9901547116737  16.2434895833333 8.4915611814346  16.6691706730769 9.20323488045007  Z M 19.8768028846154 6.93073136427567  C 20.7281650641026 8.32712142522269  21.1538461538462 9.85021097046413  21.1538461538462 11.5  C 21.1538461538462 13.1497890295359  20.7281650641026 14.6728785747773  19.8768028846154 16.0692686357243  C 19.0254407051282 17.4656586966714  17.8986378205128 18.4819503047351  16.4963942307692 19.1181434599156  C 16.3661858974359 19.1720581340835  16.2409855769231 19.1990154711674  16.1207932692308 19.1990154711674  C 15.8503605769231 19.1990154711674  15.6199919871795 19.0965775902485  15.4296875 18.8917018284107  C 15.2393830128205 18.6868260665729  15.1442307692308 18.4442100328176  15.1442307692308 18.1638537271449  C 15.1442307692308 17.7433192686357  15.3395432692308 17.4252226910455  15.7301682692308 17.2095639943741  C 16.2910657051282 16.8968588842007  16.6716746794872 16.6596343178622  16.8719951923077 16.4978902953587  C 17.6131810897436 15.915611814346  18.1916065705128 15.1850679793718  18.6072716346154 14.306258790436  C 19.0229366987179 13.4274496015002  19.2307692307692 12.4920300046882  19.2307692307692 11.5  C 19.2307692307692 10.5079699953118  19.0229366987179 9.57255039849976  18.6072716346154 8.69374120956399  C 18.1916065705128 7.81493202062822  17.6131810897436 7.08438818565401  16.8719951923077 6.50210970464135  C 16.6716746794872 6.34036568213783  16.2910657051282 6.10314111579934  15.7301682692308 5.79043600562588  C 15.3395432692308 5.57477730895452  15.1442307692308 5.25668073136428  15.1442307692308 4.83614627285513  C 15.1442307692308 4.55578996718237  15.2393830128205 4.3131739334271  15.4296875 4.10829817158931  C 15.6199919871795 3.90342240975152  15.8453525641026 3.80098452883263  16.1057692307692 3.80098452883263  C 16.2359775641026 3.80098452883263  16.3661858974359 3.82794186591655  16.4963942307692 3.88185654008439  C 17.8986378205128 4.51804969526488  19.0254407051282 5.53434130332864  19.8768028846154 6.93073136427567  Z M 23.0919471153846 4.66631504922644  C 24.3639823717949 6.74203000468823  25 9.01992498827942  25 11.5  C 25 13.9800750117206  24.3639823717949 16.2579699953118  23.0919471153846 18.3336849507736  C 21.8199118589744 20.4093999062354  20.127203525641 21.9378809188936  18.0138221153846 22.9191279887482  C 17.8836137820513 22.9730426629161  17.7534054487179 23  17.6231971153846 23  C 17.3627804487179 23  17.1374198717949 22.8975621190811  16.9471153846154 22.6926863572433  C 16.7568108974359 22.4878105954055  16.6616586538462 22.2451945616503  16.6616586538462 21.9648382559775  C 16.6616586538462 21.5766526019691  16.8569711538462 21.2585560243788  17.2475961538462 21.0105485232068  C 17.3177083333333 20.9674167838725  17.4303886217949 20.9108063759962  17.5856370192308 20.8407172995781  C 17.7408854166667 20.7706282231599  17.8535657051282 20.7140178152836  17.9236778846154 20.6708860759494  C 18.3844150641026 20.4013127051102  18.7950721153846 20.1263478668542  19.1556490384615 19.8459915611814  C 20.3876201923077 18.8647444913268  21.3491586538462 17.6408813877168  22.0402644230769 16.1744022503516  C 22.7313701923077 14.7079231129864  23.0769230769231 13.1497890295359  23.0769230769231 11.5  C 23.0769230769231 9.85021097046413  22.7313701923077 8.2920768870136  22.0402644230769 6.82559774964838  C 21.3491586538462 5.35911861228317  20.3876201923077 4.13525550867323  19.1556490384615 3.15400843881857  C 18.7950721153846 2.8736521331458  18.3844150641026 2.59868729488982  17.9236778846154 2.32911392405063  C 17.8535657051282 2.28598218471636  17.7408854166667 2.22937177684013  17.5856370192308 2.15928270042194  C 17.4303886217949 2.08919362400375  17.3177083333333 2.03258321612752  17.2475961538462 1.98945147679325  C 16.8569711538462 1.74144397562119  16.6616586538462 1.42334739803094  16.6616586538462 1.0351617440225  C 16.6616586538462 0.754805438349739  16.7568108974359 0.512189404594466  16.9471153846154 0.30731364275668  C 17.1374198717949 0.102437880918893  17.3627804487179 0  17.6231971153846 0  C 17.7534054487179 0  17.8836137820513 0.0269573370839179  18.0138221153846 0.0808720112517588  C 20.127203525641 1.06211908110642  21.8199118589744 2.59060009376465  23.0919471153846 4.66631504922644  Z " fill-rule="nonzero" fill="#aaaaaa" stroke="none" transform="matrix(1 0 0 1 22 78 )" />
  </g>
</svg>