<?xml version="1.0" encoding="utf-8"?>
<svg version="1.1" xmlns:xlink="http://www.w3.org/1999/xlink" width="18px" height="21px" xmlns="http://www.w3.org/2000/svg">
  <g transform="matrix(1 0 0 1 -327 -727 )">
    <path d="M 2.77734375 17.5294471153846  C 2.92578125 17.3695913461538  3 17.1802884615385  3 16.9615384615385  C 3 16.7427884615385  2.92578125 16.5534855769231  2.77734375 16.3936298076923  C 2.62890625 16.2337740384615  2.453125 16.1538461538462  2.25 16.1538461538462  C 2.046875 16.1538461538462  1.87109375 16.2337740384615  1.72265625 16.3936298076923  C 1.57421875 16.5534855769231  1.5 16.7427884615385  1.5 16.9615384615385  C 1.5 17.1802884615385  1.57421875 17.3695913461538  1.72265625 17.5294471153846  C 1.87109375 17.6893028846154  2.046875 17.7692307692308  2.25 17.7692307692308  C 2.453125 17.7692307692308  2.62890625 17.6893028846154  2.77734375 17.5294471153846  Z M 16.248046875 10.7145432692308  C 16.416015625 10.3275240384615  16.5 9.98677884615384  16.5 9.69230769230769  C 16.5 9.26322115384615  16.34765625 8.88671875  16.04296875 8.56280048076923  C 15.73828125 8.23888221153846  15.390625 8.07692307692308  15 8.07692307692308  L 10.875 8.07692307692308  C 10.875 7.58894230769231  11.0625 6.91796875  11.4375 6.06400240384616  C 11.8125 5.21003605769231  12 4.53485576923077  12 4.03846153846154  C 12 3.21394230769231  11.875 2.60396634615384  11.625 2.20853365384615  C 11.375 1.81310096153846  10.875 1.61538461538461  10.125 1.61538461538461  C 9.921875 1.83413461538461  9.7734375 2.19170673076923  9.6796875 2.68810096153846  C 9.5859375 3.18449519230769  9.466796875 3.71243990384615  9.322265625 4.27193509615384  C 9.177734375 4.83143028846154  8.9453125 5.29206730769231  8.625 5.65384615384616  C 8.453125 5.84735576923077  8.15234375 6.23016826923077  7.72265625 6.80228365384616  C 7.69140625 6.84435096153846  7.6015625 6.97055288461538  7.453125 7.18088942307692  C 7.3046875 7.39122596153846  7.181640625 7.56370192307692  7.083984375 7.69831730769231  C 6.986328125 7.83293269230769  6.8515625 8.01171875  6.6796875 8.23467548076923  C 6.5078125 8.45763221153846  6.3515625 8.64272836538461  6.2109375 8.78996394230769  C 6.0703125 8.93719951923077  5.919921875 9.08653846153846  5.759765625 9.23798076923077  C 5.599609375 9.38942307692308  5.443359375 9.50300480769231  5.291015625 9.57872596153846  C 5.138671875 9.65444711538462  5 9.69230769230769  4.875 9.69230769230769  L 4.5 9.69230769230769  L 4.5 17.7692307692308  L 4.875 17.7692307692308  C 4.9765625 17.7692307692308  5.099609375 17.7818509615385  5.244140625 17.8070913461538  C 5.388671875 17.8323317307692  5.517578125 17.8596754807692  5.630859375 17.8891225961538  C 5.744140625 17.9185697115385  5.892578125 17.96484375  6.076171875 18.0279447115385  C 6.259765625 18.0910456730769  6.396484375 18.1394230769231  6.486328125 18.1730769230769  C 6.576171875 18.2067307692308  6.71484375 18.2593149038462  6.90234375 18.3308293269231  C 7.08984375 18.40234375  7.203125 18.4465144230769  7.2421875 18.4633413461538  C 8.890625 19.0775240384615  10.2265625 19.3846153846154  11.25 19.3846153846154  L 12.66796875 19.3846153846154  C 14.16796875 19.3846153846154  14.91796875 18.6820913461538  14.91796875 17.2770432692308  C 14.91796875 17.0582932692308  14.8984375 16.8227163461538  14.859375 16.5703125  C 15.09375 16.4356971153846  15.279296875 16.21484375  15.416015625 15.9077524038462  C 15.552734375 15.6006610576923  15.62109375 15.2914663461538  15.62109375 14.9801682692308  C 15.62109375 14.6688701923077  15.55078125 14.3786057692308  15.41015625 14.109375  C 15.82421875 13.6887019230769  16.03125 13.1881009615385  16.03125 12.6075721153846  C 16.03125 12.3972355769231  15.9921875 12.1637620192308  15.9140625 11.9071514423077  C 15.8359375 11.6505408653846  15.73828125 11.4507211538462  15.62109375 11.3076923076923  C 15.87109375 11.2992788461538  16.080078125 11.1015625  16.248046875 10.7145432692308  Z M 17.109375 7.42067307692308  C 17.703125 8.06009615384615  18 8.81310096153846  18 9.6796875  C 18 10.4284855769231  17.80859375 11.1141826923077  17.42578125 11.7367788461538  C 17.49609375 12.0144230769231  17.53125 12.3046875  17.53125 12.6075721153846  C 17.53125 13.2554086538462  17.3828125 13.8611778846154  17.0859375 14.4248798076923  C 17.109375 14.6015625  17.12109375 14.7824519230769  17.12109375 14.9675480769231  C 17.12109375 15.8173076923077  16.88671875 16.5661057692308  16.41796875 17.2139423076923  C 16.42578125 18.3834134615385  16.09375 19.3067908653846  15.421875 19.9840745192308  C 14.75 20.6613581730769  13.86328125 21  12.76171875 21  L 12.33984375 21  L 11.25 21  C 10.5 21  9.759765625 20.9053485576923  9.029296875 20.7160456730769  C 8.298828125 20.5267427884615  7.453125 20.2512019230769  6.4921875 19.8894230769231  C 5.5859375 19.5528846153846  5.046875 19.3846153846154  4.875 19.3846153846154  L 1.5 19.3846153846154  C 1.0859375 19.3846153846154  0.732421875 19.2268629807692  0.439453125 18.9113581730769  C 0.146484375 18.5958533653846  0 18.2151442307692  0 17.7692307692308  L 0 9.69230769230769  C 0 9.24639423076923  0.146484375 8.86568509615384  0.439453125 8.55018028846154  C 0.732421875 8.23467548076923  1.0859375 8.07692307692308  1.5 8.07692307692308  L 4.7109375 8.07692307692308  C 4.9921875 7.875  5.52734375 7.22295673076923  6.31640625 6.12079326923077  C 6.76953125 5.48978365384616  7.1875 4.95132211538461  7.5703125 4.50540865384616  C 7.7578125 4.29507211538461  7.896484375 3.93539663461538  7.986328125 3.42638221153846  C 8.076171875 2.91736778846154  8.1953125 2.38521634615385  8.34375 1.82992788461539  C 8.4921875 1.27463942307692  8.734375 0.8203125  9.0703125 0.466947115384614  C 9.375 0.15564903846154  9.7265625 0  10.125 0  C 10.78125 0  11.37109375 0.136718750000002  11.89453125 0.41015625  C 12.41796875 0.683593749999998  12.81640625 1.11057692307692  13.08984375 1.69110576923077  C 13.36328125 2.27163461538461  13.5 3.05408653846154  13.5 4.03846153846154  C 13.5 4.82091346153846  13.3125 5.62860576923077  12.9375 6.46153846153846  L 15 6.46153846153846  C 15.8125 6.46153846153846  16.515625 6.78125  17.109375 7.42067307692308  Z " fill-rule="nonzero" fill="#d9001b" stroke="none" transform="matrix(1 0 0 1 327 727 )" />
  </g>
</svg>