<?xml version="1.0" encoding="utf-8"?>
<svg version="1.1" xmlns:xlink="http://www.w3.org/1999/xlink" width="24px" height="27px" xmlns="http://www.w3.org/2000/svg">
  <g transform="matrix(1 0 0 1 -63 -909 )">
    <path d="M 3.703125 22.5378605769231  C 3.90104166666667 22.3323317307692  4 22.0889423076923  4 21.8076923076923  C 4 21.5264423076923  3.90104166666667 21.2830528846154  3.703125 21.0775240384615  C 3.50520833333333 20.8719951923077  3.27083333333333 20.7692307692308  3 20.7692307692308  C 2.72916666666667 20.7692307692308  2.49479166666667 20.8719951923077  2.296875 21.0775240384615  C 2.09895833333333 21.2830528846154  2 21.5264423076923  2 21.8076923076923  C 2 22.0889423076923  2.09895833333333 22.3323317307692  2.296875 22.5378605769231  C 2.49479166666667 22.7433894230769  2.72916666666667 22.8461538461538  3 22.8461538461538  C 3.27083333333333 22.8461538461538  3.50520833333333 22.7433894230769  3.703125 22.5378605769231  Z M 21.6640625 13.7758413461538  C 21.8880208333333 13.2782451923077  22 12.8401442307692  22 12.4615384615385  C 22 11.9098557692308  21.796875 11.42578125  21.390625 11.0093149038462  C 20.984375 10.5928485576923  20.5208333333333 10.3846153846154  20 10.3846153846154  L 14.5 10.3846153846154  C 14.5 9.75721153846154  14.75 8.89453125  15.25 7.79657451923077  C 15.75 6.69861778846154  16 5.83052884615384  16 5.19230769230769  C 16 4.13221153846154  15.8333333333333 3.34795673076923  15.5 2.83954326923077  C 15.1666666666667 2.33112980769231  14.5 2.07692307692308  13.5 2.07692307692308  C 13.2291666666667 2.35817307692307  13.03125 2.81790865384615  12.90625 3.45612980769231  C 12.78125 4.09435096153846  12.6223958333333 4.77313701923077  12.4296875 5.49248798076923  C 12.2369791666667 6.21183894230769  11.9270833333333 6.80408653846154  11.5 7.26923076923077  C 11.2708333333333 7.51802884615384  10.8697916666667 8.01021634615384  10.296875 8.74579326923077  C 10.2552083333333 8.79987980769231  10.1354166666667 8.96213942307692  9.9375 9.23257211538462  C 9.73958333333333 9.50300480769231  9.57552083333333 9.72475961538462  9.4453125 9.89783653846154  C 9.31510416666667 10.0709134615385  9.13541666666667 10.30078125  8.90625 10.5874399038462  C 8.67708333333333 10.8740985576923  8.46875 11.1120793269231  8.28125 11.3013822115385  C 8.09375 11.4906850961538  7.89322916666667 11.6826923076923  7.6796875 11.8774038461538  C 7.46614583333333 12.0721153846154  7.2578125 12.2181490384615  7.0546875 12.3155048076923  C 6.8515625 12.4128605769231  6.66666666666667 12.4615384615385  6.5 12.4615384615385  L 6 12.4615384615385  L 6 22.8461538461538  L 6.5 22.8461538461538  C 6.63541666666667 22.8461538461538  6.79947916666667 22.8623798076923  6.9921875 22.8948317307692  C 7.18489583333333 22.9272836538462  7.35677083333333 22.9624399038462  7.5078125 23.0003004807692  C 7.65885416666667 23.0381610576923  7.85677083333333 23.09765625  8.1015625 23.1787860576923  C 8.34635416666667 23.2599158653846  8.52864583333333 23.3221153846154  8.6484375 23.3653846153846  C 8.76822916666667 23.4086538461538  8.953125 23.4762620192308  9.203125 23.5682091346154  C 9.453125 23.66015625  9.60416666666667 23.7169471153846  9.65625 23.7385817307692  C 11.8541666666667 24.5282451923077  13.6354166666667 24.9230769230769  15 24.9230769230769  L 16.890625 24.9230769230769  C 18.890625 24.9230769230769  19.890625 24.0198317307692  19.890625 22.2133413461538  C 19.890625 21.9320913461538  19.8645833333333 21.6292067307692  19.8125 21.3046875  C 20.125 21.1316105769231  20.3723958333333 20.84765625  20.5546875 20.4528245192308  C 20.7369791666667 20.0579927884615  20.828125 19.6604567307692  20.828125 19.2602163461538  C 20.828125 18.8599759615385  20.734375 18.4867788461538  20.546875 18.140625  C 21.0989583333333 17.5997596153846  21.375 16.9561298076923  21.375 16.2097355769231  C 21.375 15.9393028846154  21.3229166666667 15.6391225961538  21.21875 15.3091947115385  C 21.1145833333333 14.9792668269231  20.984375 14.7223557692308  20.828125 14.5384615384615  C 21.1614583333333 14.5276442307692  21.4401041666667 14.2734375  21.6640625 13.7758413461538  Z M 22.8125 9.54086538461538  C 23.6041666666667 10.3629807692308  24 11.3311298076923  24 12.4453125  C 24 13.4080528846154  23.7447916666667 14.2896634615385  23.234375 15.0901442307692  C 23.328125 15.4471153846154  23.375 15.8203125  23.375 16.2097355769231  C 23.375 17.0426682692308  23.1770833333333 17.8215144230769  22.78125 18.5462740384615  C 22.8125 18.7734375  22.828125 19.0060096153846  22.828125 19.2439903846154  C 22.828125 20.3365384615385  22.515625 21.2992788461538  21.890625 22.1322115384615  C 21.9010416666667 23.6358173076923  21.4583333333333 24.8230168269231  20.5625 25.6938100961538  C 19.6666666666667 26.5646033653846  18.484375 27  17.015625 27  L 16.453125 27  L 15 27  C 14 27  13.0130208333333 26.8783052884615  12.0390625 26.6349158653846  C 11.0651041666667 26.3915264423077  9.9375 26.0372596153846  8.65625 25.5721153846154  C 7.44791666666667 25.1394230769231  6.72916666666667 24.9230769230769  6.5 24.9230769230769  L 2 24.9230769230769  C 1.44791666666667 24.9230769230769  0.9765625 24.7202524038462  0.5859375 24.3146033653846  C 0.1953125 23.9089543269231  0 23.4194711538462  0 22.8461538461538  L 0 12.4615384615385  C 0 11.8882211538462  0.1953125 11.3987379807692  0.5859375 10.9930889423077  C 0.9765625 10.5874399038462  1.44791666666667 10.3846153846154  2 10.3846153846154  L 6.28125 10.3846153846154  C 6.65625 10.125  7.36979166666667 9.28665865384615  8.421875 7.86959134615385  C 9.02604166666667 7.05829326923077  9.58333333333333 6.36598557692307  10.09375 5.79266826923077  C 10.34375 5.52223557692307  10.5286458333333 5.05979567307692  10.6484375 4.40534855769231  C 10.7682291666667 3.75090144230769  10.9270833333333 3.06670673076923  11.125 2.35276442307692  C 11.3229166666667 1.63882211538462  11.6458333333333 1.0546875  12.09375 0.600360576923076  C 12.5 0.200120192307694  12.96875 0  13.5 0  C 14.375 0  15.1614583333333 0.175781250000002  15.859375 0.52734375  C 16.5572916666667 0.878906249999998  17.0885416666667 1.42788461538462  17.453125 2.17427884615385  C 17.8177083333333 2.92067307692308  18 3.92668269230769  18 5.19230769230769  C 18 6.19831730769231  17.75 7.23677884615385  17.25 8.30769230769231  L 20 8.30769230769231  C 21.0833333333333 8.30769230769231  22.0208333333333 8.71875  22.8125 9.54086538461538  Z " fill-rule="nonzero" fill="#333333" stroke="none" transform="matrix(1 0 0 1 63 909 )" />
  </g>
</svg>