<?xml version="1.0" encoding="utf-8"?>
<svg version="1.1" xmlns:xlink="http://www.w3.org/1999/xlink" width="29px" height="28px" xmlns="http://www.w3.org/2000/svg">
  <g transform="matrix(1 0 0 1 -126 -911 )">
    <path d="M 9.75027901785714 10.0169270833333  C 10.1548549107143 10.47265625  10.3571428571429 11.0225694444444  10.3571428571429 11.6666666666667  C 10.3571428571429 12.3107638888889  10.1548549107143 12.8606770833333  9.75027901785714 13.31640625  C 9.345703125 13.7721354166667  8.85751488095238 14  8.28571428571428 14  C 7.71391369047619 14  7.22572544642857 13.7721354166667  6.82114955357143 13.31640625  C 6.41657366071429 12.8606770833333  6.21428571428571 12.3107638888889  6.21428571428571 11.6666666666667  C 6.21428571428571 11.0225694444444  6.41657366071429 10.47265625  6.82114955357143 10.0169270833333  C 7.22572544642857 9.56119791666667  7.71391369047619 9.33333333333333  8.28571428571428 9.33333333333333  C 8.85751488095238 9.33333333333333  9.345703125 9.56119791666667  9.75027901785714 10.0169270833333  Z M 15.9645647321429 10.0169270833333  C 16.369140625 10.47265625  16.5714285714286 11.0225694444444  16.5714285714286 11.6666666666667  C 16.5714285714286 12.3107638888889  16.369140625 12.8606770833333  15.9645647321429 13.31640625  C 15.5599888392857 13.7721354166667  15.0718005952381 14  14.5 14  C 13.9281994047619 14  13.4400111607143 13.7721354166667  13.0354352678571 13.31640625  C 12.630859375 12.8606770833333  12.4285714285714 12.3107638888889  12.4285714285714 11.6666666666667  C 12.4285714285714 11.0225694444444  12.630859375 10.47265625  13.0354352678571 10.0169270833333  C 13.4400111607143 9.56119791666667  13.9281994047619 9.33333333333333  14.5 9.33333333333333  C 15.0718005952381 9.33333333333333  15.5599888392857 9.56119791666667  15.9645647321429 10.0169270833333  Z M 22.1788504464286 10.0169270833333  C 22.5834263392857 10.47265625  22.7857142857143 11.0225694444444  22.7857142857143 11.6666666666667  C 22.7857142857143 12.3107638888889  22.5834263392857 12.8606770833333  22.1788504464286 13.31640625  C 21.7742745535714 13.7721354166667  21.2860863095238 14  20.7142857142857 14  C 20.1424851190476 14  19.654296875 13.7721354166667  19.2497209821429 13.31640625  C 18.8451450892857 12.8606770833333  18.6428571428571 12.3107638888889  18.6428571428571 11.6666666666667  C 18.6428571428571 11.0225694444444  18.8451450892857 10.47265625  19.2497209821429 10.0169270833333  C 19.654296875 9.56119791666667  20.1424851190476 9.33333333333333  20.7142857142857 9.33333333333333  C 21.2860863095238 9.33333333333333  21.7742745535714 9.56119791666667  22.1788504464286 10.0169270833333  Z M 20.673828125 3.60026041666667  C 18.7588355654762 2.75564236111111  16.7008928571429 2.33333333333333  14.5 2.33333333333333  C 12.2991071428571 2.33333333333333  10.2411644345238 2.75564236111111  8.326171875 3.60026041666667  C 6.41117931547619 4.44487847222222  4.88997395833333 5.58420138888889  3.76255580357143 7.01822916666667  C 2.63513764880952 8.45225694444444  2.07142857142857 10.0017361111111  2.07142857142857 11.6666666666667  C 2.07142857142857 13.0277777777778  2.45712425595238 14.3250868055556  3.228515625 15.55859375  C 3.99990699404762 16.7921006944444  5.08686755952381 17.8585069444444  6.48939732142857 18.7578125  L 7.89732142857143 19.6692708333333  L 7.46037946428571 21.4192708333333  C 7.20145089285714 22.5251736111111  6.82384672619048 23.5703125  6.32756696428571 24.5546875  C 7.96744791666667 23.7890625  9.45089285714286 22.75  10.7779017857143 21.4375  L 11.4737723214286 20.7447916666667  L 12.3962053571429 20.8541666666667  C 13.140625 20.9513888888889  13.8418898809524 21  14.5 21  C 16.7008928571429 21  18.7588355654762 20.5776909722222  20.673828125 19.7330729166667  C 22.5888206845238 18.8884548611111  24.1100260416667 17.7491319444444  25.2374441964286 16.3151041666667  C 26.3648623511905 14.8810763888889  26.9285714285714 13.3315972222222  26.9285714285714 11.6666666666667  C 26.9285714285714 10.0017361111111  26.3648623511905 8.45225694444444  25.2374441964286 7.01822916666667  C 24.1100260416667 5.58420138888889  22.5888206845238 4.44487847222222  20.673828125 3.60026041666667  Z M 27.8510044642857 7.13671875  C 28.6170014880952 8.57682291666667  29 10.0868055555556  29 11.6666666666667  C 29 13.78125  28.3526785714286 15.7348090277778  27.0580357142857 17.52734375  C 25.7633928571429 19.3198784722222  24.0048363095238 20.7356770833333  21.7823660714286 21.7747395833333  C 19.5598958333333 22.8138020833333  17.1324404761905 23.3333333333333  14.5 23.3333333333333  C 13.7447916666667 23.3333333333333  12.9626116071429 23.2847222222222  12.1534598214286 23.1875  C 10.0172991071429 25.3142361111111  7.53590029761905 26.7847222222222  4.70926339285714 27.5989583333333  C 4.18061755952381 27.7690972222222  3.56566220238095 27.9027777777778  2.86439732142857 28  L 2.78348214285714 28  C 2.62165178571429 28  2.47600446428571 27.9361979166667  2.34654017857143 27.80859375  C 2.21707589285714 27.6809895833333  2.13076636904762 27.5138888888889  2.08761160714286 27.3072916666667  L 2.08761160714286 27.2890625  C 2.05524553571429 27.2404513888889  2.05254836309524 27.1675347222222  2.07952008928571 27.0703125  C 2.10649181547619 26.9730902777778  2.11728050595238 26.9123263888889  2.11188616071429 26.8880208333333  C 2.10649181547619 26.8637152777778  2.13076636904762 26.8059895833333  2.18470982142857 26.71484375  L 2.28180803571429 26.55078125  C 2.28180803571429 26.55078125  2.31956845238095 26.4991319444444  2.39508928571429 26.3958333333333  C 2.47061011904762 26.2925347222222  2.51376488095238 26.2378472222222  2.52455357142857 26.2317708333333  C 2.60007440476191 26.1345486111111  2.76729910714286 25.9249131944444  3.02622767857143 25.6028645833333  C 3.28515625 25.2808159722222  3.47126116071429 25.0499131944444  3.58454241071429 24.91015625  C 3.69782366071429 24.7703993055556  3.86504836309524 24.5303819444444  4.08621651785714 24.1901041666667  C 4.30738467261905 23.8498263888889  4.48270089285714 23.5399305555556  4.61216517857143 23.2604166666667  C 4.74162946428571 22.9809027777778  4.88727678571429 22.6223958333333  5.04910714285714 22.1848958333333  C 5.2109375 21.7473958333333  5.35119047619048 21.2855902777778  5.46986607142857 20.7994791666667  C 3.77604166666667 19.7178819444444  2.4409412202381 18.3810763888889  1.46456473214286 16.7890625  C 0.488188244047619 15.1970486111111  0 13.4895833333333  0 11.6666666666667  C 0 10.0868055555556  0.382998511904762 8.57682291666667  1.14899553571429 7.13671875  C 1.91499255952381 5.69661458333333  2.9453125 4.45399305555555  4.23995535714286 3.40885416666667  C 5.53459821428571 2.36371527777778  7.07738095238095 1.53428819444444  8.86830357142857 0.920572916666666  C 10.6592261904762 0.306857638888888  12.5364583333333 0  14.5 0  C 16.4635416666667 0  18.3407738095238 0.306857638888888  20.1316964285714 0.920572916666666  C 21.9226190476191 1.53428819444444  23.4654017857143 2.36371527777778  24.7600446428571 3.40885416666667  C 26.0546875 4.45399305555555  27.0850074404762 5.69661458333333  27.8510044642857 7.13671875  Z " fill-rule="nonzero" fill="#575757" stroke="none" transform="matrix(1 0 0 1 126 911 )" />
  </g>
</svg>