<?xml version="1.0" encoding="utf-8"?>
<svg version="1.1" xmlns:xlink="http://www.w3.org/1999/xlink" width="33px" height="29px" xmlns="http://www.w3.org/2000/svg">
  <g transform="matrix(1 0 0 1 -190 -910 )">
    <path d="M 25.7628348214286 17.0865885416667  C 25.8733258928571 17.1998697916667  25.9285714285714 17.3446180555556  25.9285714285714 17.5208333333333  L 25.9285714285714 23.5625  C 25.9285714285714 25.0603298611111  25.4098772321429 26.3410373263889  24.3724888392857 27.4046223958333  C 23.3351004464286 28.4682074652778  22.0859375 29  20.625 29  L 5.30357142857143 29  C 3.84263392857143 29  2.59347098214286 28.4682074652778  1.55608258928571 27.4046223958333  C 0.518694196428571 26.3410373263889  0 25.0603298611111  0 23.5625  L 0 7.85416666666667  C 0 6.35633680555555  0.518694196428571 5.07562934027778  1.55608258928571 4.01204427083333  C 2.59347098214286 2.94845920138888  3.84263392857143 2.41666666666667  5.30357142857143 2.41666666666667  L 18.2678571428571 2.41666666666667  C 18.4397321428571 2.41666666666667  18.5809151785714 2.47330729166667  18.69140625 2.58658854166667  C 18.8018973214286 2.69986979166667  18.8571428571429 2.84461805555555  18.8571428571429 3.02083333333333  L 18.8571428571429 4.22916666666667  C 18.8571428571429 4.40538194444444  18.8018973214286 4.55013020833333  18.69140625 4.66341145833333  C 18.5809151785714 4.77669270833333  18.4397321428571 4.83333333333333  18.2678571428571 5  L 5.30357142857143 5  C 4.49330357142857 4.83333333333333  3.79966517857143 5.12912326388888  3.22265625 5.720703125  C 2.64564732142857 6.31228298611111  2.35714285714286 7.0234375  3 7.85416666666667  L 3 23.5625  C 2.35714285714286 24.3932291666667  2.64564732142857 25.1043836805556  3.22265625 25.6959635416667  C 3.79966517857143 26.2875434027778  4.49330357142857 26.5833333333333  5.30357142857143 26.5833333333333  L 20.625 26.5833333333333  C 21.4352678571429 26.5833333333333  22.12890625 26.2875434027778  22.7059151785714 25.6959635416667  C 23.2829241071429 25.1043836805556  23.5714285714286 24.3932291666667  23.5714285714286 23.5625  L 23.5714285714286 17.5208333333333  C 23.5714285714286 17.3446180555556  23.6266741071429 17.1998697916667  23.7371651785714 17.0865885416667  C 23.84765625 16.9733072916667  23.9888392857143 16.9166666666667  24.1607142857143 16.9166666666667  L 25.3392857142857 16.9166666666667  C 25.5111607142857 16.9166666666667  25.65234375 16.9733072916667  25.7628348214286 17.0865885416667  Z M 32.6501116071429 0.358723958333332  C 32.8833705357143 0.597873263888885  33 0.881076388888885  33 1.20833333333333  L 33 10.875  C 33 11.2022569444444  32.8833705357143 11.4854600694444  32.6501116071429 11.724609375  C 32.4168526785714 11.9637586805556  32.140625 12.0833333333333  31.8214285714286 12.0833333333333  C 31.5022321428571 12.0833333333333  31.2260044642857 11.9637586805556  30.9927455357143 11.724609375  L 27.7516741071429 8.40169270833333  L 15.7449776785714 20.7115885416667  C 15.6222098214286 20.8374565972222  15.4810267857143 20.900390625  15.3214285714286 20.900390625  C 15.1618303571429 20.900390625  15.0206473214286 20.8374565972222  14.8978794642857 20.7115885416667  L 12.7985491071429 18.5592447916667  C 12.67578125 18.4333767361111  12.6143973214286 18.2886284722222  12.6143973214286 18.125  C 12.6143973214286 17.9613715277778  12.67578125 17.8166232638889  12.7985491071429 17.6907552083333  L 24.8052455357143 5.380859375  L 21.5641741071429 2.05794270833333  C 21.3309151785714 1.81879340277778  21.2142857142857 1.53559027777778  21.2142857142857 1.20833333333333  C 21.2142857142857 0.881076388888885  21.3309151785714 0.597873263888885  21.5641741071429 0.358723958333332  C 21.7974330357143 0.11957465277778  22.0736607142857 0  22.3928571428571 0  L 31.8214285714286 0  C 32.140625 0  32.4168526785714 0.11957465277778  32.6501116071429 0.358723958333332  Z " fill-rule="nonzero" fill="#575757" stroke="none" transform="matrix(1 0 0 1 190 910 )" />
  </g>
</svg>