<?xml version="1.0" encoding="utf-8"?>
<svg version="1.1" xmlns:xlink="http://www.w3.org/1999/xlink" width="19px" height="29px" xmlns="http://www.w3.org/2000/svg">
  <defs>
    <linearGradient gradientUnits="userSpaceOnUse" x1="18.81" y1="14.5" x2="0.19" y2="14.5" id="LinearGradient158">
      <stop id="Stop159" stop-color="#ff8686" offset="0" />
      <stop id="Stop160" stop-color="#f61010" offset="1" />
    </linearGradient>
  </defs>
  <g transform="matrix(1 0 0 1 -270 -907 )">
    <path d="M 18.6866319444444 11.4849759615385  C 18.8955439814815 11.7057291666667  19 11.9671474358974  19 12.2692307692308  L 19 14.5  C 19 17.0677083333333  18.1890914351852 19.3013822115385  16.5672743055556 21.2010216346154  C 14.9454571759259 23.1006610576923  12.9415509259259 24.1899038461538  10.5555555555556 24.46875  L 10.5555555555556 26.7692307692308  L 14.7777777777778 26.7692307692308  C 15.0636574074074 26.7692307692308  15.3110532407407 26.8796073717949  15.5199652777778 27.1003605769231  C 15.7288773148148 27.3211137820513  15.8333333333333 27.5825320512821  15.8333333333333 27.8846153846154  C 15.8333333333333 28.1866987179487  15.7288773148148 28.4481169871795  15.5199652777778 28.6688701923077  C 15.3110532407407 28.8896233974359  15.0636574074074 29  14.7777777777778 29  L 4.22222222222222 29  C 3.93634259259259 29  3.68894675925926 28.8896233974359  3.48003472222222 28.6688701923077  C 3.27112268518518 28.4481169871795  3.16666666666667 28.1866987179487  3.16666666666667 27.8846153846154  C 3.16666666666667 27.5825320512821  3.27112268518518 27.3211137820513  3.48003472222222 27.1003605769231  C 3.68894675925926 26.8796073717949  3.93634259259259 26.7692307692308  4.22222222222222 26.7692307692308  L 8.44444444444444 26.7692307692308  L 8.44444444444444 24.46875  C 6.05844907407407 24.1899038461538  4.05454282407407 23.1006610576923  2.43272569444444 21.2010216346154  C 0.810908564814815 19.3013822115385  0 17.0677083333333  0 14.5  L 0 12.2692307692308  C 0 11.9671474358974  0.104456018518519 11.7057291666667  0.313368055555556 11.4849759615385  C 0.522280092592593 11.2642227564103  0.769675925925926 11.1538461538462  1.05555555555556 11.1538461538462  C 1.34143518518519 11.1538461538462  1.58883101851852 11.2642227564103  1.79774305555556 11.4849759615385  C 2.00665509259259 11.7057291666667  2.11111111111111 11.9671474358974  2.11111111111111 12.2692307692308  L 2.11111111111111 14.5  C 2.11111111111111 16.6494391025641  2.83405671296296 18.4880809294872  4.27994791666667 20.0159254807692  C 5.72583912037037 21.5437700320513  7.46585648148148 22.3076923076923  9.5 22.3076923076923  C 11.5341435185185 22.3076923076923  13.2741608796296 21.5437700320513  14.7200520833333 20.0159254807692  C 16.165943287037 18.4880809294872  16.8888888888889 16.6494391025641  16.8888888888889 14.5  L 16.8888888888889 12.2692307692308  C 16.8888888888889 11.9671474358974  16.9933449074074 11.7057291666667  17.2022569444444 11.4849759615385  C 17.4111689814815 11.2642227564103  17.6585648148148 11.1538461538462  17.9444444444444 11.1538461538462  C 18.2303240740741 11.1538461538462  18.4777199074074 11.2642227564103  18.6866319444444 11.4849759615385  Z M 13.2274305555556 1.63822115384615  C 14.2609953703704 2.73036858974359  14.7777777777778 4.04326923076923  14.7777777777778 5.57692307692308  L 14.7777777777778 14.5  C 14.7777777777778 16.0336538461538  14.2609953703704 17.3465544871795  13.2274305555556 18.4387019230769  C 12.1938657407407 19.5308493589744  10.9513888888889 20.0769230769231  9.5 20.0769230769231  C 8.04861111111111 20.0769230769231  6.80613425925926 19.5308493589744  5.77256944444444 18.4387019230769  C 4.73900462962963 17.3465544871795  4.22222222222222 16.0336538461538  4.22222222222222 14.5  L 4.22222222222222 5.57692307692308  C 4.22222222222222 4.04326923076923  4.73900462962963 2.73036858974359  5.77256944444444 1.63822115384615  C 6.80613425925926 0.546073717948721  8.04861111111111 0  9.5 0  C 10.9513888888889 0  12.1938657407407 0.546073717948721  13.2274305555556 1.63822115384615  Z " fill-rule="nonzero" fill="url(#LinearGradient158)" stroke="none" transform="matrix(1 0 0 1 270 907 )" />
  </g>
</svg>