<?xml version="1.0" encoding="utf-8"?>
<svg version="1.1" xmlns:xlink="http://www.w3.org/1999/xlink" width="14px" height="27px" xmlns="http://www.w3.org/2000/svg">
  <g transform="matrix(1 0 0 1 -31 -191 )">
    <path d="M 13.7594501718213 1.62324649298597  C 13.9198167239404 1.80360721442885  14 2.01102204408817  14 2.24549098196393  C 14 2.47995991983968  13.9198167239404 2.687374749499  13.7594501718213 2.86773547094188  L 4.30584192439863 13.5  L 13.7594501718213 24.1322645290581  C 13.9198167239404 24.312625250501  14 24.5200400801603  14 24.7545090180361  C 14 24.9889779559118  13.9198167239404 25.1963927855711  13.7594501718213 25.376753507014  L 12.5567010309278 26.7294589178357  C 12.3963344788087 26.9098196392786  12.2119129438717 27  12.0034364261168 27  C 11.794959908362 27  11.610538373425 26.9098196392786  11.4501718213058 26.7294589178357  L 0.240549828178694 14.122244488978  C 0.0801832760595648 13.9418837675351  0 13.7344689378758  0 13.5  C 0 13.2655310621242  0.0801832760595648 13.0581162324649  0.240549828178694 12.877755511022  L 11.4501718213058 0.270541082164329  C 11.610538373425 0.090180360721442  11.794959908362 0  12.0034364261168 0  C 12.2119129438717 0  12.3963344788087 0.090180360721442  12.5567010309278 0.270541082164329  L 13.7594501718213 1.62324649298597  Z " fill-rule="nonzero" fill="#575757" stroke="none" transform="matrix(1 0 0 1 31 191 )" />
  </g>
</svg>