<?xml version="1.0" encoding="utf-8"?>
<svg version="1.1" xmlns:xlink="http://www.w3.org/1999/xlink" width="20px" height="27px" xmlns="http://www.w3.org/2000/svg">
  <g transform="matrix(1 0 0 1 -25 -62 )">
    <path d="M 19.6563573883162 1.62324649298597  C 19.8854524627721 1.80360721442885  20 2.01102204408817  20 2.24549098196393  C 20 2.47995991983968  19.8854524627721 2.687374749499  19.6563573883162 2.86773547094188  L 6.15120274914089 13.5  L 10.3597337452337 16.8132693423148  L 19.6563573883162 24.1322645290581  C 19.8854524627721 24.312625250501  20 24.5200400801603  20 24.7545090180361  C 20 24.9889779559118  19.8854524627721 25.1963927855711  19.6563573883162 25.376753507014  L 17.9381443298969 26.7294589178357  C 17.709049255441 26.9098196392786  17.4455899198167 27  17.1477663230241 27  C 16.8499427262314 27  16.5864833906071 26.9098196392786  16.3573883161512 26.7294589178357  L 0.343642611683849 14.122244488978  C 0.114547537227949 13.9418837675351  0 13.7344689378758  0 13.5  C 0 13.2655310621242  0.114547537227949 13.0581162324649  0.343642611683849 12.877755511022  L 16.3573883161512 0.270541082164328  C 16.5864833906071 0.0901803607214404  16.8499427262314 0  17.1477663230241 0  C 17.4455899198167 0  17.709049255441 0.0901803607214404  17.9381443298969 0.270541082164328  L 19.6563573883162 1.62324649298597  Z " fill-rule="nonzero" fill="#ec808d" stroke="none" transform="matrix(1 0 0 1 25 62 )" />
  </g>
</svg>