<?xml version="1.0" encoding="utf-8"?>
<svg version="1.1" xmlns:xlink="http://www.w3.org/1999/xlink" width="15px" height="18px" xmlns="http://www.w3.org/2000/svg">
  <g transform="matrix(1 0 0 1 -241 -26 )">
    <path d="M 14.7912205567452 10.9587053571429  C 14.9304068522484 11.2533482142857  15 11.5680803571429  15 11.9029017857143  C 15 12.9274553571429  14.4673447537473 13.8097098214286  13.402034261242 14.5496651785714  C 12.3367237687366 15.2896205357143  10.9528907922912 15.7466517857143  9.25053533190578 15.9207589285714  L 9.25053533190578 17.6785714285714  C 9.25053533190578 17.7723214285714  9.20235546038544 17.8493303571429  9.10599571734475 17.9095982142857  C 9.00963597430407 17.9698660714286  8.8865096359743 18  8.73661670235546 18  L 6.56852248394004 18  C 6.42933618843683 18  6.30888650963597 17.9681919642857  6.20717344753747 17.9045758928571  C 6.10546038543897 17.8409598214286  6.05460385438972 17.765625  6.05460385438972 17.6785714285714  L 6.05460385438972 15.9207589285714  C 5.34796573875803 15.8604910714286  4.66541755888651 15.7566964285714  4.00695931477516 15.609375  C 3.34850107066381 15.4620535714286  2.8051391862955 15.3130580357143  2.37687366167024 15.1623883928571  C 1.94860813704497 15.01171875  1.5524625267666 14.8510044642857  1.18843683083512 14.6802455357143  C 0.82441113490364 14.5094866071429  0.575481798715204 14.3839285714286  0.441648822269807 14.3035714285714  C 0.307815845824411 14.2232142857143  0.214132762312634 14.1629464285714  0.160599571734475 14.1227678571429  C -0.0214132762312633 13.9821428571429  -0.0321199143468951 13.8448660714286  0.12847965738758 13.7109375  L 1.78265524625268 12.3549107142857  C 1.8576017130621 12.2879464285714  1.98072805139186 12.2477678571429  2.15203426124197 12.234375  C 2.31263383297645 12.2209821428571  2.44111349036403 12.2511160714286  2.53747323340471 12.3247767857143  L 2.56959314775161 12.3448660714286  C 3.77944325481799 13.0078125  5.08029978586724 13.4263392857143  6.47216274089936 13.6004464285714  C 6.86830835117773 13.6540178571429  7.2644539614561 13.6808035714286  7.66059957173448 13.6808035714286  C 8.52783725910064 13.6808035714286  9.2906852248394 13.5368303571429  9.94914346895075 13.2488839285714  C 10.6076017130621 12.9609375  10.9368308351178 12.5524553571429  10.9368308351178 12.0234375  C 10.9368308351178 11.8359375  10.8565310492505 11.6584821428571  10.6959314775161 11.4910714285714  C 10.5353319057816 11.3236607142857  10.3559957173448 11.1830357142857  10.1579229122056 11.0691964285714  C 9.95985010706638 10.9553571428571  9.64668094218416 10.8297991071429  9.21841541755889 10.6925223214286  C 8.79014989293362 10.5552455357143  8.43683083511777 10.4481026785714  8.15845824411135 10.37109375  C 7.88008565310493 10.2940848214286  7.45182012847966 10.1852678571429  6.87366167023555 10.0446428571429  C 6.45610278372591 9.9375  6.12687366167023 9.85379464285714  5.88597430406852 9.79352678571428  C 5.64507494646681 9.73325892857143  5.31584582441114 9.64453125  4.8982869379015 9.52734375  C 4.48072805139186 9.41015625  4.14614561027837 9.30636160714286  3.89453961456103 9.21595982142857  C 3.64293361884368 9.12555803571428  3.34047109207709 9.00669642857143  2.98715203426124 8.859375  C 2.6338329764454 8.71205357142857  2.34743040685225 8.56975446428571  2.1279443254818 8.43247767857143  C 1.90845824411135 8.29520089285714  1.67558886509636 8.13113839285714  1.42933618843683 7.94029017857143  C 1.1830835117773 7.74944196428571  0.993040685224839 7.55524553571428  0.859207708779443 7.35770089285714  C 0.725374732334047 7.16015625  0.612955032119914 6.9375  0.521948608137045 6.68973214285714  C 0.430942184154176 6.44196428571429  0.385438972162741 6.18080357142857  0.385438972162741 5.90625  C 0.385438972162741 4.98214285714286  0.910064239828694 4.171875  1.9593147751606 3.47544642857143  C 3.00856531049251 2.77901785714286  4.37366167023555 2.33035714285714  6.05460385438972 2.12946428571429  L 6.05460385438972 0.321428571428572  C 6.05460385438972 0.234374999999999  6.10546038543897 0.159040178571428  6.20717344753747 0.0954241071428574  C 6.30888650963597 0.0318080357142865  6.42933618843683 0  6.56852248394004 0  L 8.73661670235546 0  C 8.8865096359743 0  9.00963597430407 0.0301339285714277  9.10599571734475 0.0904017857142851  C 9.20235546038544 0.150669642857143  9.25053533190578 0.22767857142857  9.25053533190578 0.321428571428572  L 9.25053533190578 2.08928571428571  C 9.86081370449679 2.12946428571429  10.4523554603854 2.20647321428571  11.0251605995717 2.3203125  C 11.597965738758 2.43415178571429  12.063704496788 2.54631696428571  12.4223768736617 2.65680803571429  C 12.7810492505353 2.76729910714286  13.1209850107066 2.89285714285714  13.4421841541756 3.03348214285714  C 13.7633832976445 3.17410714285714  13.9721627408994 3.27120535714286  14.06852248394 3.32477678571429  C 14.1648822269807 3.37834821428571  14.245182012848 3.42522321428571  14.3094218415418 3.46540178571429  C 14.4914346895075 3.5859375  14.5182012847966 3.71316964285714  14.389721627409 3.84709821428571  L 13.0888650963597 5.31361607142857  C 13.0032119914347 5.4140625  12.8800856531049 5.46763392857143  12.7194860813704 5.47433035714286  C 12.5695931477516 5.49441964285714  12.4250535331906 5.47098214285714  12.2858672376874 5.40401785714286  C 12.2537473233405 5.38392857142857  12.1761241970021 5.34375  12.0529978586724 5.28348214285714  C 11.9298715203426 5.22321428571428  11.7210920770878 5.13448660714286  11.4266595289079 5.01729910714286  C 11.1322269807281 4.90011160714286  10.8190578158458 4.79296875  10.4871520342612 4.69587053571428  C 10.1552462526767 4.59877232142857  9.75642398286938 4.51171875  9.2906852248394 4.43470982142857  C 8.82494646680942 4.35770089285714  8.36723768736617 4.31919642857143  7.91755888650964 4.31919642857143  C 6.90042826552463 4.31919642857143  6.07066381156317 4.46316964285714  5.42826552462527 4.75111607142857  C 4.78586723768737 5.0390625  4.46466809421842 5.41071428571428  4.46466809421842 5.86607142857143  C 4.46466809421842 6.04017857142857  4.51017130620985 6.20089285714286  4.60117773019272 6.34821428571428  C 4.69218415417559 6.49553571428571  4.85010706638116 6.63448660714286  5.07494646680942 6.76506696428572  C 5.29978586723769 6.89564732142857  5.51124197002141 7.00613839285714  5.7093147751606 7.09654017857143  C 5.90738758029979 7.18694196428572  6.20717344753747 7.29073660714286  6.60867237687366 7.40792410714286  C 7.01017130620985 7.52511160714286  7.33404710920771 7.61551339285714  7.58029978586724 7.67912946428572  C 7.82655246252677 7.74274553571429  8.20128479657388 7.83482142857143  8.70449678800857 7.95535714285714  C 9.27194860813705 8.08928571428571  9.70556745182013 8.19475446428571  10.0053533190578 8.27176339285714  C 10.3051391862955 8.34877232142857  10.7119914346895 8.46595982142857  11.2259100642398 8.62332589285714  C 11.7398286937901 8.78069196428571  12.1440042826552 8.92299107142857  12.4384368308351 9.05022321428572  C 12.732869379015 9.17745535714286  13.0647751605996 9.34486607142857  13.4341541755889 9.55245535714286  C 13.8035331905782 9.76004464285714  14.0872591006424 9.97265625  14.2853319057816 10.1902901785714  C 14.4834047109208 10.4079241071429  14.652034261242 10.6640625  14.7912205567452 10.9587053571429  Z " fill-rule="nonzero" fill="#ec808d" stroke="none" transform="matrix(1 0 0 1 241 26 )" />
  </g>
</svg>