<?xml version="1.0" encoding="utf-8"?>
<svg version="1.1" xmlns:xlink="http://www.w3.org/1999/xlink" width="19px" height="19px" xmlns="http://www.w3.org/2000/svg">
  <g transform="matrix(1 0 0 1 -304 -92 )">
    <path d="M 2.931640625 4.16766826923077  C 3.08832465277778 4.02303685897436  3.16666666666667 3.85176282051282  3.16666666666667 3.65384615384615  C 3.16666666666667 3.45592948717949  3.08832465277778 3.28465544871795  2.931640625 3.14002403846154  C 2.77495659722222 2.99539262820513  2.58940972222222 2.92307692307692  2.375 2.92307692307692  C 2.16059027777778 2.92307692307692  1.97504340277778 2.99539262820513  1.818359375 3.14002403846154  C 1.66167534722222 3.28465544871795  1.58333333333333 3.45592948717949  1.58333333333333 3.65384615384615  C 1.58333333333333 3.85176282051282  1.66167534722222 4.02303685897436  1.818359375 4.16766826923077  C 1.97504340277778 4.31229967948718  2.16059027777778 4.38461538461538  2.375 4.38461538461538  C 2.58940972222222 4.38461538461538  2.77495659722222 4.31229967948718  2.931640625 4.16766826923077  Z M 16.9342447916667 11.2527043269231  C 17.255859375 10.9596354166667  17.4166666666667 10.6189903846154  17.4166666666667 10.2307692307692  C 17.4166666666667 9.96434294871795  17.3280164930556 9.65604967948718  17.1507161458333 9.30588942307692  C 16.9734157986111 8.95572916666667  16.7528211805556 8.77684294871795  16.4889322916667 8.76923076923077  C 16.6126302083333 8.63982371794872  16.7157118055556 8.4590344551282  16.7981770833333 8.22686298076923  C 16.8806423611111 7.99469150641026  16.921875 7.78345352564102  16.921875 7.59314903846154  C 16.921875 7.06790865384615  16.7033420138889 6.61498397435897  16.2662760416667 6.234375  C 16.4147135416667 5.99839743589744  16.4889322916667 5.73577724358974  16.4889322916667 5.44651442307692  C 16.4889322916667 5.16486378205128  16.4167751736111 4.88511618589744  16.2724609375 4.60727163461538  C 16.1281467013889 4.32942708333333  15.9322916666667 4.12960737179487  15.6848958333333 4.0078125  C 15.7261284722222 3.77944711538462  15.7467447916667 3.56630608974359  15.7467447916667 3.36838942307692  C 15.7467447916667 2.72135416666667  15.5447048611111 2.24178685897436  15.140625 1.9296875  C 14.7365451388889 1.61758814102564  14.17578125 1.46153846153846  13.4583333333333 1.46153846153846  L 11.875 1.46153846153846  C 10.7947048611111 1.46153846153846  9.38454861111111 1.73938301282051  7.64453125 2.29507211538462  C 7.60329861111111 2.31029647435897  7.48372395833333 2.35026041666667  7.28580729166667 2.41496394230769  C 7.087890625 2.47966746794872  6.94151475694444 2.52724358974359  6.8466796875 2.55769230769231  C 6.75184461805556 2.58814102564102  6.60753038194444 2.63191105769231  6.41373697916667 2.68900240384615  C 6.21994357638889 2.74609375  6.06325954861111 2.78796073717949  5.94368489583333 2.81460336538462  C 5.82411024305556 2.84124599358974  5.68804253472222 2.86598557692308  5.53548177083333 2.88882211538462  C 5.38292100694444 2.91165865384615  5.25303819444444 2.92307692307692  5.14583333333333 2.92307692307692  L 4.75 2.92307692307692  L 4.75 10.2307692307692  L 5.14583333333333 10.2307692307692  C 5.27777777777778 10.2307692307692  5.42415364583333 10.2650240384615  5.5849609375 10.3335336538462  C 5.74576822916667 10.4020432692308  5.91069878472222 10.5048076923077  6.07975260416667 10.6418269230769  C 6.24880642361111 10.7788461538462  6.40755208333333 10.9139623397436  6.55598958333333 11.0471754807692  C 6.70442708333333 11.1803886217949  6.86935763888889 11.3478565705128  7.05078125 11.5495793269231  C 7.23220486111111 11.7513020833333  7.37445746527778 11.9130608974359  7.4775390625 12.0348557692308  C 7.58062065972222 12.1566506410256  7.71050347222222 12.3127003205128  7.8671875 12.5030048076923  C 8.02387152777778 12.6933092948718  8.11870659722222 12.8074919871795  8.15169270833333 12.8455528846154  C 8.60525173611111 13.3631810897436  8.92274305555556 13.7095352564103  9.10416666666667 13.8846153846154  C 9.44227430555556 14.2119391025641  9.68760850694445 14.6287059294872  9.84016927083333 15.1349158653846  C 9.99273003472222 15.641125801282  10.1184895833333 16.1187900641026  10.2174479166667 16.5679086538462  C 10.31640625 17.0170272435897  10.4730902777778 17.3405448717949  10.6875 17.5384615384615  C 11.4791666666667 17.5384615384615  12.0069444444444 17.3595753205128  12.2708333333333 17.0018028846154  C 12.5347222222222 16.6440304487179  12.6666666666667 16.0921474358974  12.6666666666667 15.3461538461538  C 12.6666666666667 14.8970352564103  12.46875 14.2861578525641  12.0729166666667 13.5135216346154  C 11.6770833333333 12.7408854166667  11.4791666666667 12.1338141025641  11.4791666666667 11.6923076923077  L 15.8333333333333 11.6923076923077  C 16.2456597222222 11.6923076923077  16.6126302083333 11.5457732371795  16.9342447916667 11.2527043269231  Z M 18.3938802083333 8.38100961538462  C 18.7979600694444 8.93669871794872  19 9.55709134615385  19 10.2421875  C 19 11.0262419871795  18.6866319444444 11.707532051282  18.0598958333333 12.2860576923077  C 17.4331597222222 12.8645833333333  16.6909722222222 13.1538461538462  15.8333333333333 13.1538461538462  L 13.65625 13.1538461538462  C 14.0520833333333 13.9074519230769  14.25 14.6382211538462  14.25 15.3461538461538  C 14.25 16.244391025641  14.1056857638889 16.9523237179487  13.8170572916667 17.4699519230769  C 13.5284288194444 17.9951923076923  13.1078559027778 18.3815104166667  12.5553385416667 18.62890625  C 12.0028211805556 18.8763020833333  11.3802083333333 19  10.6875 19  C 10.2669270833333 19  9.89583333333333 18.8591746794872  9.57421875 18.5775240384615  C 9.29383680555556 18.3263221153846  9.07118055555556 18.0142227564103  8.90625 17.6412259615385  C 8.74131944444444 17.2682291666667  8.63617621527778 16.9237780448718  8.5908203125 16.6078725961538  C 8.54546440972222 16.2919671474359  8.47330729166667 15.9703525641026  8.37434895833333 15.6430288461538  C 8.275390625 15.3157051282051  8.14756944444444 15.0721153846154  7.99088541666667 14.9122596153846  C 7.59505208333333 14.5316506410256  7.15386284722222 14.0482772435897  6.66731770833333 13.4621394230769  C 5.83441840277778 12.4649439102564  5.26953125 11.875  4.97265625 11.6923076923077  L 1.58333333333333 11.6923076923077  C 1.14626736111111 11.6923076923077  0.773111979166667 11.5495793269231  0.4638671875 11.2641225961538  C 0.154622395833333 10.9786658653846  0 10.6342147435897  0 10.2307692307692  L 0 2.92307692307692  C 0 2.51963141025641  0.154622395833333 2.17518028846154  0.4638671875 1.88972355769231  C 0.773111979166667 1.60426682692308  1.14626736111111 1.46153846153846  1.58333333333333 1.46153846153846  L 5.14583333333333 1.46153846153846  C 5.32725694444444 1.46153846153846  5.89626736111111 1.30929487179487  6.85286458333333 1.00480769230769  C 7.90842013888889 0.669871794871792  8.82790798611111 0.418669871794869  9.611328125 0.251201923076923  C 10.3947482638889 0.083733974358973  11.2194010416667 0  12.0852864583333 0  L 13.470703125 0  C 14.6252170138889 0  15.5591362847222 0.300681089743589  16.2724609375 0.90204326923077  C 16.9857855902778 1.50340544871795  17.3383246527778 2.32552083333333  17.330078125 3.36838942307692  L 17.330078125 3.42548076923077  C 17.8248697916667 4.01161858974359  18.072265625 4.68910256410256  18.072265625 5.45793269230769  C 18.072265625 5.62540064102564  18.0598958333333 5.7890625  18.03515625 5.94891826923077  C 18.3485243055556 6.45893429487179  18.5052083333333 7.00701121794872  18.5052083333333 7.59314903846154  C 18.5052083333333 7.8671875  18.4680989583333 8.12980769230769  18.3938802083333 8.38100961538462  Z " fill-rule="nonzero" fill="#000000" stroke="none" transform="matrix(1 0 0 1 304 92 )" />
  </g>
</svg>