<?xml version="1.0" encoding="utf-8"?>
<svg version="1.1" xmlns:xlink="http://www.w3.org/1999/xlink" width="19px" height="19px" xmlns="http://www.w3.org/2000/svg">
  <defs>
    <linearGradient gradientUnits="userSpaceOnUse" x1="18.81" y1="9.5" x2="0.19" y2="9.5" id="LinearGradient130">
      <stop id="Stop131" stop-color="#ff8686" offset="0" />
      <stop id="Stop132" stop-color="#f61010" offset="1" />
    </linearGradient>
  </defs>
  <g transform="matrix(1 0 0 1 -304 -93 )">
    <path d="M 2.814375 3.3955078125  C 2.96479166666667 3.54806857638889  3.04 3.73567708333333  3.04 3.95833333333333  C 3.04 4.17274305555555  2.96479166666667 4.35828993055555  2.814375 4.51497395833333  C 2.66395833333333 4.67165798611111  2.48583333333333 4.75  2.28 4.75  C 2.06625 4.75  1.88614583333333 4.67165798611111  1.7396875 4.51497395833333  C 1.59322916666667 4.35828993055555  1.52 4.17274305555555  1.52 3.95833333333333  C 1.52 3.73567708333333  1.59322916666667 3.54806857638889  1.7396875 3.3955078125  C 1.88614583333333 3.24294704861111  2.06625 3.16666666666667  2.28 3.16666666666667  C 2.48583333333333 3.16666666666667  2.66395833333333 3.24294704861111  2.814375 3.3955078125  Z M 4.714375 10.8483072916667  C 4.86479166666667 10.6916232638889  4.94 10.5060763888889  4.94 10.2916666666667  L 4.94 2.375  C 4.94 2.16059027777778  4.86479166666667 1.97504340277778  4.714375 1.818359375  C 4.56395833333333 1.66167534722222  4.38583333333333 1.58333333333333  4.18 1.58333333333333  L 0.76 1.58333333333333  C 0.554166666666667 1.58333333333333  0.376041666666667 1.66167534722222  0.225625 1.818359375  C 0.0752083333333333 1.97504340277778  0 2.16059027777778  0 2.375  L 0 10.2916666666667  C 0 10.5060763888889  0.0752083333333333 10.6916232638889  0.225625 10.8483072916667  C 0.376041666666667 11.0049913194444  0.554166666666667 11.0833333333333  0.76 11.0833333333333  L 4.18 11.0833333333333  C 4.38583333333333 11.0833333333333  4.56395833333333 11.0049913194444  4.714375 10.8483072916667  Z M 18.525 7.50846354166667  C 18.525 7.77235243055555  18.465625 8.08572048611111  18.346875 8.44856770833333  C 18.7822916666667 8.95160590277778  19 9.56597222222222  19 10.2916666666667  C 18.9920833333333 10.9348958333333  18.7644791666667 11.4915364583333  18.3171875 11.9615885416667  C 17.8698958333333 12.431640625  17.3375 12.6666666666667  16.72 12.6666666666667  L 13.430625 12.6666666666667  C 13.4622916666667 12.7821180555556  13.4939583333333 12.8810763888889  13.525625 12.9635416666667  C 13.5572916666667 13.0460069444444  13.6008333333333 13.13671875  13.65625 13.2356770833333  C 13.7116666666667 13.3346354166667  13.75125 13.4088541666667  13.775 13.4583333333333  C 13.9175 13.7634548611111  14.024375 13.9984809027778  14.095625 14.1634114583333  C 14.166875 14.3283420138889  14.2420833333333 14.5695529513889  14.32125 14.8870442708333  C 14.4004166666667 15.2045355902778  14.44 15.5199652777778  14.44 15.8333333333333  C 14.44 16.03125  14.4380208333333 16.1920572916667  14.4340625 16.3157552083333  C 14.4301041666667 16.439453125  14.4103125 16.625  14.3746875 16.8723958333333  C 14.3390625 17.1197916666667  14.2915625 17.3259548611111  14.2321875 17.4908854166667  C 14.1728125 17.6558159722222  14.0778125 17.8413628472222  13.9471875 18.0475260416667  C 13.8165625 18.2536892361111  13.6582291666667 18.4206814236111  13.4721875 18.5485026041667  C 13.2861458333333 18.6763237847222  13.0486458333333 18.7835286458333  12.7596875 18.8701171875  C 12.4707291666667 18.9567057291667  12.1441666666667 19  11.78 19  C 11.5741666666667 19  11.3960416666667 18.9216579861111  11.245625 18.7649739583333  C 11.0872916666667 18.6000434027778  10.9527083333333 18.3938802083333  10.841875 18.146484375  C 10.7310416666667 17.8990885416667  10.6538541666667 17.6846788194444  10.6103125 17.5032552083333  C 10.5667708333333 17.3218315972222  10.5172916666667 17.0703125  10.461875 16.7486979166667  C 10.390625 16.40234375  10.3371875 16.1528862847222  10.3015625 16.0003255208333  C 10.2659375 15.8477647569444  10.1966666666667 15.6477864583333  10.09375 15.400390625  C 9.99083333333333 15.1529947916667  9.868125 14.955078125  9.725625 14.806640625  C 9.464375 14.5345052083333  9.06458333333334 14.0397135416667  8.52625 13.322265625  C 8.13833333333333 12.7944878472222  7.73854166666667 12.2955729166667  7.326875 11.8255208333333  C 6.91520833333333 11.35546875  6.614375 11.1121961805556  6.424375 11.095703125  C 6.22645833333333 11.0792100694444  6.05625 10.9946831597222  5.91375 10.8421223958333  C 5.77125 10.6895616319444  5.7 10.5101996527778  5.7 10.3040364583333  L 5.7 2.375  C 5.7 2.16059027777778  5.77520833333333 1.97710503472222  5.925625 1.82454427083333  C 6.07604166666667 1.67198350694444  6.25416666666667 1.59157986111111  6.46 1.58333333333333  C 6.73708333333333 1.57508680555555  7.3625 1.39366319444444  8.33625 1.0390625  C 8.94583333333333 0.824652777777776  9.4228125 0.661783854166666  9.7671875 0.550455729166666  C 10.1115625 0.439127604166666  10.5925 0.319552951388888  11.21 0.191731770833334  C 11.8275 0.0639105902777759  12.3975 0  12.92 0  L 13.121875 0  L 14.024375 0  L 14.451875 0  C 15.5047916666667 0.0164930555555539  16.2845833333333 0.338107638888888  16.79125 0.96484375  C 17.2504166666667 1.53385416666667  17.444375 2.28016493055555  17.373125 3.20377604166667  C 17.681875 3.50889756944444  17.895625 3.896484375  18.014375 4.36653645833333  C 18.1489583333333 4.86957465277778  18.1489583333333 5.35199652777778  18.014375 5.81380208333333  C 18.3785416666667 6.31684027777778  18.54875 6.88172743055555  18.525 7.50846354166667  Z " fill-rule="nonzero" fill="url(#LinearGradient130)" stroke="none" transform="matrix(1 0 0 1 304 93 )" />
  </g>
</svg>