<?xml version="1.0" encoding="utf-8"?>
<svg version="1.1" xmlns:xlink="http://www.w3.org/1999/xlink" width="19px" height="19px" xmlns="http://www.w3.org/2000/svg">
  <g transform="matrix(1 0 0 1 -233 -91 )">
    <path d="M 2.931640625 15.8599759615385  C 3.08832465277778 15.715344551282  3.16666666666667 15.5440705128205  3.16666666666667 15.3461538461538  C 3.16666666666667 15.1482371794872  3.08832465277778 14.9769631410256  2.931640625 14.8323317307692  C 2.77495659722222 14.6877003205128  2.58940972222222 14.6153846153846  2.375 14.6153846153846  C 2.16059027777778 14.6153846153846  1.97504340277778 14.6877003205128  1.818359375 14.8323317307692  C 1.66167534722222 14.9769631410256  1.58333333333333 15.1482371794872  1.58333333333333 15.3461538461538  C 1.58333333333333 15.5440705128205  1.66167534722222 15.715344551282  1.818359375 15.8599759615385  C 1.97504340277778 16.0046073717949  2.16059027777778 16.0769230769231  2.375 16.0769230769231  C 2.58940972222222 16.0769230769231  2.77495659722222 16.0046073717949  2.931640625 15.8599759615385  Z M 17.1507161458333 9.69411057692308  C 17.3280164930556 9.34395032051282  17.4166666666667 9.03565705128205  17.4166666666667 8.76923076923077  C 17.4166666666667 8.38100961538461  17.255859375 8.04036458333333  16.9342447916667 7.74729567307692  C 16.6126302083333 7.45422676282051  16.2456597222222 7.30769230769231  15.8333333333333 7.30769230769231  L 11.4791666666667 7.30769230769231  C 11.4791666666667 6.8661858974359  11.6770833333333 6.25911458333333  12.0729166666667 5.48647836538462  C 12.46875 4.7138421474359  12.6666666666667 4.10296474358974  12.6666666666667 3.65384615384615  C 12.6666666666667 2.90785256410256  12.5347222222222 2.35596955128205  12.2708333333333 1.99819711538462  C 12.0069444444444 1.64042467948718  11.4791666666667 1.46153846153846  10.6875 1.46153846153846  C 10.4730902777778 1.65945512820513  10.31640625 1.98297275641026  10.2174479166667 2.43209134615385  C 10.1184895833333 2.88120993589744  9.99273003472222 3.35887419871795  9.84016927083333 3.86508413461538  C 9.68760850694445 4.37129407051282  9.44227430555556 4.7880608974359  9.10416666666667 5.11538461538462  C 8.92274305555556 5.29046474358974  8.60525173611111 5.63681891025641  8.15169270833333 6.15444711538462  C 8.11870659722222 6.19250801282051  8.02387152777778 6.3066907051282  7.8671875 6.49699519230769  C 7.71050347222222 6.68729967948718  7.58062065972222 6.84334935897436  7.4775390625 6.96514423076923  C 7.37445746527778 7.0869391025641  7.23220486111111 7.24869791666667  7.05078125 7.45042067307692  C 6.86935763888889 7.65214342948718  6.70442708333333 7.81961137820513  6.55598958333333 7.95282451923077  C 6.40755208333333 8.08603766025641  6.24880642361111 8.22115384615384  6.07975260416667 8.35817307692308  C 5.91069878472222 8.49519230769231  5.74576822916667 8.59795673076923  5.5849609375 8.66646634615385  C 5.42415364583333 8.73497596153846  5.27777777777778 8.76923076923077  5.14583333333333 8.76923076923077  L 4.75 8.76923076923077  L 4.75 16.0769230769231  L 5.14583333333333 16.0769230769231  C 5.25303819444444 16.0769230769231  5.38292100694444 16.0883413461538  5.53548177083333 16.1111778846154  C 5.68804253472222 16.1340144230769  5.82411024305556 16.1587540064103  5.94368489583333 16.1853966346154  C 6.06325954861111 16.2120392628205  6.21994357638889 16.25390625  6.41373697916667 16.3109975961538  C 6.60753038194444 16.3680889423077  6.75184461805556 16.411858974359  6.8466796875 16.4423076923077  C 6.94151475694444 16.4727564102564  7.087890625 16.5203325320513  7.28580729166667 16.5850360576923  C 7.48372395833333 16.6497395833333  7.60329861111111 16.689703525641  7.64453125 16.7049278846154  C 9.38454861111111 17.2606169871795  10.7947048611111 17.5384615384615  11.875 17.5384615384615  L 13.3717447916667 17.5384615384615  C 14.955078125 17.5384615384615  15.7467447916667 16.9028445512821  15.7467447916667 15.6316105769231  C 15.7467447916667 15.4336939102564  15.7261284722222 15.2205528846154  15.6848958333333 14.9921875  C 15.9322916666667 14.8703926282051  16.1281467013889 14.6705729166667  16.2724609375 14.3927283653846  C 16.4167751736111 14.1148838141026  16.4889322916667 13.8351362179487  16.4889322916667 13.5534855769231  C 16.4889322916667 13.2718349358974  16.4147135416667 13.0092147435897  16.2662760416667 12.765625  C 16.7033420138889 12.385016025641  16.921875 11.9320913461538  16.921875 11.4068509615385  C 16.921875 11.216546474359  16.8806423611111 11.0053084935897  16.7981770833333 10.7731370192308  C 16.7157118055556 10.5409655448718  16.6126302083333 10.3601762820513  16.4889322916667 10.2307692307692  C 16.7528211805556 10.223157051282  16.9734157986111 10.0442708333333  17.1507161458333 9.69411057692308  Z M 18.0598958333333 6.71394230769231  C 18.6866319444444 7.29246794871795  19 7.97375801282051  19 8.7578125  C 19 9.43529647435897  18.7979600694444 10.0556891025641  18.3938802083333 10.6189903846154  C 18.4680989583333 10.8701923076923  18.5052083333333 11.1328125  18.5052083333333 11.4068509615385  C 18.5052083333333 11.9929887820513  18.3485243055556 12.5410657051282  18.03515625 13.0510817307692  C 18.0598958333333 13.2109375  18.072265625 13.3745993589744  18.072265625 13.5420673076923  C 18.072265625 14.3108974358974  17.8248697916667 14.9883814102564  17.330078125 15.5745192307692  C 17.3383246527778 16.6326121794872  16.9878472222222 17.4680488782051  16.2786458333333 18.0808293269231  C 15.5694444444444 18.693609775641  14.6334635416667 19  13.470703125 19  L 13.025390625 19  L 11.875 19  C 11.0833333333333 19  10.3019748263889 18.9143629807692  9.53092447916667 18.7430889423077  C 8.75987413194444 18.5718149038462  7.8671875 18.322516025641  6.85286458333333 17.9951923076923  C 5.89626736111111 17.6907051282051  5.32725694444444 17.5384615384615  5.14583333333333 17.5384615384615  L 1.58333333333333 17.5384615384615  C 1.14626736111111 17.5384615384615  0.773111979166667 17.3957331730769  0.4638671875 17.1102764423077  C 0.154622395833333 16.8248197115385  0 16.4803685897436  0 16.0769230769231  L 0 8.76923076923077  C 0 8.36578525641026  0.154622395833333 8.02133413461538  0.4638671875 7.73587740384615  C 0.773111979166667 7.45042067307692  1.14626736111111 7.30769230769231  1.58333333333333 7.30769230769231  L 4.97265625 7.30769230769231  C 5.26953125 7.125  5.83441840277778 6.53505608974359  6.66731770833333 5.53786057692308  C 7.14561631944444 4.96694711538462  7.58680555555556 4.47976762820513  7.99088541666667 4.07632211538462  C 8.18880208333333 3.88601762820513  8.33517795138889 3.5605969551282  8.43001302083333 3.10006009615385  C 8.52484809027778 2.63952323717949  8.65060763888889 2.15805288461538  8.80729166666667 1.65564903846154  C 8.96397569444444 1.15324519230769  9.21961805555556 0.7421875  9.57421875 0.422475961538461  C 9.89583333333333 0.140825320512822  10.2669270833333 0  10.6875 0  C 11.3802083333333 0  12.0028211805556 0.123697916666668  12.5553385416667 0.37109375  C 13.1078559027778 0.618489583333332  13.5284288194444 1.00480769230769  13.8170572916667 1.53004807692308  C 14.1056857638889 2.05528846153846  14.25 2.76322115384615  14.25 3.65384615384615  C 14.25 4.36177884615385  14.0520833333333 5.09254807692308  13.65625 5.84615384615385  L 15.8333333333333 5.84615384615385  C 16.6909722222222 5.84615384615385  17.4331597222222 6.13541666666667  18.0598958333333 6.71394230769231  Z " fill-rule="nonzero" fill="#000000" stroke="none" transform="matrix(1 0 0 1 233 91 )" />
  </g>
</svg>