<?xml version="1.0" encoding="utf-8"?>
<svg version="1.1" xmlns:xlink="http://www.w3.org/1999/xlink" width="37px" height="37px" xmlns="http://www.w3.org/2000/svg">
  <defs>
    <linearGradient gradientUnits="userSpaceOnUse" x1="0.370000000000009" y1="18.5" x2="0.37" y2="18.5" id="LinearGradient133">
      <stop id="Stop134" stop-color="#ff8686" offset="0" />
      <stop id="Stop135" stop-color="#f61010" offset="1" />
    </linearGradient>
  </defs>
  <g transform="matrix(1 0 0 1 -26 -15 )">
    <path d="M 36.754296875 26.7503255208333  C 36.9180989583333 27.9627821180556  37 29.2515190972222  37 30.6165364583333  C 37 32.3669704861111  36.3977864583333 33.8684895833333  35.193359375 35.12109375  C 33.9889322916667 36.3736979166667  32.5388020833333 37  30.84296875 37  L 6.15703125 37  C 4.46119791666667 37  3.01106770833333 36.3736979166667  1.806640625 35.12109375  C 0.602213541666667 33.8684895833333  0 32.3669704861111  0 30.6165364583333  C 0 29.2515190972222  0.0819010416666669 27.9627821180556  0.245703125 26.7503255208333  C 0.409505208333334 25.5378689236111  0.713020833333334 24.3173828125  1.15625 23.0888671875  C 1.59947916666667 21.8603515625  2.16315104166667 20.8084852430556  2.847265625 19.9332682291667  C 3.53138020833333 19.0580512152778  4.437109375 18.3434244791667  5.564453125 17.7893880208333  C 6.691796875 17.2353515625  7.98776041666667 16.9583333333333  9.45234375 16.9583333333333  C 11.9768229166667 19.0138888888889  14.9927083333333 20.0416666666667  18.5 20.0416666666667  C 22.0072916666667 20.0416666666667  25.0231770833333 19.0138888888889  27.54765625 16.9583333333333  C 29.0122395833333 16.9583333333333  30.308203125 17.2353515625  31.435546875 17.7893880208333  C 32.562890625 18.3434244791667  33.4686197916667 19.0580512152778  34.152734375 19.9332682291667  C 34.8368489583333 20.8084852430556  35.4005208333333 21.8603515625  35.84375 23.0888671875  C 36.2869791666667 24.3173828125  36.5904947916667 25.5378689236111  36.754296875 26.7503255208333  Z M 26.348046875 2.7099609375  C 28.516015625 4.5166015625  29.6 6.69661458333333  29.6 9.25  C 29.6 11.8033854166667  28.516015625 13.9833984375  26.348046875 15.7900390625  C 24.180078125 17.5966796875  21.5640625 18.5  18.5 18.5  C 15.4359375 18.5  12.819921875 17.5966796875  10.651953125 15.7900390625  C 8.483984375 13.9833984375  7.4 11.8033854166667  7.4 9.25  C 7.4 6.69661458333333  8.483984375 4.5166015625  10.651953125 2.7099609375  C 12.819921875 0.9033203125  15.4359375 0  18.5 0  C 21.5640625 0  24.180078125 0.9033203125  26.348046875 2.7099609375  Z " fill-rule="nonzero" fill="url(#LinearGradient133)" stroke="none" transform="matrix(1 0 0 1 26 15 )" />
  </g>
</svg>