<?xml version="1.0" encoding="utf-8"?>
<svg version="1.1" xmlns:xlink="http://www.w3.org/1999/xlink" width="19px" height="19px" xmlns="http://www.w3.org/2000/svg">
  <defs>
    <linearGradient gradientUnits="userSpaceOnUse" x1="18.81" y1="9.5" x2="0.19" y2="9.5" id="LinearGradient127">
      <stop id="Stop128" stop-color="#ff8686" offset="0" />
      <stop id="Stop129" stop-color="#f61010" offset="1" />
    </linearGradient>
  </defs>
  <g transform="matrix(1 0 0 1 -233 -92 )">
    <path d="M 2.814375 15.6044921875  C 2.96479166666667 15.4519314236111  3.04 15.2643229166667  3.04 15.0416666666667  C 3.04 14.8272569444444  2.96479166666667 14.6417100694444  2.814375 14.4850260416667  C 2.66395833333333 14.3283420138889  2.48583333333333 14.25  2.28 14.25  C 2.06625 14.25  1.88614583333333 14.3283420138889  1.7396875 14.4850260416667  C 1.59322916666667 14.6417100694444  1.52 14.8272569444444  1.52 15.0416666666667  C 1.52 15.2643229166667  1.59322916666667 15.4519314236111  1.7396875 15.6044921875  C 1.88614583333333 15.7570529513889  2.06625 15.8333333333333  2.28 15.8333333333333  C 2.48583333333333 15.8333333333333  2.66395833333333 15.7570529513889  2.814375 15.6044921875  Z M 4.714375 8.15169270833333  C 4.86479166666667 8.30837673611111  4.94 8.49392361111111  4.94 8.70833333333333  L 4.94 16.625  C 4.94 16.8394097222222  4.86479166666667 17.0249565972222  4.714375 17.181640625  C 4.56395833333333 17.3383246527778  4.38583333333333 17.4166666666667  4.18 17.4166666666667  L 0.76 17.4166666666667  C 0.554166666666667 17.4166666666667  0.376041666666667 17.3383246527778  0.225625 17.181640625  C 0.0752083333333333 17.0249565972222  0 16.8394097222222  0 16.625  L 0 8.70833333333333  C 0 8.49392361111111  0.0752083333333333 8.30837673611111  0.225625 8.15169270833333  C 0.376041666666667 7.99500868055556  0.554166666666667 7.91666666666667  0.76 7.91666666666667  L 4.18 7.91666666666667  C 4.38583333333333 7.91666666666667  4.56395833333333 7.99500868055556  4.714375 8.15169270833333  Z M 18.323125 7.03841145833333  C 18.774375 7.50846354166667  19 8.06510416666667  19 8.70833333333333  C 19 9.41753472222222  18.7822916666667 10.0319010416667  18.346875 10.5514322916667  C 18.465625 10.9142795138889  18.525 11.2276475694444  18.525 11.4915364583333  C 18.54875 12.1182725694444  18.3785416666667 12.6831597222222  18.014375 13.1861979166667  C 18.1489583333333 13.6480034722222  18.1489583333333 14.1304253472222  18.014375 14.6334635416667  C 17.895625 15.103515625  17.681875 15.4911024305556  17.373125 15.7962239583333  C 17.444375 16.7198350694444  17.2504166666667 17.4661458333333  16.79125 18.03515625  C 16.2845833333333 18.6618923611111  15.5047916666667 18.9835069444444  14.451875 19  L 14.024375 19  L 13.121875 19  L 12.92 19  C 12.3975 19  11.8275 18.9360894097222  11.21 18.8082682291667  C 10.5925 18.6804470486111  10.1115625 18.5608723958333  9.7671875 18.4495442708333  C 9.4228125 18.3382161458333  8.94583333333333 18.1753472222222  8.33625 17.9609375  C 7.3625 17.6063368055556  6.73708333333333 17.4249131944444  6.46 17.4166666666667  C 6.25416666666667 17.4084201388889  6.07604166666667 17.3280164930556  5.925625 17.1754557291667  C 5.77520833333333 17.0228949652778  5.7 16.8394097222222  5.7 16.625  L 5.7 8.69596354166667  C 5.7 8.48980034722222  5.77125 8.31043836805555  5.91375 8.15787760416667  C 6.05625 8.00531684027778  6.22645833333333 7.92078993055555  6.424375 7.904296875  C 6.614375 7.88780381944444  6.91520833333333 7.64453125  7.326875 7.17447916666667  C 7.73854166666667 6.70442708333333  8.13833333333333 6.20551215277778  8.52625 5.677734375  C 9.06458333333334 4.96028645833333  9.464375 4.46549479166667  9.725625 4.193359375  C 9.868125 4.044921875  9.99083333333333 3.84700520833333  10.09375 3.599609375  C 10.1966666666667 3.35221354166667  10.2659375 3.15223524305555  10.3015625 2.99967447916667  C 10.3371875 2.84711371527778  10.390625 2.59765625  10.461875 2.25130208333333  C 10.5172916666667 1.9296875  10.5667708333333 1.67816840277778  10.6103125 1.49674479166667  C 10.6538541666667 1.31532118055555  10.7310416666667 1.10091145833333  10.841875 0.853515625  C 10.9527083333333 0.606119791666666  11.0872916666667 0.399956597222222  11.245625 0.235026041666666  C 11.3960416666667 0.078342013888888  11.5741666666667 0  11.78 0  C 12.1441666666667 0  12.4707291666667 0.043294270833334  12.7596875 0.1298828125  C 13.0486458333333 0.216471354166666  13.2861458333333 0.323676215277776  13.4721875 0.451497395833334  C 13.6582291666667 0.579318576388888  13.8165625 0.746310763888888  13.9471875 0.952473958333334  C 14.0778125 1.15863715277778  14.1728125 1.34418402777778  14.2321875 1.50911458333333  C 14.2915625 1.67404513888889  14.3390625 1.88020833333333  14.3746875 2.12760416666667  C 14.4103125 2.375  14.4301041666667 2.560546875  14.4340625 2.68424479166667  C 14.4380208333333 2.80794270833333  14.44 2.96875  14.44 3.16666666666667  C 14.44 3.48003472222222  14.4023958333333 3.79340277777778  14.3271875 4.10677083333333  C 14.2519791666667 4.42013888888889  14.1767708333333 4.66753472222222  14.1015625 4.84895833333333  C 14.0263541666667 5.03038194444444  13.9175 5.26128472222222  13.775 5.54166666666667  C 13.75125 5.59114583333333  13.7116666666667 5.66536458333333  13.65625 5.76432291666667  C 13.6008333333333 5.86328125  13.5572916666667 5.95399305555555  13.525625 6.03645833333333  C 13.4939583333333 6.11892361111111  13.4622916666667 6.21788194444444  13.430625 6.33333333333333  L 16.72 6.33333333333333  C 17.3375 6.33333333333333  17.871875 6.568359375  18.323125 7.03841145833333  Z " fill-rule="nonzero" fill="url(#LinearGradient127)" stroke="none" transform="matrix(1 0 0 1 233 92 )" />
  </g>
</svg>