<?xml version="1.0" encoding="utf-8"?>
<svg version="1.1" xmlns:xlink="http://www.w3.org/1999/xlink" width="23px" height="26px" xmlns="http://www.w3.org/2000/svg">
  <defs>
    <linearGradient gradientUnits="userSpaceOnUse" x1="22.77" y1="13" x2="0.23" y2="13" id="LinearGradient83">
      <stop id="Stop84" stop-color="#ff8686" offset="0" />
      <stop id="Stop85" stop-color="#f61010" offset="1" />
    </linearGradient>
  </defs>
  <g transform="matrix(1 0 0 1 -176 -737 )">
    <path d="M 22.5807291666667 0.437500000000001  C 22.8602430555556 0.729166666666664  23 1.08333333333333  23 1.5  L 23 19  C 23 19.5208333333333  22.8302951388889 19.984375  22.4908854166667 20.390625  C 22.1514756944444 20.796875  21.7222222222222 21.1119791666667  21.203125 21.3359375  C 20.6840277777778 21.5598958333333  20.1674262152778 21.7265625  19.6533203125 21.8359375  C 19.1392144097222 21.9453125  18.6575520833333 22  18.2083333333333 22  C 17.7591145833333 22  17.2774522569444 21.9453125  16.7633463541667 21.8359375  C 16.2492404513889 21.7265625  15.7326388888889 21.5598958333333  15.2135416666667 21.3359375  C 14.6944444444444 21.1119791666667  14.2651909722222 20.796875  13.92578125 20.390625  C 13.5863715277778 19.984375  13.4166666666667 19.5208333333333  13.4166666666667 19  C 13.4166666666667 18.4791666666667  13.5863715277778 18.015625  13.92578125 17.609375  C 14.2651909722222 17.203125  14.6944444444444 16.8880208333333  15.2135416666667 16.6640625  C 15.7326388888889 16.4401041666667  16.2492404513889 16.2734375  16.7633463541667 16.1640625  C 17.2774522569444 16.0546875  17.7591145833333 16  18.2083333333333 16  C 19.2565104166667 16  20.21484375 16.203125  21.0833333333333 16.609375  L 21.0833333333333 8.21875  L 10 11.921875  L 10 23  C 9.58333333333333 23.5208333333333  9.41362847222222 23.984375  9.07421875 24.390625  C 8.73480902777778 24.796875  8.30555555555556 25.1119791666667  7.78645833333333 25.3359375  C 7.26736111111111 25.5598958333333  6.75075954861111 25.7265625  6.23665364583333 25.8359375  C 5.72254774305556 25.9453125  5.24088541666667 26  4.79166666666667 26  C 4.34244791666667 26  3.86078559027778 25.9453125  3.3466796875 25.8359375  C 2.83257378472222 25.7265625  2.31597222222222 25.5598958333333  1.796875 25.3359375  C 1.27777777777778 25.1119791666667  0.848524305555556 24.796875  0.509114583333333 24.390625  C 0.169704861111111 23.984375  0 23.5208333333333  0 23  C 0 22.4791666666667  0.169704861111111 22.015625  0.509114583333333 21.609375  C 0.848524305555556 21.203125  1.27777777777778 20.8880208333333  1.796875 20.6640625  C 2.31597222222222 20.4401041666667  2.83257378472222 20.2734375  3.3466796875 20.1640625  C 3.86078559027778 20.0546875  4.34244791666667 20  4.79166666666667 20  C 5.83984375 20  6.79817708333333 20.203125  8 20.609375  L 8 5.5  C 7.66666666666667 5.17708333333333  7.76150173611111 4.8828125  7.951171875 4.6171875  C 8.14084201388889 4.3515625  8.38541666666667 4.16666666666666  8.68489583333333 4.0625  L 21.1432291666667 0.0624999999999998  C 21.2630208333333 0.0208333333333333  21.4027777777778 0  21.5625 0  C 21.9618055555556 0  22.3012152777778 0.145833333333333  22.5807291666667 0.437500000000001  Z " fill-rule="nonzero" fill="url(#LinearGradient83)" stroke="none" transform="matrix(1 0 0 1 176 737 )" />
  </g>
</svg>