<?xml version="1.0" encoding="utf-8"?>
<svg version="1.1" xmlns:xlink="http://www.w3.org/1999/xlink" width="32px" height="27px" xmlns="http://www.w3.org/2000/svg">
  <g transform="matrix(1 0 0 1 -35 -155 )">
    <path d="M 16.7857142857143 26.68359375  C 16.5714285714286 26.89453125  16.3095238095238 27  16 27  C 15.6904761904762 27  15.4285714285714 26.89453125  15.2142857142857 26.68359375  L 4.07142857142857 16.1015625  C 3.95238095238095 16.0078125  3.78869047619048 15.85546875  3.58035714285714 15.64453125  C 3.37202380952381 15.43359375  3.04166666666667 15.0498046875  2.58928571428571 14.4931640625  C 2.13690476190476 13.9365234375  1.73214285714286 13.365234375  1.375 12.779296875  C 1.01785714285714 12.193359375  0.699404761904762 11.484375  0.419642857142857 10.65234375  C 0.139880952380952 9.8203125  0 9.01171875  0 8.2265625  C 0 5.6484375  0.755952380952381 3.6328125  2.26785714285714 2.1796875  C 3.77976190476191 0.7265625  5.86904761904762 0  8.53571428571429 0  C 9.27380952380952 0  10.0267857142857 0.125976562499998  10.7946428571429 0.377929687500001  C 11.5625 0.629882812499998  12.2767857142857 0.969726562499998  12.9375 1.3974609375  C 13.5982142857143 1.8251953125  14.1666666666667 2.2265625  14.6428571428571 2.6015625  C 15.1190476190476 2.9765625  15.5714285714286 3.375  16 3.796875  C 16.4285714285714 3.375  16.8809523809524 2.9765625  17.3571428571429 2.6015625  C 17.8333333333333 2.2265625  18.4017857142857 1.8251953125  19.0625 1.3974609375  C 19.7232142857143 0.969726562499998  20.4375 0.629882812499998  21.2053571428571 0.377929687500001  C 21.9732142857143 0.125976562499998  22.7261904761905 0  23.4642857142857 0  C 26.1309523809524 0  28.2202380952381 0.7265625  29.7321428571429 2.1796875  C 31.2440476190476 3.6328125  32 5.6484375  32 8.2265625  C 32 10.81640625  30.6369047619048 13.453125  27.9107142857143 16.13671875  L 16.7857142857143 26.68359375  Z " fill-rule="nonzero" fill="#d9001b" stroke="none" transform="matrix(1 0 0 1 35 155 )" />
  </g>
</svg>