<?xml version="1.0" encoding="utf-8"?>
<svg version="1.1" xmlns:xlink="http://www.w3.org/1999/xlink" width="50px" height="54px" xmlns="http://www.w3.org/2000/svg">
  <g transform="matrix(1 0 0 1 -156 -199 )">
    <path d="M 14.8211732259603 0.762733547749423  L 49.4567749147377 44.5867200025122  C 47.6282879562664 46.7197125454849  44.2515155602915 48.7814606728082  42.1571702415948 50.0036565245122  C 37.8628201147252 52.509707873337  33.1730978090361 53.7627335477494  28.0880033245275 53.7627335477494  C 23.002908840019 53.7627335477494  18.3131865343299 52.509707873337  14.0188364074602 50.0036565245122  C 9.72448628059055 47.4976051756874  6.32428554274333 44.0974044378402  3.81823419391853 39.8030543109706  C 1.31218284509376 35.5087041841009  0.0591571706813648 30.8189818784118  0.0591571706813676 25.7338873939032  C 0.0591571706813773 20.6487929093947  1.31218284509376 15.9590706037056  3.81823419391853 11.664720476836  C 6.32428554274334 7.37037034996631  10.6528166940165 3.30600425049071  14.8211732259603 0.762733547749423  Z " fill-rule="nonzero" fill="#ffffff" stroke="none" transform="matrix(1 0 0 1 156 199 )" />
  </g>
</svg>