<?xml version="1.0" encoding="utf-8"?>
<svg version="1.1" xmlns:xlink="http://www.w3.org/1999/xlink" width="48px" height="51px" xmlns="http://www.w3.org/2000/svg">
  <g transform="matrix(1 0 0 1 -157 -198 )">
    <path d="M 25.469387755102 0.188294593553349  L 47.5229591836735 38.2998046875  C 45.1832220367279 42.682022371019  42.156037414966 45.3001302083333  38.2538265306122 47.580078125  C 34.3516156462585 49.8600260416666  30.0901360544218 51  25.469387755102 51  C 20.8486394557823 51  16.5871598639456 49.8600260416666  12.6849489795918 47.580078125  C 8.7827380952381 45.3001302083333  5.69302721088435 42.2067057291667  3.41581632653062 38.2998046875  C 1.13860544217687 34.3929036458333  0 30.1263020833333  0 25.5  C 0 20.8736979166667  1.13860544217687 16.6070963541667  3.41581632653062 12.7001953125  C 5.69302721088435 8.79329427083332  8.7827380952381 5.69986979166665  12.6849489795918 3.41992187499999  C 16.5871598639456 1.13997395833333  21.0276992266022 0.352029022730194  25.469387755102 0.188294593553349  Z " fill-rule="nonzero" fill="#ff0000" stroke="none" transform="matrix(1 0 0 1 157 198 )" />
  </g>
</svg>