<?xml version="1.0" encoding="utf-8"?>
<svg version="1.1" xmlns:xlink="http://www.w3.org/1999/xlink" width="44px" height="45px" xmlns="http://www.w3.org/2000/svg">
  <g transform="matrix(1 0 0 1 -160 -201 )">
    <path d="M 24.8002967909479 0.0293968207882624  L 43.082619180115 31.3860056616099  C 41.2870339454647 35.1004706808675  37.2228202160494 39.970703125  33.7772569444444 41.982421875  C 30.3316936728395 43.994140625  26.5689043209877 45  22.4888888888889 45  C 18.4088734567901 45  14.6460841049383 43.994140625  11.2005208333333 41.982421875  C 7.7549575617284 39.970703125  5.02681327160493 37.2412109375  3.01608796296297 33.7939453125  C 1.00536265432099 30.3466796875  0 26.58203125  0 22.5  C 0 18.41796875  1.00536265432099 14.6533203125  3.01608796296297 11.2060546875  C 5.02681327160493 7.75878906250001  7.7549575617284 5.02929687499999  11.2005208333333 3.01757812499999  C 14.6460841049383 1.00585937499999  20.5300686329067 -0.163315671045958  24.8002967909479 0.0293968207882624  Z " fill-rule="nonzero" fill="#ffffff" stroke="none" transform="matrix(1 0 0 1 160 201 )" />
  </g>
</svg>