<?xml version="1.0" encoding="utf-8"?>
<svg version="1.1" xmlns:xlink="http://www.w3.org/1999/xlink" width="33px" height="58px" xmlns="http://www.w3.org/2000/svg">
  <g transform="matrix(1 0 0 1 -190 -167 )">
    <path d="M 32.5706051873199 34.3688760806916  C 32.5706051873199 34.3688760806916  30.0677517823373 28.3531249535224  24.3328519040932 24.3396778961228  C 18.8908177223529 20.5311866344303  8 17.6  8 17.6  L 8 57.7  C 7.90000000000001 57.7  -0.582978723404267 48.3701331078506  1 49.882983190223  L 1 0  C 1 0  10.0772973515249 7.53838393971825  14.8764044943821 9.43570536828966  C 19.6755116372392 11.3330267968611  22.428500312556 12.6450848544428  24.3328519040932 13.9742278204798  C 26.2372034956305 15.3033707865169  28.9534889259217 17.992084963337  30.8508103544931 21.898334963337  C 32.7481317830645 25.804584963337  32.5706051873199 34.3688760806916  32.5706051873199 34.3688760806916  Z " fill-rule="nonzero" fill="#ff0101" stroke="none" transform="matrix(1 0 0 1 190 167 )" />
  </g>
</svg>