<?xml version="1.0" encoding="utf-8"?>
<svg version="1.1" xmlns:xlink="http://www.w3.org/1999/xlink" width="107px" height="107px" xmlns="http://www.w3.org/2000/svg">
  <g transform="matrix(1 0 0 1 -134 -158 )">
    <path d="M 99.8248697916667 26.6455078125  C 104.608289930556 34.8423394097222  107 43.7938368055555  107 53.5  C 107 63.2061631944445  104.608289930556 72.1576605902778  99.8248697916667 80.3544921875  C 95.0414496527778 88.5513237847222  88.5513237847222 95.0414496527778  80.3544921875 99.8248697916667  C 72.1576605902778 104.608289930556  63.2061631944445 107  53.5 107  C 43.7938368055556 107  34.8423394097222 104.608289930556  26.6455078125 99.8248697916667  C 18.4486762152778 95.0414496527778  11.9585503472222 88.5513237847222  7.17513020833333 80.3544921875  C 2.39171006944444 72.1576605902778  0 63.2061631944445  0 53.5  C 0 43.7938368055555  2.39171006944444 34.8423394097222  7.17513020833333 26.6455078125  C 11.9585503472222 18.4486762152778  18.4486762152778 11.9585503472222  26.6455078125 7.17513020833333  C 34.8423394097222 2.39171006944444  43.7938368055556 0  53.5 0  C 63.2061631944445 0  72.1576605902778 2.39171006944444  80.3544921875 7.17513020833333  C 88.5513237847222 11.9585503472222  95.0414496527778 18.4486762152778  99.8248697916667 26.6455078125  Z " fill-rule="nonzero" fill="#ffffff" stroke="none" transform="matrix(1 0 0 1 134 158 )" />
  </g>
</svg>