<?xml version="1.0" encoding="utf-8"?>
<svg version="1.1" xmlns:xlink="http://www.w3.org/1999/xlink" width="54px" height="59px" xmlns="http://www.w3.org/2000/svg">
  <g transform="matrix(1 0 0 1 -153 -199 )">
    <path d="M 15.9270309838441 0.206604155874006  L 54 48.8459824614055  C 52.1431577268922 50.9861909235422  49.5485843563236 52.5136282480503  47.0833495145459 53.9522638780962  C 42.3284076894972 56.7271024502209  37.1356879343802 58.1145217362833  31.505190249195 58.1145217362833  C 25.8746925640099 58.1145217362833  20.6819728088929 56.7271024502209  15.9270309838441 53.9522638780962  C 11.1720891587954 51.1774253059714  7.40719896020867 47.4125351073847  4.6323603880839 42.657593282336  C 1.85752181595914 37.9026514572872  0.470102529896762 32.7099317021703  0.470102529896751 27.0794340169851  C 0.470102529896736 21.4489363318  1.85752181595911 16.256216576683  4.63236038808387 11.5012747516342  C 7.40719896020862 6.74633292658552  10.9053851950512 2.79079531494876  15.9270309838441 0.206604155874006  Z " fill-rule="nonzero" fill="#ff0000" stroke="none" transform="matrix(1 0 0 1 153 199 )" />
  </g>
</svg>